<?xml version="1.0" standalone="no"?>
<!DOCTYPE svg PUBLIC "-//W3C//DTD SVG 1.1//EN" "http://www.w3.org/Graphics/SVG/1.1/DTD/svg11.dtd" >
<svg>
<metadata>
Created by FontForge 20090622 at Wed May 24 16:05:37 2017
 By deploy user
Digitized data copyright 2012-2016, The Mozilla Foundation and Telefonica S.A.
</metadata>
<defs>
<font id="FiraSans-Bold" horiz-adv-x="560" >
  <font-face 
    font-family="Fira Sans"
    font-weight="700"
    font-stretch="normal"
    units-per-em="1000"
    panose-1="2 11 8 3 5 0 0 2 0 4"
    ascent="800"
    descent="-200"
    x-height="531"
    cap-height="693"
    bbox="-783 -354 1360 1191"
    underline-thickness="50"
    underline-position="-50"
    unicode-range="U+000D-U+FEFF"
  />
<missing-glyph horiz-adv-x="666" 
d="M543 1050v-1400h-420v1400h420zM489 998h-311v-1296h311v1296zM324 451q111 0 111 -115q0 -104 -95 -118v-45q0 -11 -7.5 -17.5t-17.5 -6.5t-17.5 6.5t-7.5 17.5v84q53 3 72 19.5t19 57.5q0 33 -13 51t-48 18q-29 0 -52 -11q-7 -3 -13 -3q-24 0 -24 23q0 19 29.5 29
t63.5 10zM315 120q15 0 25 -10t10 -25q0 -16 -10 -26.5t-25 -10.5t-25 10.5t-10 26.5q0 15 10 25t25 10z" />
    <glyph glyph-name="fi" unicode="fi" horiz-adv-x="599" 
d="M305 759q94 0 176 -40l-44 -101q-59 24 -114 24q-46 0 -63.5 -16t-17.5 -55v-40h295v-531h-158v421h-137v-421h-158v421h-81v110h81v46q0 82 54 132t167 50z" />
    <glyph glyph-name="fl" unicode="fl" horiz-adv-x="631" 
d="M602 113l31 -112q-44 -18 -102 -18q-67 0 -103.5 38.5t-36.5 111.5v501q-44 11 -78 11q-40 0 -55.5 -16t-15.5 -55v-43h101l-18 -110h-83v-421h-158v421h-81v110h81v47q0 80 53 130.5t153 50.5q53 0 116 -18l143 15v-607q0 -41 27 -41q14 0 26 5z" />
    <glyph glyph-name=".notdef" horiz-adv-x="666" 
d="M543 1050v-1400h-420v1400h420zM489 998h-311v-1296h311v1296zM324 451q111 0 111 -115q0 -104 -95 -118v-45q0 -11 -7.5 -17.5t-17.5 -6.5t-17.5 6.5t-7.5 17.5v84q53 3 72 19.5t19 57.5q0 33 -13 51t-48 18q-29 0 -52 -11q-7 -3 -13 -3q-24 0 -24 23q0 19 29.5 29
t63.5 10zM315 120q15 0 25 -10t10 -25q0 -16 -10 -26.5t-25 -10.5t-25 10.5t-10 26.5q0 15 10 25t25 10z" />
    <glyph glyph-name=".null" horiz-adv-x="0" 
 />
    <glyph glyph-name="nonmarkingreturn" horiz-adv-x="333" 
 />
    <glyph glyph-name="CR" unicode="&#xd;" horiz-adv-x="237" 
 />
    <glyph glyph-name="space" unicode=" " horiz-adv-x="237" 
 />
    <glyph glyph-name="exclam" unicode="!" horiz-adv-x="240" 
d="M204 693l-20 -438h-128l-20 438h168zM120 164q38 0 64.5 -26.5t26.5 -63.5q0 -38 -26.5 -64.5t-64.5 -26.5q-37 0 -63.5 26.5t-26.5 64.5q0 37 26.5 63.5t63.5 26.5z" />
    <glyph glyph-name="quotedbl" unicode="&#x22;" horiz-adv-x="439" 
d="M67 414l-19 279h143l-20 -279h-104zM268 414l-19 279h143l-20 -279h-104z" />
    <glyph glyph-name="numbersign" unicode="#" horiz-adv-x="557" 
d="M542 440h-70l-25 -192h58v-105h-72l-19 -143h-131l19 143h-100l-19 -143h-131l19 143h-56v105h70l25 192h-58v105h72l17 131h131l-17 -131h100l17 131h131l-17 -131h56v-105zM316 248l25 192h-100l-25 -192h100z" />
    <glyph glyph-name="dollar" unicode="$" horiz-adv-x="549" 
d="M525 200q0 -78 -49 -131.5t-136 -71.5v-158h-114v152q-132 11 -217 94l81 88q72 -67 166 -67q49 0 77 22t28 60q0 37 -24.5 57.5t-96.5 42.5q-110 35 -156.5 83t-46.5 123t52 125.5t137 62.5v148h114v-148q99 -16 166 -81l-73 -86q-66 56 -145 56q-42 0 -66 -17t-24 -48
t25.5 -49t103.5 -43q101 -32 149.5 -80t48.5 -134z" />
    <glyph glyph-name="percent" unicode="%" horiz-adv-x="859" 
d="M614 720l97 -62l-463 -698l-97 62zM207 690q77 0 127.5 -49.5t50.5 -130.5t-50.5 -130.5t-127.5 -49.5q-76 0 -127 49.5t-51 130.5t51 130.5t127 49.5zM207 595q-65 0 -65 -85t65 -85q64 0 64 85t-64 85zM652 342q77 0 127.5 -49t50.5 -130q0 -82 -50.5 -131t-127.5 -49
t-128 49.5t-51 130.5t51 130t128 49zM652 247q-65 0 -65 -84q0 -86 65 -86q64 0 64 86q0 84 -64 84z" />
    <glyph glyph-name="ampersand" unicode="&#x26;" horiz-adv-x="760" 
d="M313 710q99 0 156.5 -45t57.5 -115q0 -59 -33.5 -102.5t-98.5 -86.5l135 -127q28 60 48 144l132 -39q-38 -110 -92 -186l121 -107l-135 -63l-78 75q-93 -75 -219 -75q-111 0 -179 53t-68 141q0 60 32.5 105t102.5 91q-54 52 -75 88.5t-21 82.5q0 70 55.5 118t158.5 48z
M315 608q-30 0 -47 -17.5t-17 -46.5q0 -26 12.5 -47t44.5 -53q68 44 68 102q0 29 -16.5 45.5t-44.5 16.5zM285 288q-60 -44 -60 -102q0 -41 30 -66t79 -25q63 0 113 38z" />
    <glyph glyph-name="quotesingle" unicode="'" horiz-adv-x="238" 
d="M67 414l-19 279h143l-20 -279h-104z" />
    <glyph glyph-name="parenleft" unicode="(" horiz-adv-x="325" 
d="M212 859l101 -68q-71 -102 -103 -203.5t-32 -237.5t32 -237.5t103 -203.5l-101 -68q-49 67 -75 107.5t-58 106t-46.5 137.5t-14.5 158t14.5 158t46.5 137.5t58 106t75 107.5z" />
    <glyph glyph-name="parenright" unicode=")" horiz-adv-x="325" 
d="M113 859l59.5 -84.5t50.5 -84.5t45 -99t26.5 -108.5t11.5 -132.5t-11.5 -132.5t-26.5 -108.5t-45 -99t-50.5 -84.5l-59.5 -84.5l-101 68q71 103 103 204.5t32 236.5t-32 236.5t-103 204.5z" />
    <glyph glyph-name="asterisk" unicode="*" horiz-adv-x="449" 
d="M441 535l-141 -23l101 -102l-110 -80l-66 127l-66 -128l-110 80l100 102l-141 24l41 126l128 -62l-20 143h136l-21 -144l127 64z" />
    <glyph glyph-name="plus" unicode="+" horiz-adv-x="531" 
d="M331 549v-156h151v-122h-151v-156h-131v156h-152v122h152v156h131z" />
    <glyph glyph-name="comma" unicode="," horiz-adv-x="240" 
d="M120 164q38 0 64 -26t26 -64q0 -35 -32 -106l-63 -145h-89l43 176q-40 27 -40 75q0 38 26 64t65 26z" />
    <glyph glyph-name="hyphen" unicode="-" horiz-adv-x="407" 
d="M44 252v122h319v-122h-319z" />
    <glyph glyph-name="period" unicode="." horiz-adv-x="240" 
d="M120 164q37 0 63.5 -26.5t26.5 -63.5q0 -38 -26.5 -64.5t-63.5 -26.5q-38 0 -64.5 26.5t-26.5 64.5q0 37 26.5 63.5t64.5 26.5z" />
    <glyph glyph-name="slash" unicode="/" horiz-adv-x="520" 
d="M309 816l138 -31l-235 -897l-139 32z" />
    <glyph glyph-name="zero" unicode="0" horiz-adv-x="585" 
d="M293 690q124 0 189.5 -91t65.5 -262q0 -170 -65.5 -262t-189.5 -92t-189.5 92t-65.5 262q0 171 65.5 262t189.5 91zM293 573q-50 0 -71.5 -52t-21.5 -184t21.5 -184.5t71.5 -52.5t71.5 51.5t21.5 185.5t-21.5 185t-71.5 51z" />
    <glyph glyph-name="one" unicode="1" horiz-adv-x="464" 
d="M382 676v-676h-155v522l-145 -89l-69 105l228 138h141z" />
    <glyph glyph-name="two" unicode="2" horiz-adv-x="517" 
d="M238 690q109 0 171 -55.5t62 -137.5q0 -80 -53.5 -157t-209.5 -219h277l-16 -121h-440v112q176 174 228 241t52 128q0 41 -23.5 64.5t-63.5 23.5q-65 0 -123 -70l-93 74q89 117 232 117z" />
    <glyph glyph-name="three" unicode="3" horiz-adv-x="520" 
d="M239 690q106 0 165.5 -49t59.5 -123q0 -61 -34.5 -102t-97.5 -59q68 -7 111 -48.5t43 -117.5q0 -89 -68.5 -148.5t-189.5 -59.5q-148 0 -232 102l85 83q65 -65 138 -65q47 0 76 26t29 72q0 52 -27.5 74.5t-82.5 22.5h-56l17 109h39q45 0 71 23t26 65q0 37 -24 57.5
t-66 20.5q-71 0 -132 -59l-78 85q96 91 228 91z" />
    <glyph glyph-name="four" unicode="4" horiz-adv-x="565" 
d="M544 264v-118h-76v-146h-154l-1 146h-285v105l192 442l134 -50l-163 -379h124l17 160h136v-160h76z" />
    <glyph glyph-name="five" unicode="5" horiz-adv-x="536" 
d="M472 676l-18 -113h-245v-142q47 22 100 22q86 0 140 -58.5t54 -161.5q0 -108 -72.5 -174t-192.5 -66q-137 0 -225 102l88 82q55 -65 131 -65q52 0 80.5 31t28.5 89q0 113 -95 113q-37 0 -81 -24h-107v365h414z" />
    <glyph glyph-name="six" unicode="6" horiz-adv-x="564" 
d="M345 455q86 0 140 -59.5t54 -164.5q0 -106 -67 -177t-178 -71q-130 0 -193 87t-63 239q0 173 79 277t215 104q86 0 154 -45l-58 -94q-46 26 -92 26q-57 0 -92 -48t-42 -136q61 62 143 62zM296 96q42 0 63.5 35.5t21.5 97.5q0 63 -20 90t-60 27q-54 0 -99 -53
q2 -107 23 -152t71 -45z" />
    <glyph glyph-name="seven" unicode="7" horiz-adv-x="468" 
d="M450 676v-107l-248 -585l-143 48l227 525h-273v119h437z" />
    <glyph glyph-name="eight" unicode="8" horiz-adv-x="581" 
d="M417 363q134 -64 134 -180q0 -85 -71 -142.5t-193 -57.5q-119 0 -188.5 56.5t-69.5 140.5q0 113 126 168q-99 58 -99 160q0 81 66 131.5t169 50.5t168.5 -46.5t65.5 -127.5q0 -95 -108 -153zM292 583q-38 0 -60.5 -20t-22.5 -57q0 -34 19.5 -55.5t62.5 -39.5l21 -8
q34 22 47 46.5t13 58.5t-20.5 54.5t-59.5 20.5zM292 96q48 0 74.5 24.5t26.5 63.5q0 41 -23 64.5t-81 44.5l-33 12q-68 -38 -68 -117q0 -42 28 -67t76 -25z" />
    <glyph glyph-name="nine" unicode="9" 
d="M277 690q122 0 187 -71.5t65 -190.5q0 -203 -99.5 -307t-321.5 -149l-32 110q131 32 197 80.5t86 136.5q-53 -65 -140 -65q-82 0 -137.5 61t-55.5 162q0 104 71.5 168.5t179.5 64.5zM268 345q58 0 100 60q1 94 -20 133t-71 39q-43 0 -67.5 -29.5t-24.5 -85.5
q0 -117 83 -117z" />
    <glyph glyph-name="colon" unicode=":" horiz-adv-x="240" 
d="M120 510q37 0 63.5 -26.5t26.5 -63.5q0 -38 -26.5 -64.5t-63.5 -26.5q-38 0 -64.5 26.5t-26.5 64.5q0 37 26.5 63.5t64.5 26.5zM120 164q37 0 63.5 -26.5t26.5 -63.5q0 -38 -26.5 -64.5t-63.5 -26.5q-38 0 -64.5 26.5t-26.5 64.5q0 37 26.5 63.5t64.5 26.5z" />
    <glyph glyph-name="semicolon" unicode=";" horiz-adv-x="240" 
d="M120 510q37 0 63.5 -26.5t26.5 -63.5q0 -38 -26.5 -64.5t-63.5 -26.5q-38 0 -64.5 26.5t-26.5 64.5q0 37 26.5 63.5t64.5 26.5zM120 164q38 0 64 -26t26 -64q0 -35 -32 -106l-63 -145h-89l43 176q-40 27 -40 75q0 38 26 64t65 26z" />
    <glyph glyph-name="less" unicode="&#x3c;" horiz-adv-x="519" 
d="M434 576l50 -111l-316 -132l316 -128l-50 -115l-400 173v139z" />
    <glyph glyph-name="equal" unicode="=" horiz-adv-x="519" 
d="M48 375v122h422v-122h-422zM48 166v122h422v-122h-422z" />
    <glyph glyph-name="greater" unicode="&#x3e;" horiz-adv-x="519" 
d="M84 576l400 -174v-139l-400 -173l-50 115l316 128l-316 132z" />
    <glyph glyph-name="question" unicode="?" horiz-adv-x="481" 
d="M248 710q105 0 162 -48t57 -119q0 -45 -18.5 -78t-45 -53t-53 -37t-45 -40.5t-18.5 -54.5v-25h-144v31q0 48 16.5 83t40 54t46.5 34t39.5 32.5t16.5 39.5q0 27 -18.5 42t-51.5 15q-63 0 -117 -61l-101 78q91 107 234 107zM217 164q37 0 63.5 -26.5t26.5 -63.5
q0 -38 -26.5 -64.5t-63.5 -26.5t-63.5 26.5t-26.5 64.5q0 37 26.5 63.5t63.5 26.5z" />
    <glyph glyph-name="at" unicode="@" horiz-adv-x="1020" 
d="M527 503q92 0 173 -45v-247q0 -61 10.5 -85t36.5 -24q83 0 83 212q0 134 -76 207.5t-228 73.5q-158 0 -246.5 -97t-88.5 -256q0 -162 86.5 -254.5t249.5 -92.5q104 0 197 34l37 -109q-110 -42 -235 -42q-218 0 -348 126t-130 338q0 204 135 336t344 132
q103 0 188.5 -32.5t141 -87.5t85.5 -125.5t30 -148.5q0 -137 -60 -224.5t-158 -87.5q-56 0 -90.5 30t-43.5 72q-42 -98 -143 -98q-91 0 -137 61.5t-46 163.5q0 124 61.5 197t171.5 73zM498 107q46 0 68 49v238q-22 9 -44 9q-85 0 -85 -171q0 -68 14.5 -96.5t46.5 -28.5z" />
    <glyph glyph-name="A" unicode="A" horiz-adv-x="590" 
d="M430 0l-36 149h-202l-35 -149h-170l209 693h199l209 -693h-174zM220 268h146l-73 306z" />
    <glyph glyph-name="B" unicode="B" horiz-adv-x="617" 
d="M434 367q156 -30 156 -165q0 -111 -79.5 -156.5t-222.5 -45.5h-223v693h196q146 0 223 -41.5t77 -135.5q0 -61 -36.5 -98.5t-90.5 -50.5zM277 577h-48v-161h61q104 0 104 84q0 42 -28 59.5t-89 17.5zM289 119q65 0 98.5 19.5t33.5 72.5q0 96 -120 96h-72v-188h60z" />
    <glyph glyph-name="C" unicode="C" horiz-adv-x="575" 
d="M348 710q121 0 211 -76l-78 -93q-62 48 -125 48q-70 0 -110.5 -59t-40.5 -182q0 -121 40.5 -179.5t112.5 -58.5q62 0 136 56l73 -94q-89 -89 -217 -89q-145 0 -231 95.5t-86 269.5q0 170 88 266t227 96z" />
    <glyph glyph-name="D" unicode="D" horiz-adv-x="651" 
d="M258 693q60 0 109 -8t97.5 -30.5t81 -60t52.5 -99.5t20 -145q0 -350 -345 -350h-208v693h193zM281 574h-52v-455h54q81 0 123 50.5t42 180.5q0 68 -12 113.5t-36 69t-52 32.5t-67 9z" />
    <glyph glyph-name="E" unicode="E" horiz-adv-x="526" 
d="M490 693l-17 -117h-244v-166h213v-115h-213v-177h261v-118h-425v693h425z" />
    <glyph glyph-name="F" unicode="F" horiz-adv-x="487" 
d="M65 0v693h413l-17 -117h-232v-184h202v-117h-202v-275h-164z" />
    <glyph glyph-name="G" unicode="G" horiz-adv-x="645" 
d="M365 710q134 0 231 -85l-83 -87q-69 53 -141 53q-77 0 -123 -60.5t-46 -183.5q0 -133 35 -188.5t109 -55.5q52 0 94 23v157h-90l-16 116h265v-343q-114 -73 -249 -73q-158 0 -238 92.5t-80 271.5q0 171 93.5 267t238.5 96z" />
    <glyph glyph-name="H" unicode="H" horiz-adv-x="666" 
d="M437 0v297h-208v-297h-164v693h164v-268h208v268h164v-693h-164z" />
    <glyph glyph-name="I" unicode="I" horiz-adv-x="293" 
d="M229 693v-693h-164v693h164z" />
    <glyph glyph-name="J" unicode="J" horiz-adv-x="317" 
d="M256 693v-588q0 -63 -17.5 -110.5t-51 -78.5t-69.5 -50t-85 -35l-44 116q63 25 83 61t20 103v582h164z" />
    <glyph glyph-name="K" unicode="K" horiz-adv-x="633" 
d="M229 693v-693h-164v693h164zM627 693l-221 -311l239 -382h-190l-221 370l220 323h173z" />
    <glyph glyph-name="L" unicode="L" horiz-adv-x="513" 
d="M229 693v-563h270l-17 -130h-417v693h164z" />
    <glyph glyph-name="M" unicode="M" horiz-adv-x="786" 
d="M701 693l52 -693h-161l-12 271q-9 168 -2 283l-107 -481h-155l-114 481q9 -134 3 -285l-12 -269h-160l52 693h207l104 -470l97 470h208z" />
    <glyph glyph-name="N" unicode="N" horiz-adv-x="663" 
d="M599 693v-693h-209l-200 537q21 -165 21 -283v-254h-146v693h204l205 -538q-22 137 -22 258v280h147z" />
    <glyph glyph-name="O" unicode="O" horiz-adv-x="691" 
d="M345 710q148 0 230.5 -95t82.5 -268q0 -170 -83 -267t-230 -97t-229.5 95.5t-82.5 268.5q0 170 83 266.5t229 96.5zM345 590q-71 0 -105.5 -57.5t-34.5 -185.5t35 -186t105 -58q72 0 106.5 57.5t34.5 186.5t-35 186t-106 57z" />
    <glyph glyph-name="P" unicode="P" horiz-adv-x="600" 
d="M289 693q137 0 213 -57t76 -169q0 -117 -74.5 -176.5t-199.5 -59.5h-75v-231h-164v693h224zM290 349q119 0 119 118q0 109 -122 109h-58v-227h61z" />
    <glyph glyph-name="Q" unicode="Q" horiz-adv-x="690" 
d="M495 45q117 0 205 -63l-99 -129q-57 64 -117 98.5t-149 34.5q-140 0 -221 95t-81 266q0 170 83 266.5t229 96.5q148 0 230.5 -95t82.5 -268q0 -212 -163 -302zM205 347q0 -128 35 -186t105 -58q72 0 106.5 57.5t34.5 186.5t-35 186t-106 57t-105.5 -57.5t-34.5 -185.5z
" />
    <glyph glyph-name="R" unicode="R" horiz-adv-x="617" 
d="M435 0l-142 265h-64v-265h-164v693h227q285 0 285 -211q0 -67 -32 -111.5t-101 -75.5l176 -295h-185zM229 578v-200h69q110 0 110 104q0 50 -29.5 73t-90.5 23h-59z" />
    <glyph glyph-name="S" unicode="S" horiz-adv-x="572" 
d="M288 710q146 0 240 -89l-76 -89q-71 58 -152 58q-43 0 -68 -17.5t-25 -50.5t26.5 -51.5t107.5 -44.5q106 -34 156 -83.5t50 -140.5q0 -98 -73.5 -158.5t-201.5 -60.5q-160 0 -263 99l83 91q81 -68 175 -68q51 0 80.5 22.5t29.5 62.5q0 39 -26 60.5t-101 44.5
q-115 35 -163.5 86t-48.5 129q0 90 70 145t180 55z" />
    <glyph glyph-name="T" unicode="T" horiz-adv-x="540" 
d="M539 693l-16 -126h-171v-567h-164v567h-179v126h530z" />
    <glyph glyph-name="U" unicode="U" horiz-adv-x="651" 
d="M596 693v-463q0 -110 -70 -178.5t-201 -68.5q-132 0 -201 67t-69 180v463h164v-456q0 -67 25.5 -99.5t80.5 -32.5q56 0 81.5 32.5t25.5 99.5v456h164z" />
    <glyph glyph-name="V" unicode="V" horiz-adv-x="570" 
d="M584 693l-193 -693h-204l-200 693h173l132 -565l124 565h168z" />
    <glyph glyph-name="W" unicode="W" horiz-adv-x="847" 
d="M837 693l-116 -693h-213l-86 529l-91 -529h-208l-114 693h164l69 -569l96 569h172l90 -569l81 569h156z" />
    <glyph glyph-name="X" unicode="X" horiz-adv-x="581" 
d="M385 374l200 -374h-179l-119 264l-117 -264h-174l194 368l-179 325h178l100 -222l105 222h174z" />
    <glyph glyph-name="Y" unicode="Y" horiz-adv-x="594" 
d="M601 693l-222 -433v-260h-164v259l-222 434h179l128 -305l128 305h173z" />
    <glyph glyph-name="Z" unicode="Z" horiz-adv-x="544" 
d="M512 693v-124l-301 -438h306l-16 -131h-483v123l307 443h-276v127h463z" />
    <glyph glyph-name="bracketleft" unicode="[" horiz-adv-x="324" 
d="M299 823v-118h-115v-711h115v-117h-265v946h265z" />
    <glyph glyph-name="backslash" unicode="\" horiz-adv-x="520" 
d="M211 816l236 -896l-139 -32l-235 897z" />
    <glyph glyph-name="bracketright" unicode="]" horiz-adv-x="324" 
d="M290 823v-946h-265v118h115v710h-115v118h265z" />
    <glyph glyph-name="asciicircum" unicode="^" horiz-adv-x="559" 
d="M351 844l189 -317h-154l-108 199l-103 -199h-157l189 317h144z" />
    <glyph glyph-name="underscore" unicode="_" horiz-adv-x="520" 
d="M10 -171v124h500v-124h-500z" />
    <glyph glyph-name="grave" unicode="`" horiz-adv-x="340" 
d="M92 835l218 -132l-44 -81l-236 95z" />
    <glyph glyph-name="a" unicode="a" horiz-adv-x="548" 
d="M484 154q0 -30 8.5 -44t27.5 -21l-33 -103q-49 4 -80 21.5t-48 55.5q-52 -80 -160 -80q-79 0 -126 46t-47 120q0 87 64 133t185 46h54v23q0 47 -20 64.5t-70 17.5q-57 0 -139 -28l-36 104q105 39 200 39q114 0 167 -47t53 -141v-206zM245 96q54 0 84 51v94h-39
q-107 0 -107 -78q0 -32 16.5 -49.5t45.5 -17.5z" />
    <glyph glyph-name="b" unicode="b" horiz-adv-x="597" 
d="M363 548q95 0 146 -74.5t51 -208.5q0 -125 -57 -203.5t-154 -78.5q-87 0 -139 68l-8 -51h-140v742l158 17v-282q52 71 143 71zM303 98q93 0 93 167q0 95 -22 131t-64 36q-53 0 -90 -62v-221q32 -51 83 -51z" />
    <glyph glyph-name="c" unicode="c" horiz-adv-x="479" 
d="M292 548q105 0 182 -65l-68 -94q-50 38 -101 38q-107 0 -107 -165q0 -84 27 -119t78 -35q45 0 102 36l69 -98q-79 -63 -179 -63q-122 0 -192.5 75.5t-70.5 202.5q0 128 71 207.5t189 79.5z" />
    <glyph glyph-name="d" unicode="d" horiz-adv-x="600" 
d="M380 759l158 -17v-742h-140l-8 62q-56 -79 -151 -79q-99 0 -150.5 76t-51.5 208q0 124 60 202.5t157 78.5q76 0 126 -50v261zM288 99q54 0 92 60v229q-39 45 -83 45t-70 -41t-26 -126q0 -93 22.5 -130t64.5 -37z" />
    <glyph glyph-name="e" unicode="e" horiz-adv-x="552" 
d="M525 276q0 -33 -3 -57h-329q8 -67 38 -94t83 -27q59 0 127 47l65 -88q-93 -74 -207 -74q-129 0 -198 76t-69 204q0 124 65.5 204.5t182.5 80.5q115 0 180 -72t65 -200zM370 314v7q-2 122 -86 122q-41 0 -63.5 -30t-27.5 -99h177z" />
    <glyph glyph-name="f" unicode="f" horiz-adv-x="356" 
d="M305 642q-34 0 -49 -16t-15 -54v-41h125l-17 -110h-108v-421h-158v421h-80v110h80v47q0 80 52.5 130.5t150.5 50.5q79 0 145 -34l-43 -103q-40 20 -83 20z" />
    <glyph glyph-name="g" unicode="g" horiz-adv-x="551" 
d="M514 617l37 -117q-52 -21 -153 -21q52 -22 76 -54t24 -83q0 -79 -60.5 -128.5t-162.5 -49.5q-33 0 -61 6q-17 -9 -17 -30q0 -32 58 -32h80q92 0 147.5 -43t55.5 -111q0 -83 -71.5 -129.5t-206.5 -46.5q-143 0 -198.5 43t-55.5 128h142q0 -36 23.5 -51t92.5 -15
q65 0 90 15.5t25 44.5q0 52 -76 52h-77q-82 0 -122.5 29.5t-40.5 75.5q0 62 63 102q-95 50 -95 152q0 89 64 141.5t169 52.5q80 -2 135.5 16t114.5 53zM268 444q-37 0 -58.5 -23.5t-21.5 -64.5q0 -43 21.5 -66.5t58.5 -23.5q80 0 80 92q0 86 -80 86z" />
    <glyph glyph-name="h" unicode="h" horiz-adv-x="577" 
d="M373 548q69 0 108 -42t39 -118v-388h-158v361q0 40 -13 55.5t-37 15.5q-48 0 -92 -68v-364h-158v742l158 16v-284q65 74 153 74z" />
    <glyph glyph-name="i" unicode="i" horiz-adv-x="282" 
d="M140 811q41 0 67.5 -25.5t26.5 -64.5t-26.5 -64.5t-67.5 -25.5t-67 25.5t-26 64.5t26 64.5t67 25.5zM220 531v-531h-158v531h158z" />
    <glyph glyph-name="j" unicode="j" horiz-adv-x="281" 
d="M140 811q41 0 67.5 -25.5t26.5 -64.5t-26.5 -64.5t-67.5 -25.5t-67 25.5t-26 64.5t26 64.5t67 25.5zM219 531v-471q0 -63 -15 -110t-45.5 -79t-66 -53t-86.5 -39l-53 115q58 26 83 57.5t25 98.5v481h158z" />
    <glyph glyph-name="k" unicode="k" horiz-adv-x="552" 
d="M220 759v-759h-158v742zM548 531l-161 -233l174 -298h-178l-158 290l162 241h161z" />
    <glyph glyph-name="l" unicode="l" horiz-adv-x="297" 
d="M203 -17q-69 0 -107.5 39.5t-38.5 112.5v607l158 17v-618q0 -33 27 -33q14 0 26 5l31 -112q-43 -18 -96 -18z" />
    <glyph glyph-name="m" unicode="m" horiz-adv-x="845" 
d="M649 548q63 0 101 -42.5t38 -117.5v-388h-158v361q0 71 -45 71t-81 -69v-363h-158v361q0 71 -45 71t-81 -69v-363h-158v531h138l11 -62q62 79 154 79q45 0 77.5 -22t47.5 -62q63 84 159 84z" />
    <glyph glyph-name="n" unicode="n" horiz-adv-x="577" 
d="M373 548q69 0 108 -42t39 -118v-388h-158v361q0 40 -12.5 55.5t-37.5 15.5q-48 0 -92 -69v-363h-158v531h138l11 -63q68 80 162 80z" />
    <glyph glyph-name="o" unicode="o" horiz-adv-x="584" 
d="M292 548q122 0 191 -74.5t69 -208.5q0 -129 -69.5 -205.5t-190.5 -76.5t-190.5 74.5t-69.5 208.5q0 129 69.5 205.5t190.5 76.5zM292 432q-96 0 -96 -166q0 -87 23.5 -127t72.5 -40q96 0 96 166q0 87 -23.5 127t-72.5 40z" />
    <glyph glyph-name="p" unicode="p" horiz-adv-x="597" 
d="M362 548q100 0 149 -74t49 -207q0 -125 -57 -204.5t-154 -79.5q-80 0 -129 55v-243l-158 -17v753h139l8 -59q61 76 153 76zM301 99q95 0 95 166q0 94 -21 130.5t-63 36.5q-55 0 -92 -62v-224q32 -47 81 -47z" />
    <glyph glyph-name="q" unicode="q" horiz-adv-x="600" 
d="M400 531h138v-753l-158 17v256q-53 -68 -141 -68q-99 0 -150.5 76t-51.5 208q0 124 59.5 202.5t158.5 78.5q81 0 137 -63zM288 99q54 0 92 60v229q-39 45 -82 45q-97 0 -97 -167q0 -93 22.5 -130t64.5 -37z" />
    <glyph glyph-name="r" unicode="r" horiz-adv-x="401" 
d="M350 546q29 0 53 -7l-25 -153q-30 7 -48 7q-47 0 -71.5 -32.5t-38.5 -97.5v-263h-158v531h138l13 -103q18 55 54.5 86.5t82.5 31.5z" />
    <glyph glyph-name="s" unicode="s" horiz-adv-x="483" 
d="M249 548q115 0 195 -65l-58 -89q-65 41 -131 41q-64 0 -64 -40q0 -22 20 -35t89 -33q83 -24 123.5 -62.5t40.5 -106.5q0 -80 -67 -127.5t-169 -47.5q-135 0 -222 79l77 86q67 -52 141 -52q36 0 56.5 13t20.5 37q0 27 -20 40.5t-92 33.5q-157 45 -157 166q0 70 59.5 116
t157.5 46z" />
    <glyph glyph-name="t" unicode="t" horiz-adv-x="386" 
d="M342 125l53 -100q-60 -42 -144 -42q-174 1 -174 192v246h-75v110h75v115l158 18v-133h122l-17 -110h-105v-244q0 -37 12 -53t38 -16q27 0 57 17z" />
    <glyph glyph-name="u" unicode="u" horiz-adv-x="572" 
d="M510 531v-531h-137l-7 67q-58 -84 -161 -84q-73 0 -110.5 44t-37.5 123v381h158v-361q0 -39 12.5 -54.5t38.5 -15.5q50 0 86 62v369h158z" />
    <glyph glyph-name="v" unicode="v" horiz-adv-x="513" 
d="M519 531l-167 -531h-187l-171 531h172l94 -411l98 411h161z" />
    <glyph glyph-name="w" unicode="w" horiz-adv-x="749" 
d="M744 531l-110 -531h-189l-71 390l-70 -390h-187l-113 531h160l55 -413l83 413h154l73 -413l64 413h151z" />
    <glyph glyph-name="x" unicode="x" horiz-adv-x="512" 
d="M351 284l171 -284h-179l-92 199l-90 -199h-172l171 279l-154 252h177l74 -170l71 170h168z" />
    <glyph glyph-name="y" unicode="y" horiz-adv-x="518" 
d="M524 531l-169 -532q-32 -103 -104.5 -158.5t-194.5 -62.5l-17 111q76 10 112.5 34t58.5 77h-54l-162 531h168l95 -430l104 430h163z" />
    <glyph glyph-name="z" unicode="z" horiz-adv-x="459" 
d="M436 531v-111l-240 -300h245l-14 -120h-414v112l241 300h-220v119h402z" />
    <glyph glyph-name="braceleft" unicode="{" horiz-adv-x="324" 
d="M298 840v-110q-44 0 -60 -13.5t-16 -46.5v-186q0 -63 -25 -92t-79 -43q52 -11 78 -40.5t26 -92.5v-186q0 -33 16.5 -46.5t59.5 -13.5v-110q-129 0 -176.5 39.5t-47.5 125.5v179q0 45 -13.5 63t-51.5 18v129q38 0 51.5 18.5t13.5 63.5v179q0 87 47.5 126t176.5 39z" />
    <glyph glyph-name="bar" unicode="|" horiz-adv-x="376" 
d="M262 810v-915h-147v915h147z" />
    <glyph glyph-name="braceright" unicode="}" horiz-adv-x="324" 
d="M26 840q129 0 176 -39t47 -126v-179q0 -45 14 -63.5t51 -18.5v-129q-37 0 -51 -18t-14 -63v-179q0 -86 -47 -125.5t-176 -39.5v110q43 0 59 13.5t16 46.5v186q0 62 26 92t79 41q-54 14 -79 43t-25 92v186q0 33 -16 46.5t-60 13.5v110z" />
    <glyph glyph-name="asciitilde" unicode="~" horiz-adv-x="514" 
d="M338 232q-30 0 -57 9.5t-43 21t-34.5 21t-34.5 9.5t-30 -9t-20 -16.5t-19 -26.5l-84 42q28 57 66 92t95 35q38 0 69.5 -15t55.5 -30t44 -15q23 0 37.5 12t31.5 36l83 -41q-62 -125 -160 -125z" />
    <glyph glyph-name="uni00A0" unicode="&#xa0;" horiz-adv-x="237" 
 />
    <glyph glyph-name="exclamdown" unicode="&#xa1;" horiz-adv-x="240" 
d="M120 509q38 0 64.5 -26.5t26.5 -63.5t-26.5 -63.5t-64.5 -26.5q-37 0 -63.5 26.5t-26.5 63.5t26.5 63.5t63.5 26.5zM184 235l21 -445h-168l20 445h127z" />
    <glyph glyph-name="cent" unicode="&#xa2;" horiz-adv-x="479" 
d="M405 144l69 -98q-60 -47 -128 -59v-148h-114v150q-94 19 -147 91t-53 181q0 111 54 186.5t147 94.5v149h113v-147q71 -13 128 -61l-68 -94q-50 38 -101 38q-107 0 -107 -165q0 -84 27 -119t78 -35q45 0 102 36z" />
    <glyph glyph-name="sterling" unicode="&#xa3;" horiz-adv-x="539" 
d="M266 241q0 -45 -13 -72.5t-51 -48.5h307l-18 -120h-463v114q53 16 68 41t15 78v78h-68v82h68v89q0 93 55.5 150.5t157.5 57.5q131 0 204 -100l-97 -71q-37 53 -91 53q-74 0 -74 -91v-88h185v-82h-185v-70z" />
    <glyph glyph-name="currency" unicode="&#xa4;" 
d="M501 342q0 -66 -33 -119l75 -75l-69 -70l-78 76q-53 -29 -116 -29t-115 30l-79 -77l-69 70l77 76q-33 53 -33 118q0 64 33 117l-77 77l70 70l78 -78q52 30 115 30q65 0 117 -30l77 78l69 -70l-75 -76q33 -53 33 -118zM281 231q97 0 97 111q0 53 -24.5 81.5t-72.5 28.5
q-47 0 -72 -29t-25 -81q0 -53 25 -82t72 -29z" />
    <glyph glyph-name="yen" unicode="&#xa5;" horiz-adv-x="568" 
d="M576 676l-177 -324h98v-82h-133v-72h133v-82h-133v-116h-158v116h-132v82h132v72h-132v82h96l-177 324h168l127 -281l125 281h163z" />
    <glyph glyph-name="brokenbar" unicode="&#xa6;" horiz-adv-x="376" 
d="M262 810v-367h-147v367h147zM262 262v-367h-147v367h147z" />
    <glyph glyph-name="section" unicode="&#xa7;" horiz-adv-x="550" 
d="M419 182q55 -38 55 -106q0 -72 -60.5 -115.5t-161.5 -43.5q-112 0 -191 54l51 93q65 -38 132 -38q79 0 79 44q0 25 -21.5 40t-97.5 38q-77 24 -114 57.5t-37 92.5q0 74 80 123q-55 39 -55 108q0 71 58.5 115.5t156.5 44.5q107 0 193 -56l-53 -89q-65 36 -132 36
q-73 0 -73 -45q0 -25 20.5 -39t95.5 -38q77 -24 115 -58t38 -93q0 -75 -78 -125zM268 249q51 -19 65 -25q26 31 26 61q0 26 -20 42t-78 35l-49 17q-21 -28 -21 -58q0 -26 16 -41t61 -31z" />
    <glyph glyph-name="dieresis" unicode="&#xa8;" horiz-adv-x="453" 
d="M110 799q34 0 57.5 -23t23.5 -56t-23.5 -56t-57.5 -23t-57.5 23t-23.5 56t23.5 56t57.5 23zM341 799q35 0 58 -23t23 -56t-23 -56t-58 -23q-33 0 -56.5 23t-23.5 56t23.5 56t56.5 23z" />
    <glyph glyph-name="copyright" unicode="&#xa9;" horiz-adv-x="810" 
d="M406 766q143 0 240 -94t97 -240q0 -145 -97 -239t-240 -94t-241 94t-98 239q0 146 98 240t241 94zM406 687q-107 0 -177 -71t-70 -184q0 -112 70 -182.5t177 -70.5t176.5 70.5t69.5 182.5q0 113 -69.5 184t-176.5 71zM408 630q75 0 131 -51l-48 -60q-33 24 -72 24
q-74 0 -74 -110q0 -109 73 -109q42 0 80 29l44 -64q-56 -53 -133 -53q-82 0 -130 51.5t-48 145.5q0 91 49.5 144t127.5 53z" />
    <glyph glyph-name="ordfeminine" unicode="&#xaa;" horiz-adv-x="500" 
d="M249 528h37v11q0 31 -14.5 42.5t-52.5 11.5q-42 0 -110 -21l-32 90q84 31 164 31q96 0 140 -36t44 -110v-142q0 -37 27 -46l-29 -92q-76 6 -108 55q-41 -58 -128 -58q-64 0 -102 35.5t-38 91.5q0 67 52 102t150 35zM232 364q31 0 54 26v63h-23q-72 0 -72 -51
q0 -38 41 -38zM52 122h408v-122h-408v122z" />
    <glyph glyph-name="guillemotleft" unicode="&#xab;" horiz-adv-x="628" 
d="M226 556l97 -65l-129 -206l129 -207l-97 -65l-190 221v100zM495 556l97 -65l-129 -206l129 -207l-97 -65l-190 221v100z" />
    <glyph glyph-name="logicalnot" unicode="&#xac;" horiz-adv-x="531" 
d="M483 390v-276h-131v153h-304v123h435z" />
    <glyph glyph-name="uni00AD" unicode="&#xad;" horiz-adv-x="407" 
d="M44 252v122h319v-122h-319z" />
    <glyph glyph-name="registered" unicode="&#xae;" horiz-adv-x="637" 
d="M319 759q118 0 196 -78t78 -197q0 -118 -78 -195t-196 -77t-196.5 77t-78.5 195q0 119 78.5 197t196.5 78zM319 279q87 0 141.5 56t54.5 149t-54.5 150.5t-141.5 57.5t-142 -57.5t-55 -150.5q0 -92 55 -148.5t142 -56.5zM432 546q0 -55 -58 -77l74 -117h-82l-58 102h-22
v-102h-71v282h84q133 0 133 -88zM286 580v-68h30q43 0 43 36q0 32 -45 32h-28z" />
    <glyph glyph-name="macron" unicode="&#xaf;" horiz-adv-x="365" 
d="M335 655h-305v110h305v-110z" />
    <glyph glyph-name="degree" unicode="&#xb0;" horiz-adv-x="521" 
d="M218 369q-70 0 -124.5 47.5t-54.5 124.5q0 76 54 122.5t125 46.5t124.5 -46.5t53.5 -122.5q0 -77 -54 -124.5t-124 -47.5zM218 462q31 0 50 21.5t19 57.5t-18.5 57t-50.5 21t-51 -21t-19 -57t19 -57.5t51 -21.5z" />
    <glyph glyph-name="plusminus" unicode="&#xb1;" horiz-adv-x="531" 
d="M331 622v-156h151v-122h-151v-156h-131v156h-152v122h152v156h131zM54 0v122h422v-122h-422z" />
    <glyph glyph-name="uni00B2" unicode="&#xb2;" horiz-adv-x="400" 
d="M194 752q76 0 117.5 -36.5t41.5 -89.5q0 -46 -33.5 -90.5t-133.5 -125.5h177l-12 -89h-298v82q112 102 145.5 141.5t33.5 71.5q0 22 -13.5 35t-36.5 13q-42 0 -78 -42l-68 53q60 77 158 77z" />
    <glyph glyph-name="uni00B3" unicode="&#xb3;" horiz-adv-x="400" 
d="M199 752q73 0 113 -31t40 -79q0 -75 -93 -99q49 -3 78.5 -29t29.5 -73q0 -56 -46 -94t-129 -38q-102 0 -159 67l65 62q36 -39 85 -39q28 0 45 12.5t17 37.5q0 52 -67 52h-37l13 80h26q57 0 57 43q0 41 -53 41q-46 0 -84 -35l-59 62q65 60 158 60z" />
    <glyph glyph-name="acute" unicode="&#xb4;" horiz-adv-x="340" 
d="M248 835l62 -118l-236 -95l-44 81z" />
    <glyph glyph-name="uni00B5" unicode="&#xb5;" horiz-adv-x="582" 
d="M537 0l-145 -17q-14 30 -23 85q-46 -76 -108 -76q-57 0 -89 42q21 -38 30.5 -68.5t9.5 -78.5v-92l-150 -15v751h158v-364q0 -61 50 -61t85 63v362h158v-349q0 -98 24 -182z" />
    <glyph glyph-name="paragraph" unicode="&#xb6;" horiz-adv-x="788" 
d="M328 693h344v-897l-138 -18v805h-92v-787l-138 -18v485q-117 3 -178 61.5t-61 153.5q0 101 69.5 158t193.5 57z" />
    <glyph glyph-name="periodcentered" unicode="&#xb7;" horiz-adv-x="240" 
d="M120 398q37 0 63.5 -26.5t26.5 -63.5q0 -38 -26.5 -64.5t-63.5 -26.5q-38 0 -64.5 26.5t-26.5 64.5q0 37 26.5 63.5t64.5 26.5z" />
    <glyph glyph-name="cedilla" unicode="&#xb8;" horiz-adv-x="321" 
d="M187 16v-64q104 -12 104 -99q0 -51 -40.5 -83t-108.5 -32t-112 30l36 73q34 -17 64 -17q47 0 47 30q0 34 -92 34l15 128h87z" />
    <glyph glyph-name="uni00B9" unicode="&#xb9;" horiz-adv-x="400" 
d="M300 742v-421h-117v311l-91 -57l-53 78l154 89h107z" />
    <glyph glyph-name="ordmasculine" unicode="&#xba;" horiz-adv-x="500" 
d="M250 693q100 0 157 -56t57 -159q0 -98 -57 -156t-156 -58q-100 0 -157 56t-57 159q0 98 57 156t156 58zM250 591q-67 0 -67 -112q0 -60 16.5 -86.5t51.5 -26.5q67 0 67 112q0 60 -16.5 86.5t-51.5 26.5zM39 0v122h422v-122h-422z" />
    <glyph glyph-name="guillemotright" unicode="&#xbb;" horiz-adv-x="625" 
d="M134 556l189 -222v-100l-189 -221l-98 65l129 207l-129 206zM400 556l189 -222v-100l-189 -221l-98 65l129 207l-129 206z" />
    <glyph glyph-name="onequarter" unicode="&#xbc;" horiz-adv-x="969" 
d="M644 759l92 -45l-411 -799l-92 45zM300 272h-117v311l-91 -57l-53 78l154 89h107v-421zM943 170v-86h-46v-84h-112v84h-191v78l121 269l99 -36l-100 -225h73l20 95h90v-95h46z" />
    <glyph glyph-name="onehalf" unicode="&#xbd;" horiz-adv-x="969" 
d="M644 759l92 -45l-411 -799l-92 45zM300 693v-421h-117v311l-91 -57l-53 78l154 89h107zM763 431q76 0 117.5 -36.5t41.5 -89.5q0 -46 -33.5 -90.5t-133.5 -125.5h177l-12 -89h-298v82q112 102 145.5 141.5t33.5 71.5q0 22 -13.5 35t-36.5 13q-42 0 -78 -42l-68 53
q60 77 158 77z" />
    <glyph glyph-name="threequarters" unicode="&#xbe;" horiz-adv-x="969" 
d="M644 759l92 -45l-411 -799l-92 45zM367 392q0 -56 -46 -94t-129 -38q-102 0 -159 67l65 62q36 -39 85 -39q28 0 45 12.5t17 37.5q0 52 -67 52h-37l13 80h26q57 0 57 43q0 41 -53 41q-46 0 -84 -35l-59 62q65 60 158 60q73 0 113 -31t40 -79q0 -75 -93 -99q49 -3 78.5 -29
t29.5 -73zM943 170v-86h-46v-84h-112v84h-191v78l121 269l99 -36l-100 -225h73l20 95h90v-95h46z" />
    <glyph glyph-name="questiondown" unicode="&#xbf;" horiz-adv-x="481" 
d="M265 329q-38 0 -64.5 26.5t-26.5 63.5t26.5 63.5t64.5 26.5q37 0 63.5 -26.5t26.5 -63.5t-26.5 -63.5t-63.5 -26.5zM233 -222q-104 0 -161.5 48t-57.5 119q0 45 18.5 78t45 52.5t53 37t45 40.5t18.5 53v30h144v-36q0 -47 -16.5 -82t-39.5 -54t-46 -33.5t-39.5 -32
t-16.5 -39.5q0 -27 18 -42t51 -15q64 0 118 61l100 -78q-89 -107 -234 -107z" />
    <glyph glyph-name="Agrave" unicode="&#xc0;" horiz-adv-x="590" 
d="M432 831l-40 -80l-240 87l59 118zM430 0l-36 149h-202l-35 -149h-170l209 693h199l209 -693h-174zM220 268h146l-73 306z" />
    <glyph glyph-name="Aacute" unicode="&#xc1;" horiz-adv-x="590" 
d="M436 838l-240 -87l-40 80l221 125zM430 0l-36 149h-202l-35 -149h-170l209 693h199l209 -693h-174zM220 268h146l-73 306z" />
    <glyph glyph-name="Acircumflex" unicode="&#xc2;" horiz-adv-x="590" 
d="M296 839l-133 -84l-57 65l142 129h96l141 -129l-56 -65zM430 0l-36 149h-202l-35 -149h-170l209 693h199l209 -693h-174zM220 268h146l-73 306z" />
    <glyph glyph-name="Atilde" unicode="&#xc3;" horiz-adv-x="590" 
d="M240 806q-28 0 -53 -44l-79 38q20 52 53.5 85t75.5 33q34 0 68.5 -22.5t47.5 -22.5q28 0 52 44l79 -39q-21 -53 -54.5 -85t-75.5 -32q-32 0 -66.5 22.5t-47.5 22.5zM430 0l-36 149h-202l-35 -149h-170l209 693h199l209 -693h-174zM220 268h146l-73 306z" />
    <glyph glyph-name="Adieresis" unicode="&#xc4;" horiz-adv-x="590" 
d="M179 767q-34 0 -57.5 23t-23.5 56t23.5 56t57.5 23t57.5 -23t23.5 -56t-23.5 -56t-57.5 -23zM410 767q-33 0 -56.5 23t-23.5 56t23.5 56t56.5 23q35 0 58 -23t23 -56t-23 -56t-58 -23zM430 0l-36 149h-202l-35 -149h-170l209 693h199l209 -693h-174zM220 268h146l-73 306
z" />
    <glyph glyph-name="Aring" unicode="&#xc5;" horiz-adv-x="590" 
d="M296 731q-63 0 -101 38t-38 93t38 93t101 38t101 -38t38 -93t-38 -93t-101 -38zM296 912q-45 0 -45 -50t45 -50q20 0 32.5 13t12.5 37q0 50 -45 50zM430 0l-36 149h-202l-35 -149h-170l209 693h199l209 -693h-174zM220 268h146l-73 306z" />
    <glyph glyph-name="AE" unicode="&#xc6;" horiz-adv-x="845" 
d="M582 118h230v-118h-368l-26 149h-215l-50 -149h-176l272 693h526l-17 -117h-270l34 -168h244v-115h-220zM243 268h155l-53 305z" />
    <glyph glyph-name="Ccedilla" unicode="&#xc7;" horiz-adv-x="575" 
d="M383 -48q104 -12 104 -99q0 -51 -40.5 -83t-108.5 -32t-112 30l36 73q34 -17 64 -17q47 0 47 30q0 34 -92 34l12 99q-121 18 -190.5 111.5t-69.5 249.5q0 170 88 266t227 96q121 0 211 -76l-78 -93q-62 48 -125 48q-70 0 -110.5 -59t-40.5 -182q0 -121 40.5 -179.5
t112.5 -58.5q62 0 136 56l73 -94q-76 -76 -184 -87v-33z" />
    <glyph glyph-name="Egrave" unicode="&#xc8;" horiz-adv-x="526" 
d="M194 956l221 -125l-40 -80l-240 87zM490 693l-17 -117h-244v-166h213v-115h-213v-177h261v-118h-425v693h425z" />
    <glyph glyph-name="Eacute" unicode="&#xc9;" horiz-adv-x="526" 
d="M360 956l59 -118l-240 -87l-40 80zM490 693l-17 -117h-244v-166h213v-115h-213v-177h261v-118h-425v693h425z" />
    <glyph glyph-name="Ecircumflex" unicode="&#xca;" horiz-adv-x="526" 
d="M146 755l-57 65l142 129h96l141 -129l-56 -65l-133 84zM490 693l-17 -117h-244v-166h213v-115h-213v-177h261v-118h-425v693h425z" />
    <glyph glyph-name="Edieresis" unicode="&#xcb;" horiz-adv-x="526" 
d="M162 925q34 0 57.5 -23t23.5 -56t-23.5 -56t-57.5 -23t-57.5 23t-23.5 56t23.5 56t57.5 23zM393 925q35 0 58 -23t23 -56t-23 -56t-58 -23q-33 0 -56.5 23t-23.5 56t23.5 56t56.5 23zM490 693l-17 -117h-244v-166h213v-115h-213v-177h261v-118h-425v693h425z" />
    <glyph glyph-name="Igrave" unicode="&#xcc;" horiz-adv-x="293" 
d="M61 956l221 -125l-40 -80l-240 87zM229 693v-693h-164v693h164z" />
    <glyph glyph-name="Iacute" unicode="&#xcd;" horiz-adv-x="293" 
d="M227 956l59 -118l-240 -87l-40 80zM229 693v-693h-164v693h164z" />
    <glyph glyph-name="Icircumflex" unicode="&#xce;" horiz-adv-x="293" 
d="M13 755l-57 65l142 129h96l141 -129l-56 -65l-133 84zM229 693v-693h-164v693h164z" />
    <glyph glyph-name="Idieresis" unicode="&#xcf;" horiz-adv-x="293" 
d="M29 925q34 0 57.5 -23t23.5 -56t-23.5 -56t-57.5 -23t-57.5 23t-23.5 56t23.5 56t57.5 23zM260 925q35 0 58 -23t23 -56t-23 -56t-58 -23q-33 0 -56.5 23t-23.5 56t23.5 56t56.5 23zM229 693v-693h-164v693h164z" />
    <glyph glyph-name="Eth" unicode="&#xd0;" horiz-adv-x="665" 
d="M272 693q60 0 109 -8t97.5 -30.5t81 -60t52.5 -99.5t20 -145q0 -350 -345 -350h-208v304h-65v98h65v291h193zM297 119q81 0 123 50.5t42 180.5q0 68 -12 113.5t-36 69t-52 32.5t-67 9h-52v-172h134v-98h-134v-185h54z" />
    <glyph glyph-name="Ntilde" unicode="&#xd1;" horiz-adv-x="663" 
d="M394 761q-32 0 -66.5 22.5t-47.5 22.5q-28 0 -53 -44l-79 38q20 52 53.5 85t75.5 33q34 0 68.5 -22.5t47.5 -22.5q28 0 52 44l79 -39q-21 -53 -54.5 -85t-75.5 -32zM599 693v-693h-209l-200 537q21 -165 21 -283v-254h-146v693h204l205 -538q-22 137 -22 258v280h147z
" />
    <glyph glyph-name="Ograve" unicode="&#xd2;" horiz-adv-x="691" 
d="M260 956l221 -125l-40 -80l-240 87zM345 710q148 0 230.5 -95t82.5 -268q0 -170 -83 -267t-230 -97t-229.5 95.5t-82.5 268.5q0 170 83 266.5t229 96.5zM345 590q-71 0 -105.5 -57.5t-34.5 -185.5t35 -186t105 -58q72 0 106.5 57.5t34.5 186.5t-35 186t-106 57z" />
    <glyph glyph-name="Oacute" unicode="&#xd3;" horiz-adv-x="691" 
d="M426 956l59 -118l-240 -87l-40 80zM345 710q148 0 230.5 -95t82.5 -268q0 -170 -83 -267t-230 -97t-229.5 95.5t-82.5 268.5q0 170 83 266.5t229 96.5zM345 590q-71 0 -105.5 -57.5t-34.5 -185.5t35 -186t105 -58q72 0 106.5 57.5t34.5 186.5t-35 186t-106 57z" />
    <glyph glyph-name="Ocircumflex" unicode="&#xd4;" horiz-adv-x="691" 
d="M212 755l-57 65l142 129h96l141 -129l-56 -65l-133 84zM345 710q148 0 230.5 -95t82.5 -268q0 -170 -83 -267t-230 -97t-229.5 95.5t-82.5 268.5q0 170 83 266.5t229 96.5zM345 590q-71 0 -105.5 -57.5t-34.5 -185.5t35 -186t105 -58q72 0 106.5 57.5t34.5 186.5t-35 186
t-106 57z" />
    <glyph glyph-name="Otilde" unicode="&#xd5;" horiz-adv-x="691" 
d="M403 761q-32 0 -66.5 22.5t-47.5 22.5q-28 0 -53 -44l-79 38q20 52 53.5 85t75.5 33q34 0 68.5 -22.5t47.5 -22.5q28 0 52 44l79 -39q-21 -53 -54.5 -85t-75.5 -32zM345 710q148 0 230.5 -95t82.5 -268q0 -170 -83 -267t-230 -97t-229.5 95.5t-82.5 268.5q0 170 83 266.5
t229 96.5zM345 590q-71 0 -105.5 -57.5t-34.5 -185.5t35 -186t105 -58q72 0 106.5 57.5t34.5 186.5t-35 186t-106 57z" />
    <glyph glyph-name="Odieresis" unicode="&#xd6;" horiz-adv-x="691" 
d="M228 925q34 0 57.5 -23t23.5 -56t-23.5 -56t-57.5 -23t-57.5 23t-23.5 56t23.5 56t57.5 23zM459 925q35 0 58 -23t23 -56t-23 -56t-58 -23q-33 0 -56.5 23t-23.5 56t23.5 56t56.5 23zM345 710q148 0 230.5 -95t82.5 -268q0 -170 -83 -267t-230 -97t-229.5 95.5
t-82.5 268.5q0 170 83 266.5t229 96.5zM345 590q-71 0 -105.5 -57.5t-34.5 -185.5t35 -186t105 -58q72 0 106.5 57.5t34.5 186.5t-35 186t-106 57z" />
    <glyph glyph-name="multiply" unicode="&#xd7;" horiz-adv-x="519" 
d="M376 510l87 -87l-116 -114l116 -119l-87 -87l-115 121l-118 -121l-87 87l115 114l-115 119l87 87l114 -121z" />
    <glyph glyph-name="Oslash" unicode="&#xd8;" horiz-adv-x="691" 
d="M514 667q144 -88 144 -320q0 -170 -83 -267t-230 -97q-25 0 -49 3l-36 -120l-124 32l40 129q-143 89 -143 320q0 170 83 266.5t229 96.5q26 0 50 -3l37 121l123 -33zM345 590q-71 0 -105.5 -57.5t-34.5 -185.5q0 -144 38 -199l132 440q-18 2 -30 2zM345 103
q72 0 106.5 57.5t34.5 186.5q0 146 -38 199l-133 -441q20 -2 30 -2z" />
    <glyph glyph-name="Ugrave" unicode="&#xd9;" horiz-adv-x="651" 
d="M240 956l221 -125l-40 -80l-240 87zM596 693v-463q0 -110 -70 -178.5t-201 -68.5q-132 0 -201 67t-69 180v463h164v-456q0 -67 25.5 -99.5t80.5 -32.5q56 0 81.5 32.5t25.5 99.5v456h164z" />
    <glyph glyph-name="Uacute" unicode="&#xda;" horiz-adv-x="651" 
d="M406 956l59 -118l-240 -87l-40 80zM596 693v-463q0 -110 -70 -178.5t-201 -68.5q-132 0 -201 67t-69 180v463h164v-456q0 -67 25.5 -99.5t80.5 -32.5q56 0 81.5 32.5t25.5 99.5v456h164z" />
    <glyph glyph-name="Ucircumflex" unicode="&#xdb;" horiz-adv-x="651" 
d="M192 755l-57 65l142 129h96l141 -129l-56 -65l-133 84zM596 693v-463q0 -110 -70 -178.5t-201 -68.5q-132 0 -201 67t-69 180v463h164v-456q0 -67 25.5 -99.5t80.5 -32.5q56 0 81.5 32.5t25.5 99.5v456h164z" />
    <glyph glyph-name="Udieresis" unicode="&#xdc;" horiz-adv-x="651" 
d="M208 925q34 0 57.5 -23t23.5 -56t-23.5 -56t-57.5 -23t-57.5 23t-23.5 56t23.5 56t57.5 23zM439 925q35 0 58 -23t23 -56t-23 -56t-58 -23q-33 0 -56.5 23t-23.5 56t23.5 56t56.5 23zM596 693v-463q0 -110 -70 -178.5t-201 -68.5q-132 0 -201 67t-69 180v463h164v-456
q0 -67 25.5 -99.5t80.5 -32.5q56 0 81.5 32.5t25.5 99.5v456h164z" />
    <glyph glyph-name="Yacute" unicode="&#xdd;" horiz-adv-x="594" 
d="M378 956l59 -118l-240 -87l-40 80zM601 693l-222 -433v-260h-164v259l-222 434h179l128 -305l128 305h173z" />
    <glyph glyph-name="Thorn" unicode="&#xde;" horiz-adv-x="600" 
d="M289 585q137 0 213 -58t76 -171q0 -120 -74.5 -181t-199.5 -61h-75v-114h-164v693h164v-108h60zM290 233q58 0 88.5 28.5t30.5 94.5q0 112 -122 112h-58v-235h61z" />
    <glyph glyph-name="germandbls" unicode="&#xdf;" horiz-adv-x="606" 
d="M298 759q96 0 151.5 -43.5t55.5 -106.5q0 -34 -16 -61.5t-34.5 -43t-34.5 -35t-16 -38.5q0 -20 19 -38.5t46 -37t54 -41t46 -61t19 -87.5q0 -84 -57.5 -133.5t-144.5 -49.5q-67 0 -119 27l47 107q22 -12 52 -12q59 0 59 64q0 30 -16.5 53.5t-39.5 40l-46 34t-39.5 45
t-16.5 63.5q0 29 9 51t22.5 36l26.5 26.5t22 30.5t9 41q0 27 -17 42t-45 15q-74 0 -74 -109v-538h-158v533q0 106 61 166t175 60z" />
    <glyph glyph-name="agrave" unicode="&#xe0;" horiz-adv-x="548" 
d="M421 703l-44 -81l-236 95l62 118zM484 154q0 -30 8.5 -44t27.5 -21l-33 -103q-49 4 -80 21.5t-48 55.5q-52 -80 -160 -80q-79 0 -126 46t-47 120q0 87 64 133t185 46h54v23q0 47 -20 64.5t-70 17.5q-57 0 -139 -28l-36 104q105 39 200 39q114 0 167 -47t53 -141v-206z
M245 96q54 0 84 51v94h-39q-107 0 -107 -78q0 -32 16.5 -49.5t45.5 -17.5z" />
    <glyph glyph-name="aacute" unicode="&#xe1;" horiz-adv-x="548" 
d="M405 717l-236 -95l-44 81l218 132zM484 154q0 -30 8.5 -44t27.5 -21l-33 -103q-49 4 -80 21.5t-48 55.5q-52 -80 -160 -80q-79 0 -126 46t-47 120q0 87 64 133t185 46h54v23q0 47 -20 64.5t-70 17.5q-57 0 -139 -28l-36 104q105 39 200 39q114 0 167 -47t53 -141v-206z
M245 96q54 0 84 51v94h-39q-107 0 -107 -78q0 -32 16.5 -49.5t45.5 -17.5z" />
    <glyph glyph-name="acircumflex" unicode="&#xe2;" horiz-adv-x="548" 
d="M271 712l-134 -92l-56 65l141 137h97l141 -137l-56 -65zM484 154q0 -30 8.5 -44t27.5 -21l-33 -103q-49 4 -80 21.5t-48 55.5q-52 -80 -160 -80q-79 0 -126 46t-47 120q0 87 64 133t185 46h54v23q0 47 -20 64.5t-70 17.5q-57 0 -139 -28l-36 104q105 39 200 39
q114 0 167 -47t53 -141v-206zM245 96q54 0 84 51v94h-39q-107 0 -107 -78q0 -32 16.5 -49.5t45.5 -17.5z" />
    <glyph glyph-name="atilde" unicode="&#xe3;" horiz-adv-x="548" 
d="M215 680q-28 0 -53 -44l-79 38q20 52 53.5 85t75.5 33q34 0 68.5 -22.5t47.5 -22.5q28 0 52 44l79 -39q-21 -53 -54.5 -85t-75.5 -32q-32 0 -66.5 22.5t-47.5 22.5zM484 154q0 -30 8.5 -44t27.5 -21l-33 -103q-49 4 -80 21.5t-48 55.5q-52 -80 -160 -80q-79 0 -126 46
t-47 120q0 87 64 133t185 46h54v23q0 47 -20 64.5t-70 17.5q-57 0 -139 -28l-36 104q105 39 200 39q114 0 167 -47t53 -141v-206zM245 96q54 0 84 51v94h-39q-107 0 -107 -78q0 -32 16.5 -49.5t45.5 -17.5z" />
    <glyph glyph-name="adieresis" unicode="&#xe4;" horiz-adv-x="548" 
d="M155 641q-34 0 -57.5 23t-23.5 56t23.5 56t57.5 23t57.5 -23t23.5 -56t-23.5 -56t-57.5 -23zM386 641q-33 0 -56.5 23t-23.5 56t23.5 56t56.5 23q35 0 58 -23t23 -56t-23 -56t-58 -23zM484 154q0 -30 8.5 -44t27.5 -21l-33 -103q-49 4 -80 21.5t-48 55.5
q-52 -80 -160 -80q-79 0 -126 46t-47 120q0 87 64 133t185 46h54v23q0 47 -20 64.5t-70 17.5q-57 0 -139 -28l-36 104q105 39 200 39q114 0 167 -47t53 -141v-206zM245 96q54 0 84 51v94h-39q-107 0 -107 -78q0 -32 16.5 -49.5t45.5 -17.5z" />
    <glyph glyph-name="aring" unicode="&#xe5;" horiz-adv-x="548" 
d="M271 605q-63 0 -101 38t-38 93t38 93t101 38t101 -38t38 -93t-38 -93t-101 -38zM271 786q-45 0 -45 -50t45 -50q20 0 32.5 13t12.5 37q0 50 -45 50zM484 154q0 -30 8.5 -44t27.5 -21l-33 -103q-49 4 -80 21.5t-48 55.5q-52 -80 -160 -80q-79 0 -126 46t-47 120
q0 87 64 133t185 46h54v23q0 47 -20 64.5t-70 17.5q-57 0 -139 -28l-36 104q105 39 200 39q114 0 167 -47t53 -141v-206zM245 96q54 0 84 51v94h-39q-107 0 -107 -78q0 -32 16.5 -49.5t45.5 -17.5z" />
    <glyph glyph-name="ae" unicode="&#xe6;" horiz-adv-x="855" 
d="M828 276q0 -33 -3 -57h-329q7 -67 37.5 -94t83.5 -27q59 0 127 47l65 -88q-93 -74 -207 -74q-140 0 -211 91q-64 -91 -188 -91q-81 0 -129 46t-48 120q0 87 65.5 133t189.5 46h54v22q0 46 -20.5 64t-69.5 18q-57 0 -139 -28l-36 105q105 39 200 39q111 0 163 -67
q64 67 162 67q106 0 169.5 -72.5t63.5 -199.5zM672 314v7q0 122 -86 122q-40 0 -62.5 -30t-27.5 -99h176zM253 96q52 0 95 64q-9 31 -11 74v4h-40q-53 0 -78.5 -18.5t-25.5 -59.5q0 -30 15.5 -47t44.5 -17z" />
    <glyph glyph-name="ccedilla" unicode="&#xe7;" horiz-adv-x="479" 
d="M474 46q-68 -54 -151 -62v-32q104 -12 104 -99q0 -51 -40.5 -83t-108.5 -32t-112 30l36 73q34 -17 64 -17q47 0 47 30q0 34 -92 34l12 101q-94 19 -147.5 91t-53.5 181q0 128 71 207.5t189 79.5q105 0 182 -65l-68 -94q-50 38 -101 38q-107 0 -107 -165q0 -84 27 -119
t78 -35q45 0 102 36z" />
    <glyph glyph-name="egrave" unicode="&#xe8;" horiz-adv-x="552" 
d="M433 703l-44 -81l-236 95l62 118zM525 276q0 -33 -3 -57h-329q8 -67 38 -94t83 -27q59 0 127 47l65 -88q-93 -74 -207 -74q-129 0 -198 76t-69 204q0 124 65.5 204.5t182.5 80.5q115 0 180 -72t65 -200zM370 314v7q-2 122 -86 122q-41 0 -63.5 -30t-27.5 -99h177z" />
    <glyph glyph-name="eacute" unicode="&#xe9;" horiz-adv-x="552" 
d="M417 717l-236 -95l-44 81l218 132zM525 276q0 -33 -3 -57h-329q8 -67 38 -94t83 -27q59 0 127 47l65 -88q-93 -74 -207 -74q-129 0 -198 76t-69 204q0 124 65.5 204.5t182.5 80.5q115 0 180 -72t65 -200zM370 314v7q-2 122 -86 122q-41 0 -63.5 -30t-27.5 -99h177z" />
    <glyph glyph-name="ecircumflex" unicode="&#xea;" horiz-adv-x="552" 
d="M283 712l-134 -92l-56 65l141 137h97l141 -137l-56 -65zM525 276q0 -33 -3 -57h-329q8 -67 38 -94t83 -27q59 0 127 47l65 -88q-93 -74 -207 -74q-129 0 -198 76t-69 204q0 124 65.5 204.5t182.5 80.5q115 0 180 -72t65 -200zM370 314v7q-2 122 -86 122q-41 0 -63.5 -30
t-27.5 -99h177z" />
    <glyph glyph-name="edieresis" unicode="&#xeb;" horiz-adv-x="552" 
d="M167 641q-34 0 -57.5 23t-23.5 56t23.5 56t57.5 23t57.5 -23t23.5 -56t-23.5 -56t-57.5 -23zM398 641q-33 0 -56.5 23t-23.5 56t23.5 56t56.5 23q35 0 58 -23t23 -56t-23 -56t-58 -23zM525 276q0 -33 -3 -57h-329q8 -67 38 -94t83 -27q59 0 127 47l65 -88
q-93 -74 -207 -74q-129 0 -198 76t-69 204q0 124 65.5 204.5t182.5 80.5q115 0 180 -72t65 -200zM370 314v7q-2 122 -86 122q-41 0 -63.5 -30t-27.5 -99h177z" />
    <glyph glyph-name="igrave" unicode="&#xec;" horiz-adv-x="282" 
d="M73 835l218 -132l-44 -81l-236 95zM220 531v-531h-158v531h158z" />
    <glyph glyph-name="iacute" unicode="&#xed;" horiz-adv-x="282" 
d="M213 835l62 -118l-236 -95l-44 81zM220 531v-531h-158v531h158z" />
    <glyph glyph-name="icircumflex" unicode="&#xee;" horiz-adv-x="282" 
d="M7 620l-56 65l141 137h97l141 -137l-56 -65l-133 92zM220 531v-531h-158v531h158z" />
    <glyph glyph-name="idieresis" unicode="&#xef;" horiz-adv-x="282" 
d="M25 799q34 0 57.5 -23t23.5 -56t-23.5 -56t-57.5 -23t-57.5 23t-23.5 56t23.5 56t57.5 23zM256 799q35 0 58 -23t23 -56t-23 -56t-58 -23q-33 0 -56.5 23t-23.5 56t23.5 56t56.5 23zM220 531v-531h-158v531h158z" />
    <glyph glyph-name="eth" unicode="&#xf0;" horiz-adv-x="579" 
d="M357 670q99 -70 142 -166t43 -227q0 -127 -69.5 -210.5t-189.5 -83.5q-110 0 -180.5 67.5t-70.5 183.5q0 103 59 174t149 71q79 0 132 -47q-27 91 -102 150l-55 -55l-99 46l57 59q-48 15 -92 22l32 104q80 -14 146 -38l73 78l80 -71zM285 98q96 0 96 158q0 13 -0.5 36.5
t-0.5 34.5q-39 42 -97 42q-90 0 -90 -132q0 -139 92 -139z" />
    <glyph glyph-name="ntilde" unicode="&#xf1;" horiz-adv-x="577" 
d="M238 680q-28 0 -53 -44l-79 38q20 52 53.5 85t75.5 33q34 0 68.5 -22.5t47.5 -22.5q28 0 52 44l79 -39q-21 -53 -54.5 -85t-75.5 -32q-32 0 -66.5 22.5t-47.5 22.5zM373 548q69 0 108 -42t39 -118v-388h-158v361q0 40 -12.5 55.5t-37.5 15.5q-48 0 -92 -69v-363h-158v531
h138l11 -63q68 80 162 80z" />
    <glyph glyph-name="ograve" unicode="&#xf2;" horiz-adv-x="584" 
d="M224 835l218 -132l-44 -81l-236 95zM292 548q122 0 191 -74.5t69 -208.5q0 -129 -69.5 -205.5t-190.5 -76.5t-190.5 74.5t-69.5 208.5q0 129 69.5 205.5t190.5 76.5zM292 432q-96 0 -96 -166q0 -87 23.5 -127t72.5 -40q96 0 96 166q0 87 -23.5 127t-72.5 40z" />
    <glyph glyph-name="oacute" unicode="&#xf3;" horiz-adv-x="584" 
d="M364 835l62 -118l-236 -95l-44 81zM292 548q122 0 191 -74.5t69 -208.5q0 -129 -69.5 -205.5t-190.5 -76.5t-190.5 74.5t-69.5 208.5q0 129 69.5 205.5t190.5 76.5zM292 432q-96 0 -96 -166q0 -87 23.5 -127t72.5 -40q96 0 96 166q0 87 -23.5 127t-72.5 40z" />
    <glyph glyph-name="ocircumflex" unicode="&#xf4;" horiz-adv-x="584" 
d="M158 620l-56 65l141 137h97l141 -137l-56 -65l-133 92zM292 548q122 0 191 -74.5t69 -208.5q0 -129 -69.5 -205.5t-190.5 -76.5t-190.5 74.5t-69.5 208.5q0 129 69.5 205.5t190.5 76.5zM292 432q-96 0 -96 -166q0 -87 23.5 -127t72.5 -40q96 0 96 166q0 87 -23.5 127
t-72.5 40z" />
    <glyph glyph-name="otilde" unicode="&#xf5;" horiz-adv-x="584" 
d="M350 635q-32 0 -66.5 22.5t-47.5 22.5q-28 0 -53 -44l-79 38q20 52 53.5 85t75.5 33q34 0 68.5 -22.5t47.5 -22.5q28 0 52 44l79 -39q-21 -53 -54.5 -85t-75.5 -32zM292 548q122 0 191 -74.5t69 -208.5q0 -129 -69.5 -205.5t-190.5 -76.5t-190.5 74.5t-69.5 208.5
q0 129 69.5 205.5t190.5 76.5zM292 432q-96 0 -96 -166q0 -87 23.5 -127t72.5 -40q96 0 96 166q0 87 -23.5 127t-72.5 40z" />
    <glyph glyph-name="odieresis" unicode="&#xf6;" horiz-adv-x="584" 
d="M176 799q34 0 57.5 -23t23.5 -56t-23.5 -56t-57.5 -23t-57.5 23t-23.5 56t23.5 56t57.5 23zM407 799q35 0 58 -23t23 -56t-23 -56t-58 -23q-33 0 -56.5 23t-23.5 56t23.5 56t56.5 23zM292 548q122 0 191 -74.5t69 -208.5q0 -129 -69.5 -205.5t-190.5 -76.5t-190.5 74.5
t-69.5 208.5q0 129 69.5 205.5t190.5 76.5zM292 432q-96 0 -96 -166q0 -87 23.5 -127t72.5 -40q96 0 96 166q0 87 -23.5 127t-72.5 40z" />
    <glyph glyph-name="divide" unicode="&#xf7;" horiz-adv-x="519" 
d="M260 664q37 0 63.5 -26.5t26.5 -63.5q0 -38 -26.5 -64.5t-63.5 -26.5q-38 0 -64.5 26.5t-26.5 64.5q0 37 26.5 63.5t64.5 26.5zM48 271v122h422v-122h-422zM260 182q37 0 63.5 -26.5t26.5 -63.5q0 -38 -26.5 -64.5t-63.5 -26.5q-38 0 -64.5 26.5t-26.5 64.5
q0 37 26.5 63.5t64.5 26.5z" />
    <glyph glyph-name="oslash" unicode="&#xf8;" horiz-adv-x="584" 
d="M438 510q114 -70 114 -245q0 -129 -69.5 -205.5t-190.5 -76.5q-12 0 -34 2l-37 -120l-115 34l39 122q-113 72 -113 245q0 129 69.5 205.5t190.5 76.5q11 0 33 -2l39 121l116 -34zM292 432q-109 0 -109 -166q0 -96 25 -134l100 300h-16zM292 99q109 0 109 166
q0 97 -26 134l-99 -300h16z" />
    <glyph glyph-name="ugrave" unicode="&#xf9;" horiz-adv-x="572" 
d="M216 835l218 -132l-44 -81l-236 95zM510 531v-531h-137l-7 67q-58 -84 -161 -84q-73 0 -110.5 44t-37.5 123v381h158v-361q0 -39 12.5 -54.5t38.5 -15.5q50 0 86 62v369h158z" />
    <glyph glyph-name="uacute" unicode="&#xfa;" horiz-adv-x="572" 
d="M356 835l62 -118l-236 -95l-44 81zM510 531v-531h-137l-7 67q-58 -84 -161 -84q-73 0 -110.5 44t-37.5 123v381h158v-361q0 -39 12.5 -54.5t38.5 -15.5q50 0 86 62v369h158z" />
    <glyph glyph-name="ucircumflex" unicode="&#xfb;" horiz-adv-x="572" 
d="M150 620l-56 65l141 137h97l141 -137l-56 -65l-133 92zM510 531v-531h-137l-7 67q-58 -84 -161 -84q-73 0 -110.5 44t-37.5 123v381h158v-361q0 -39 12.5 -54.5t38.5 -15.5q50 0 86 62v369h158z" />
    <glyph glyph-name="udieresis" unicode="&#xfc;" horiz-adv-x="572" 
d="M168 799q34 0 57.5 -23t23.5 -56t-23.5 -56t-57.5 -23t-57.5 23t-23.5 56t23.5 56t57.5 23zM399 799q35 0 58 -23t23 -56t-23 -56t-58 -23q-33 0 -56.5 23t-23.5 56t23.5 56t56.5 23zM510 531v-531h-137l-7 67q-58 -84 -161 -84q-73 0 -110.5 44t-37.5 123v381h158v-361
q0 -39 12.5 -54.5t38.5 -15.5q50 0 86 62v369h158z" />
    <glyph glyph-name="yacute" unicode="&#xfd;" horiz-adv-x="518" 
d="M331 835l62 -118l-236 -95l-44 81zM524 531l-169 -532q-32 -103 -104.5 -158.5t-194.5 -62.5l-17 111q76 10 112.5 34t58.5 77h-54l-162 531h168l95 -430l104 430h163z" />
    <glyph glyph-name="thorn" unicode="&#xfe;" horiz-adv-x="597" 
d="M359 548q102 0 151.5 -73.5t49.5 -207.5q0 -125 -57 -204.5t-154 -79.5q-80 0 -129 55v-242l-158 -18v964l158 17v-278q57 67 139 67zM301 99q95 0 95 166q0 94 -21.5 130.5t-65.5 36.5q-52 0 -89 -62v-224q32 -47 81 -47z" />
    <glyph glyph-name="ydieresis" unicode="&#xff;" horiz-adv-x="518" 
d="M143 799q34 0 57.5 -23t23.5 -56t-23.5 -56t-57.5 -23t-57.5 23t-23.5 56t23.5 56t57.5 23zM374 799q35 0 58 -23t23 -56t-23 -56t-58 -23q-33 0 -56.5 23t-23.5 56t23.5 56t56.5 23zM524 531l-169 -532q-32 -103 -104.5 -158.5t-194.5 -62.5l-17 111q76 10 112.5 34
t58.5 77h-54l-162 531h168l95 -430l104 430h163z" />
    <glyph glyph-name="Amacron" unicode="&#x100;" horiz-adv-x="590" 
d="M448 891v-110h-305v110h305zM430 0l-36 149h-202l-35 -149h-170l209 693h199l209 -693h-174zM220 268h146l-73 306z" />
    <glyph glyph-name="amacron" unicode="&#x101;" horiz-adv-x="548" 
d="M423 765v-110h-305v110h305zM484 154q0 -30 8.5 -44t27.5 -21l-33 -103q-49 4 -80 21.5t-48 55.5q-52 -80 -160 -80q-79 0 -126 46t-47 120q0 87 64 133t185 46h54v23q0 47 -20 64.5t-70 17.5q-57 0 -139 -28l-36 104q105 39 200 39q114 0 167 -47t53 -141v-206zM245 96
q54 0 84 51v94h-39q-107 0 -107 -78q0 -32 16.5 -49.5t45.5 -17.5z" />
    <glyph glyph-name="Abreve" unicode="&#x102;" horiz-adv-x="590" 
d="M295 751q-75 0 -120.5 47t-51.5 115l87 15q21 -68 85 -68q63 0 86 68l87 -15q-6 -68 -52 -115t-121 -47zM430 0l-36 149h-202l-35 -149h-170l209 693h199l209 -693h-174zM220 268h146l-73 306z" />
    <glyph glyph-name="abreve" unicode="&#x103;" horiz-adv-x="548" 
d="M270 632q-76 0 -121 48.5t-51 124.5l87 15q19 -78 85 -78q65 0 86 78l87 -15q-6 -75 -51.5 -124t-121.5 -49zM484 154q0 -30 8.5 -44t27.5 -21l-33 -103q-49 4 -80 21.5t-48 55.5q-52 -80 -160 -80q-79 0 -126 46t-47 120q0 87 64 133t185 46h54v23q0 47 -20 64.5
t-70 17.5q-57 0 -139 -28l-36 104q105 39 200 39q114 0 167 -47t53 -141v-206zM245 96q54 0 84 51v94h-39q-107 0 -107 -78q0 -32 16.5 -49.5t45.5 -17.5z" />
    <glyph glyph-name="Aogonek" unicode="&#x104;" horiz-adv-x="590" 
d="M520 0q-118 -44 -118 -102q0 -46 53 -46q24 0 61 8l-11 -98q-35 -8 -70 -8q-65 0 -106 32t-41 85q0 102 136 155l-30 123h-202l-35 -149h-170l209 693h199l209 -693h-84zM220 268h146l-73 306z" />
    <glyph glyph-name="aogonek" unicode="&#x105;" horiz-adv-x="548" 
d="M487 -14q-118 -44 -118 -102q0 -46 53 -46q24 0 61 8l-11 -98q-35 -8 -70 -8q-65 0 -106 32t-41 85q0 102 141 158q-22 16 -37 48q-52 -80 -160 -80q-79 0 -126 46t-47 120q0 87 64 133t185 46h54v23q0 47 -20 64.5t-70 17.5q-57 0 -139 -28l-36 104q105 39 200 39
q114 0 167 -47t53 -141v-206q0 -30 8.5 -44t27.5 -21zM245 96q54 0 84 51v94h-39q-107 0 -107 -78q0 -32 16.5 -49.5t45.5 -17.5z" />
    <glyph glyph-name="Cacute" unicode="&#x106;" horiz-adv-x="575" 
d="M435 956l59 -118l-240 -87l-40 80zM348 710q121 0 211 -76l-78 -93q-62 48 -125 48q-70 0 -110.5 -59t-40.5 -182q0 -121 40.5 -179.5t112.5 -58.5q62 0 136 56l73 -94q-89 -89 -217 -89q-145 0 -231 95.5t-86 269.5q0 170 88 266t227 96z" />
    <glyph glyph-name="cacute" unicode="&#x107;" horiz-adv-x="479" 
d="M363 835l62 -118l-236 -95l-44 81zM292 548q105 0 182 -65l-68 -94q-50 38 -101 38q-107 0 -107 -165q0 -84 27 -119t78 -35q45 0 102 36l69 -98q-79 -63 -179 -63q-122 0 -192.5 75.5t-70.5 202.5q0 128 71 207.5t189 79.5z" />
    <glyph glyph-name="Ccircumflex" unicode="&#x108;" horiz-adv-x="575" 
d="M221 755l-57 65l142 129h96l141 -129l-56 -65l-133 84zM348 710q121 0 211 -76l-78 -93q-62 48 -125 48q-70 0 -110.5 -59t-40.5 -182q0 -121 40.5 -179.5t112.5 -58.5q62 0 136 56l73 -94q-89 -89 -217 -89q-145 0 -231 95.5t-86 269.5q0 170 88 266t227 96z" />
    <glyph glyph-name="ccircumflex" unicode="&#x109;" horiz-adv-x="479" 
d="M157 620l-56 65l141 137h97l141 -137l-56 -65l-133 92zM292 548q105 0 182 -65l-68 -94q-50 38 -101 38q-107 0 -107 -165q0 -84 27 -119t78 -35q45 0 102 36l69 -98q-79 -63 -179 -63q-122 0 -192.5 75.5t-70.5 202.5q0 128 71 207.5t189 79.5z" />
    <glyph glyph-name="Cdotaccent" unicode="&#x10a;" horiz-adv-x="575" 
d="M353 937q41 0 67.5 -25.5t26.5 -64.5t-26.5 -64.5t-67.5 -25.5t-67 25.5t-26 64.5t26 64.5t67 25.5zM348 710q121 0 211 -76l-78 -93q-62 48 -125 48q-70 0 -110.5 -59t-40.5 -182q0 -121 40.5 -179.5t112.5 -58.5q62 0 136 56l73 -94q-89 -89 -217 -89q-145 0 -231 95.5
t-86 269.5q0 170 88 266t227 96z" />
    <glyph glyph-name="cdotaccent" unicode="&#x10b;" horiz-adv-x="479" 
d="M290 811q41 0 67.5 -25.5t26.5 -64.5t-26.5 -64.5t-67.5 -25.5t-67 25.5t-26 64.5t26 64.5t67 25.5zM292 548q105 0 182 -65l-68 -94q-50 38 -101 38q-107 0 -107 -165q0 -84 27 -119t78 -35q45 0 102 36l69 -98q-79 -63 -179 -63q-122 0 -192.5 75.5t-70.5 202.5
q0 128 71 207.5t189 79.5z" />
    <glyph glyph-name="Ccaron" unicode="&#x10c;" horiz-adv-x="575" 
d="M487 944l56 -65l-141 -129h-96l-142 129l57 65l133 -84zM348 710q121 0 211 -76l-78 -93q-62 48 -125 48q-70 0 -110.5 -59t-40.5 -182q0 -121 40.5 -179.5t112.5 -58.5q62 0 136 56l73 -94q-89 -89 -217 -89q-145 0 -231 95.5t-86 269.5q0 170 88 266t227 96z" />
    <glyph glyph-name="ccaron" unicode="&#x10d;" horiz-adv-x="479" 
d="M424 813l56 -65l-141 -137h-96l-142 137l57 65l133 -91zM292 548q105 0 182 -65l-68 -94q-50 38 -101 38q-107 0 -107 -165q0 -84 27 -119t78 -35q45 0 102 36l69 -98q-79 -63 -179 -63q-122 0 -192.5 75.5t-70.5 202.5q0 128 71 207.5t189 79.5z" />
    <glyph glyph-name="Dcaron" unicode="&#x10e;" horiz-adv-x="651" 
d="M429 944l56 -65l-141 -129h-96l-142 129l57 65l133 -84zM258 693q60 0 109 -8t97.5 -30.5t81 -60t52.5 -99.5t20 -145q0 -350 -345 -350h-208v693h193zM281 574h-52v-455h54q81 0 123 50.5t42 180.5q0 68 -12 113.5t-36 69t-52 32.5t-67 9z" />
    <glyph glyph-name="dcaron" unicode="&#x10f;" horiz-adv-x="686" 
d="M380 498v261l158 -17v-742h-140l-8 62q-56 -79 -151 -79q-99 0 -150.5 76t-51.5 208q0 124 60 202.5t157 78.5q76 0 126 -50zM599 759l120 -17l-55 -215l-88 13zM288 99q54 0 92 60v229q-39 45 -83 45t-70 -41t-26 -126q0 -93 22.5 -130t64.5 -37z" />
    <glyph glyph-name="Dcroat" unicode="&#x110;" horiz-adv-x="665" 
d="M272 693q60 0 109 -8t97.5 -30.5t81 -60t52.5 -99.5t20 -145q0 -350 -345 -350h-208v304h-65v98h65v291h193zM297 119q81 0 123 50.5t42 180.5q0 68 -12 113.5t-36 69t-52 32.5t-67 9h-52v-172h134v-98h-134v-185h54z" />
    <glyph glyph-name="dcroat" unicode="&#x111;" horiz-adv-x="608" 
d="M538 688h62v-92h-62v-596h-140l-8 62q-56 -79 -151 -79q-99 0 -150.5 76t-51.5 208q0 124 60 202.5t157 78.5q76 0 126 -50v98h-137v92h137v71l158 -17v-54zM288 99q54 0 92 60v229q-39 45 -83 45t-70 -41t-26 -126q0 -93 22.5 -130t64.5 -37z" />
    <glyph glyph-name="Emacron" unicode="&#x112;" horiz-adv-x="526" 
d="M431 781h-305v110h305v-110zM490 693l-17 -117h-244v-166h213v-115h-213v-177h261v-118h-425v693h425z" />
    <glyph glyph-name="emacron" unicode="&#x113;" horiz-adv-x="552" 
d="M435 765v-110h-305v110h305zM525 276q0 -33 -3 -57h-329q8 -67 38 -94t83 -27q59 0 127 47l65 -88q-93 -74 -207 -74q-129 0 -198 76t-69 204q0 124 65.5 204.5t182.5 80.5q115 0 180 -72t65 -200zM370 314v7q-2 122 -86 122q-41 0 -63.5 -30t-27.5 -99h177z" />
    <glyph glyph-name="Ebreve" unicode="&#x114;" horiz-adv-x="526" 
d="M278 751q-75 0 -120.5 47t-51.5 115l87 15q21 -68 85 -68q63 0 86 68l87 -15q-6 -68 -52 -115t-121 -47zM490 693l-17 -117h-244v-166h213v-115h-213v-177h261v-118h-425v693h425z" />
    <glyph glyph-name="ebreve" unicode="&#x115;" horiz-adv-x="552" 
d="M282 632q-76 0 -121 48.5t-51 124.5l87 15q19 -78 85 -78q65 0 86 78l87 -15q-6 -75 -51.5 -124t-121.5 -49zM525 276q0 -33 -3 -57h-329q8 -67 38 -94t83 -27q59 0 127 47l65 -88q-93 -74 -207 -74q-129 0 -198 76t-69 204q0 124 65.5 204.5t182.5 80.5q115 0 180 -72
t65 -200zM370 314v7q-2 122 -86 122q-41 0 -63.5 -30t-27.5 -99h177z" />
    <glyph glyph-name="Edotaccent" unicode="&#x116;" horiz-adv-x="526" 
d="M278 937q41 0 67.5 -25.5t26.5 -64.5t-26.5 -64.5t-67.5 -25.5t-67 25.5t-26 64.5t26 64.5t67 25.5zM490 693l-17 -117h-244v-166h213v-115h-213v-177h261v-118h-425v693h425z" />
    <glyph glyph-name="edotaccent" unicode="&#x117;" horiz-adv-x="552" 
d="M282 631q-41 0 -67 25.5t-26 64.5t26 64.5t67 25.5t67.5 -25.5t26.5 -64.5t-26.5 -64.5t-67.5 -25.5zM525 276q0 -33 -3 -57h-329q8 -67 38 -94t83 -27q59 0 127 47l65 -88q-93 -74 -207 -74q-129 0 -198 76t-69 204q0 124 65.5 204.5t182.5 80.5q115 0 180 -72t65 -200z
M370 314v7q-2 122 -86 122q-41 0 -63.5 -30t-27.5 -99h177z" />
    <glyph glyph-name="Eogonek" unicode="&#x118;" horiz-adv-x="526" 
d="M229 295v-177h261v-118h-40q-118 -44 -118 -102q0 -46 53 -46q24 0 61 8l-11 -98q-35 -8 -70 -8q-65 0 -106 32t-41 85q0 80 82 129h-235v693h425l-17 -117h-244v-166h213v-115h-213z" />
    <glyph glyph-name="eogonek" unicode="&#x119;" horiz-adv-x="552" 
d="M525 276q0 -33 -3 -57h-329q8 -67 38 -94t83 -27q59 0 127 47l65 -88q-51 -41 -109 -59q-91 -40 -91 -91q0 -46 53 -46q24 0 61 8l-11 -98q-34 -8 -70 -8q-65 0 -106 32t-41 85q0 66 68 105q-111 12 -169.5 86t-58.5 192q0 124 65.5 204.5t182.5 80.5q115 0 180 -72
t65 -200zM370 314v7q-2 122 -86 122q-41 0 -63.5 -30t-27.5 -99h177z" />
    <glyph glyph-name="Ecaron" unicode="&#x11a;" horiz-adv-x="526" 
d="M412 944l56 -65l-141 -129h-96l-142 129l57 65l133 -84zM490 693l-17 -117h-244v-166h213v-115h-213v-177h261v-118h-425v693h425z" />
    <glyph glyph-name="ecaron" unicode="&#x11b;" horiz-adv-x="552" 
d="M331 611h-96l-142 137l57 65l133 -91l133 91l56 -65zM525 276q0 -33 -3 -57h-329q8 -67 38 -94t83 -27q59 0 127 47l65 -88q-93 -74 -207 -74q-129 0 -198 76t-69 204q0 124 65.5 204.5t182.5 80.5q115 0 180 -72t65 -200zM370 314v7q-2 122 -86 122q-41 0 -63.5 -30
t-27.5 -99h177z" />
    <glyph glyph-name="Gcircumflex" unicode="&#x11c;" horiz-adv-x="645" 
d="M219 755l-57 65l142 129h96l141 -129l-56 -65l-133 84zM365 710q134 0 231 -85l-83 -87q-69 53 -141 53q-77 0 -123 -60.5t-46 -183.5q0 -133 35 -188.5t109 -55.5q52 0 94 23v157h-90l-16 116h265v-343q-114 -73 -249 -73q-158 0 -238 92.5t-80 271.5q0 171 93.5 267
t238.5 96z" />
    <glyph glyph-name="gcircumflex" unicode="&#x11d;" horiz-adv-x="551" 
d="M142 620l-56 65l141 137h97l141 -137l-56 -65l-133 92zM514 617l37 -117q-52 -21 -153 -21q52 -22 76 -54t24 -83q0 -79 -60.5 -128.5t-162.5 -49.5q-33 0 -61 6q-17 -9 -17 -30q0 -32 58 -32h80q92 0 147.5 -43t55.5 -111q0 -83 -71.5 -129.5t-206.5 -46.5
q-143 0 -198.5 43t-55.5 128h142q0 -36 23.5 -51t92.5 -15q65 0 90 15.5t25 44.5q0 52 -76 52h-77q-82 0 -122.5 29.5t-40.5 75.5q0 62 63 102q-95 50 -95 152q0 89 64 141.5t169 52.5q80 -2 135.5 16t114.5 53zM268 444q-37 0 -58.5 -23.5t-21.5 -64.5q0 -43 21.5 -66.5
t58.5 -23.5q80 0 80 92q0 86 -80 86z" />
    <glyph glyph-name="Gbreve" unicode="&#x11e;" horiz-adv-x="645" 
d="M351 751q-75 0 -120.5 47t-51.5 115l87 15q21 -68 85 -68q63 0 86 68l87 -15q-6 -68 -52 -115t-121 -47zM365 710q134 0 231 -85l-83 -87q-69 53 -141 53q-77 0 -123 -60.5t-46 -183.5q0 -133 35 -188.5t109 -55.5q52 0 94 23v157h-90l-16 116h265v-343
q-114 -73 -249 -73q-158 0 -238 92.5t-80 271.5q0 171 93.5 267t238.5 96z" />
    <glyph glyph-name="gbreve" unicode="&#x11f;" horiz-adv-x="551" 
d="M275 632q-76 0 -121 48.5t-51 124.5l87 15q20 -78 85 -78t86 78l87 -15q-6 -75 -51.5 -124t-121.5 -49zM514 617l37 -117q-52 -21 -153 -21q52 -22 76 -54t24 -83q0 -79 -60.5 -128.5t-162.5 -49.5q-33 0 -61 6q-17 -9 -17 -30q0 -32 58 -32h80q92 0 147.5 -43t55.5 -111
q0 -83 -71.5 -129.5t-206.5 -46.5q-143 0 -198.5 43t-55.5 128h142q0 -36 23.5 -51t92.5 -15q65 0 90 15.5t25 44.5q0 52 -76 52h-77q-82 0 -122.5 29.5t-40.5 75.5q0 62 63 102q-95 50 -95 152q0 89 64 141.5t169 52.5q80 -2 135.5 16t114.5 53zM268 444q-37 0 -58.5 -23.5
t-21.5 -64.5q0 -43 21.5 -66.5t58.5 -23.5q80 0 80 92q0 86 -80 86z" />
    <glyph glyph-name="Gdotaccent" unicode="&#x120;" horiz-adv-x="645" 
d="M351 937q41 0 67.5 -25.5t26.5 -64.5t-26.5 -64.5t-67.5 -25.5t-67 25.5t-26 64.5t26 64.5t67 25.5zM365 710q134 0 231 -85l-83 -87q-69 53 -141 53q-77 0 -123 -60.5t-46 -183.5q0 -133 35 -188.5t109 -55.5q52 0 94 23v157h-90l-16 116h265v-343q-114 -73 -249 -73
q-158 0 -238 92.5t-80 271.5q0 171 93.5 267t238.5 96z" />
    <glyph glyph-name="gdotaccent" unicode="&#x121;" horiz-adv-x="551" 
d="M275 811q41 0 67.5 -25.5t26.5 -64.5t-26.5 -64.5t-67.5 -25.5t-67 25.5t-26 64.5t26 64.5t67 25.5zM514 617l37 -117q-52 -21 -153 -21q52 -22 76 -54t24 -83q0 -79 -60.5 -128.5t-162.5 -49.5q-33 0 -61 6q-17 -9 -17 -30q0 -32 58 -32h80q92 0 147.5 -43t55.5 -111
q0 -83 -71.5 -129.5t-206.5 -46.5q-143 0 -198.5 43t-55.5 128h142q0 -36 23.5 -51t92.5 -15q65 0 90 15.5t25 44.5q0 52 -76 52h-77q-82 0 -122.5 29.5t-40.5 75.5q0 62 63 102q-95 50 -95 152q0 89 64 141.5t169 52.5q80 -2 135.5 16t114.5 53zM268 444q-37 0 -58.5 -23.5
t-21.5 -64.5q0 -43 21.5 -66.5t58.5 -23.5q80 0 80 92q0 86 -80 86z" />
    <glyph glyph-name="Gcommaaccent" unicode="&#x122;" horiz-adv-x="645" 
d="M365 710q134 0 231 -85l-83 -87q-69 53 -141 53q-77 0 -123 -60.5t-46 -183.5q0 -133 35 -188.5t109 -55.5q52 0 94 23v157h-90l-16 116h265v-343q-114 -73 -249 -73q-158 0 -238 92.5t-80 271.5q0 171 93.5 267t238.5 96zM348 -68q34 0 56.5 -22t22.5 -55q0 -30 -27 -84
l-46 -96h-79l27 115q-33 26 -33 65q0 32 22.5 54.5t56.5 22.5z" />
    <glyph glyph-name="gcommaaccent" unicode="&#x123;" horiz-adv-x="551" 
d="M273 577q-34 0 -56.5 22t-22.5 55q0 30 27 84l46 96h79l-27 -115q33 -26 33 -65q0 -32 -22.5 -54.5t-56.5 -22.5zM514 617l37 -117q-52 -21 -153 -21q52 -22 76 -54t24 -83q0 -79 -60.5 -128.5t-162.5 -49.5q-33 0 -61 6q-17 -9 -17 -30q0 -32 58 -32h80q92 0 147.5 -43
t55.5 -111q0 -83 -71.5 -129.5t-206.5 -46.5q-143 0 -198.5 43t-55.5 128h142q0 -36 23.5 -51t92.5 -15q65 0 90 15.5t25 44.5q0 52 -76 52h-77q-82 0 -122.5 29.5t-40.5 75.5q0 62 63 102q-95 50 -95 152q0 89 64 141.5t169 52.5q80 -2 135.5 16t114.5 53zM268 444
q-37 0 -58.5 -23.5t-21.5 -64.5q0 -43 21.5 -66.5t58.5 -23.5q80 0 80 92q0 86 -80 86z" />
    <glyph glyph-name="Hcircumflex" unicode="&#x124;" horiz-adv-x="666" 
d="M200 755l-57 65l142 129h96l141 -129l-56 -65l-133 84zM437 0v297h-208v-297h-164v693h164v-268h208v268h164v-693h-164z" />
    <glyph glyph-name="hcircumflex" unicode="&#x125;" horiz-adv-x="577" 
d="M288 888l-133 -84l-57 65l142 129h96l141 -129l-56 -65zM373 548q69 0 108 -42t39 -118v-388h-158v361q0 40 -13 55.5t-37 15.5q-48 0 -92 -68v-364h-158v742l158 16v-284q65 74 153 74z" />
    <glyph glyph-name="Hbar" unicode="&#x126;" horiz-adv-x="677" 
d="M664 592v-92h-57v-500h-164v297h-208v-297h-164v500h-58v92h58v101h164v-101h208v101h164v-101h57zM443 425v75h-208v-75h208z" />
    <glyph glyph-name="hbar" unicode="&#x127;" horiz-adv-x="586" 
d="M381 548q69 0 108 -42t39 -118v-388h-158v361q0 40 -13 55.5t-37 15.5q-48 0 -92 -68v-364h-158v596h-62v92h62v54l158 16v-70h132v-92h-132v-122q65 74 153 74z" />
    <glyph glyph-name="Itilde" unicode="&#x128;" horiz-adv-x="293" 
d="M204 761q-32 0 -66.5 22.5t-47.5 22.5q-28 0 -53 -44l-79 38q20 52 53.5 85t75.5 33q34 0 68.5 -22.5t47.5 -22.5q28 0 52 44l79 -39q-21 -53 -54.5 -85t-75.5 -32zM229 693v-693h-164v693h164z" />
    <glyph glyph-name="itilde" unicode="&#x129;" horiz-adv-x="282" 
d="M199 635q-32 0 -66.5 22.5t-47.5 22.5q-28 0 -53 -44l-79 38q20 52 53.5 85t75.5 33q34 0 68.5 -22.5t47.5 -22.5q28 0 52 44l79 -39q-21 -53 -54.5 -85t-75.5 -32zM220 531v-531h-158v531h158z" />
    <glyph glyph-name="Imacron" unicode="&#x12a;" horiz-adv-x="293" 
d="M298 781h-305v110h305v-110zM229 693v-693h-164v693h164z" />
    <glyph glyph-name="imacron" unicode="&#x12b;" horiz-adv-x="282" 
d="M293 655h-305v110h305v-110zM220 531v-531h-158v531h158z" />
    <glyph glyph-name="Ibreve" unicode="&#x12c;" horiz-adv-x="293" 
d="M145 751q-75 0 -120.5 47t-51.5 115l87 15q21 -68 85 -68q63 0 86 68l87 -15q-6 -68 -52 -115t-121 -47zM229 693v-693h-164v693h164z" />
    <glyph glyph-name="ibreve" unicode="&#x12d;" horiz-adv-x="282" 
d="M140 632q-76 0 -121 48.5t-51 124.5l87 15q19 -78 85 -78q65 0 86 78l87 -15q-6 -75 -51.5 -124t-121.5 -49zM220 531v-531h-158v531h158z" />
    <glyph glyph-name="Iogonek" unicode="&#x12e;" horiz-adv-x="293" 
d="M65 693h164v-693h-29q-118 -44 -118 -102q0 -46 53 -46q24 0 61 8l-11 -98q-35 -8 -70 -8q-65 0 -106 32t-41 85q0 86 97 137v685z" />
    <glyph glyph-name="iogonek" unicode="&#x12f;" horiz-adv-x="282" 
d="M140 631q-41 0 -67 25.5t-26 64.5t26 64.5t67 25.5t67.5 -25.5t26.5 -64.5t-26.5 -64.5t-67.5 -25.5zM62 10v521h158v-531h-25q-118 -44 -118 -102q0 -46 53 -46q24 0 61 8l-11 -98q-35 -8 -70 -8q-65 0 -106 32t-41 85q0 86 99 139z" />
    <glyph glyph-name="Idotaccent" unicode="&#x130;" horiz-adv-x="293" 
d="M145 937q41 0 67.5 -25.5t26.5 -64.5t-26.5 -64.5t-67.5 -25.5t-67 25.5t-26 64.5t26 64.5t67 25.5zM229 693v-693h-164v693h164z" />
    <glyph glyph-name="dotlessi" unicode="&#x131;" horiz-adv-x="282" 
d="M220 531v-531h-158v531h158z" />
    <glyph glyph-name="IJ" unicode="&#x132;" horiz-adv-x="610" 
d="M229 693v-693h-164v693h164zM549 693v-588q0 -63 -17.5 -110.5t-51 -78.5t-69.5 -50t-85 -35l-44 116q63 25 83 61t20 103v582h164z" />
    <glyph glyph-name="ij" unicode="&#x133;" horiz-adv-x="563" 
d="M140 811q41 0 67.5 -25.5t26.5 -64.5t-26.5 -64.5t-67.5 -25.5t-67 25.5t-26 64.5t26 64.5t67 25.5zM422 811q41 0 67.5 -25.5t26.5 -64.5t-26.5 -64.5t-67.5 -25.5t-67 25.5t-26 64.5t26 64.5t67 25.5zM220 531v-531h-158v531h158zM501 531v-471q0 -63 -15 -110
t-45.5 -79t-66 -53t-86.5 -39l-53 115q58 26 83 57.5t25 98.5v481h158z" />
    <glyph glyph-name="Jcircumflex" unicode="&#x134;" horiz-adv-x="317" 
d="M41 755l-57 65l142 129h96l141 -129l-56 -65l-133 84zM256 693v-588q0 -63 -17.5 -110.5t-51 -78.5t-69.5 -50t-85 -35l-44 116q63 25 83 61t20 103v582h164z" />
    <glyph glyph-name="jcircumflex" unicode="&#x135;" horiz-adv-x="281" 
d="M7 620l-56 65l141 137h97l141 -137l-56 -65l-133 92zM219 531v-471q0 -63 -15 -110t-45.5 -79t-66 -53t-86.5 -39l-53 115q58 26 83 57.5t25 98.5v481h158z" />
    <glyph glyph-name="Kcommaaccent" unicode="&#x136;" horiz-adv-x="633" 
d="M229 693v-693h-164v693h164zM627 693l-221 -311l239 -382h-190l-221 370l220 323h173zM325 -68q34 0 56.5 -22t22.5 -55q0 -30 -27 -84l-46 -96h-79l27 115q-33 26 -33 65q0 32 22.5 54.5t56.5 22.5z" />
    <glyph glyph-name="kcommaaccent" unicode="&#x137;" horiz-adv-x="552" 
d="M220 759v-759h-158v742zM548 531l-161 -233l174 -298h-178l-158 290l162 241h161zM277 -68q34 0 56.5 -22t22.5 -55q0 -30 -27 -84l-46 -96h-79l27 115q-33 26 -33 65q0 32 22.5 54.5t56.5 22.5z" />
    <glyph glyph-name="kgreenlandic" unicode="&#x138;" horiz-adv-x="551" 
d="M220 531v-531h-158v531h158zM547 531l-161 -243l174 -288h-178l-158 280l162 251h161z" />
    <glyph glyph-name="Lacute" unicode="&#x139;" horiz-adv-x="513" 
d="M228 956l59 -118l-240 -87l-40 80zM229 693v-563h270l-17 -130h-417v693h164z" />
    <glyph glyph-name="lacute" unicode="&#x13a;" horiz-adv-x="297" 
d="M217 1005l59 -118l-240 -87l-40 80zM203 -17q-69 0 -107.5 39.5t-38.5 112.5v607l158 17v-618q0 -33 27 -33q14 0 26 5l31 -112q-43 -18 -96 -18z" />
    <glyph glyph-name="Lcommaaccent" unicode="&#x13b;" horiz-adv-x="513" 
d="M229 693v-563h270l-17 -130h-417v693h164zM274 -68q34 0 56.5 -22t22.5 -55q0 -30 -27 -84l-46 -96h-79l27 115q-33 26 -33 65q0 32 22.5 54.5t56.5 22.5z" />
    <glyph glyph-name="lcommaaccent" unicode="&#x13c;" horiz-adv-x="297" 
d="M203 -17q-69 0 -107.5 39.5t-38.5 112.5v607l158 17v-618q0 -33 27 -33q14 0 26 5l31 -112q-43 -18 -96 -18zM184 -68q34 0 56.5 -22t22.5 -55q0 -30 -27 -84l-46 -96h-79l27 115q-33 26 -33 65q0 32 22.5 54.5t56.5 22.5z" />
    <glyph glyph-name="Lcaron" unicode="&#x13d;" horiz-adv-x="513" 
d="M358 478l55 215l-120 17l-23 -219zM229 693v-563h270l-17 -130h-417v693h164z" />
    <glyph glyph-name="lcaron" unicode="&#x13e;" horiz-adv-x="369" 
d="M203 -17q-69 0 -107.5 39.5t-38.5 112.5v607l158 17v-618q0 -33 27 -33q14 0 26 5l31 -112q-43 -18 -96 -18zM341 527l55 215l-120 17l-23 -219z" />
    <glyph glyph-name="Ldot" unicode="&#x13f;" horiz-adv-x="513" 
d="M229 693v-563h270l-17 -130h-417v693h164zM399 490q41 0 67.5 -25.5t26.5 -64.5t-26.5 -64.5t-67.5 -25.5t-67 25.5t-26 64.5t26 64.5t67 25.5z" />
    <glyph glyph-name="ldot" unicode="&#x140;" horiz-adv-x="442" 
d="M203 -17q-69 0 -107.5 39.5t-38.5 112.5v607l158 17v-618q0 -33 27 -33q14 0 26 5l31 -112q-43 -18 -96 -18zM355 467q41 0 67.5 -25.5t26.5 -64.5t-26.5 -64.5t-67.5 -25.5t-67 25.5t-26 64.5t26 64.5t67 25.5z" />
    <glyph glyph-name="Lslash" unicode="&#x141;" horiz-adv-x="553" 
d="M269 130h270l-17 -130h-417v225l-43 -27l-54 87l96 59l1 1v348h164v-247l127 79l54 -86l-181 -112v-197z" />
    <glyph glyph-name="lslash" unicode="&#x142;" horiz-adv-x="358" 
d="M270 108q14 0 26 5l31 -112q-43 -18 -96 -18q-69 0 -107.5 39.5t-38.5 112.5v133l-41 -25l-53 86l94 59v354l158 17v-276l67 40l52 -86l-119 -73v-223q0 -33 27 -33z" />
    <glyph glyph-name="Nacute" unicode="&#x143;" horiz-adv-x="663" 
d="M417 956l59 -118l-240 -87l-40 80zM599 693v-693h-209l-200 537q21 -165 21 -283v-254h-146v693h204l205 -538q-22 137 -22 258v280h147z" />
    <glyph glyph-name="nacute" unicode="&#x144;" horiz-adv-x="577" 
d="M428 717l-236 -95l-44 81l218 132zM373 548q69 0 108 -42t39 -118v-388h-158v361q0 40 -12.5 55.5t-37.5 15.5q-48 0 -92 -69v-363h-158v531h138l11 -63q68 80 162 80z" />
    <glyph glyph-name="Ncommaaccent" unicode="&#x145;" horiz-adv-x="663" 
d="M599 693v-693h-209l-200 537q21 -165 21 -283v-254h-146v693h204l205 -538q-22 137 -22 258v280h147zM333 -68q34 0 56.5 -22t22.5 -55q0 -30 -27 -84l-46 -96h-79l27 115q-33 26 -33 65q0 32 22.5 54.5t56.5 22.5z" />
    <glyph glyph-name="ncommaaccent" unicode="&#x146;" horiz-adv-x="577" 
d="M373 548q69 0 108 -42t39 -118v-388h-158v361q0 40 -12.5 55.5t-37.5 15.5q-48 0 -92 -69v-363h-158v531h138l11 -63q68 80 162 80zM290 -68q34 0 56.5 -22t22.5 -55q0 -30 -27 -84l-46 -96h-79l27 115q-33 26 -33 65q0 32 22.5 54.5t56.5 22.5z" />
    <glyph glyph-name="Ncaron" unicode="&#x147;" horiz-adv-x="663" 
d="M469 944l56 -65l-141 -129h-96l-142 129l57 65l133 -84zM599 693v-693h-209l-200 537q21 -165 21 -283v-254h-146v693h204l205 -538q-22 137 -22 258v280h147z" />
    <glyph glyph-name="ncaron" unicode="&#x148;" horiz-adv-x="577" 
d="M342 611h-96l-142 137l57 65l133 -91l133 91l56 -65zM373 548q69 0 108 -42t39 -118v-388h-158v361q0 40 -12.5 55.5t-37.5 15.5q-48 0 -92 -69v-363h-158v531h138l11 -63q68 80 162 80z" />
    <glyph glyph-name="napostrophe" unicode="&#x149;" horiz-adv-x="702" 
d="M102 760q30 0 50 -19.5t20 -48.5q0 -26 -24 -75l-41 -82h-69l24 100q-29 22 -29 57q0 28 20 48t49 20zM498 548q69 0 108 -42t39 -118v-388h-158v361q0 40 -12.5 55.5t-37.5 15.5q-48 0 -92 -69v-363h-158v531h138l11 -63q68 80 162 80z" />
    <glyph glyph-name="Eng" unicode="&#x14a;" horiz-adv-x="663" 
d="M452 693h147v-724q0 -94 -54 -142.5t-147 -48.5q-84 0 -141 43l54 97q40 -21 70 -21q54 0 54 61v42h-45l-200 537q21 -165 21 -283v-254h-146v693h204l205 -538q-22 137 -22 258v280z" />
    <glyph glyph-name="eng" unicode="&#x14b;" horiz-adv-x="577" 
d="M373 548q69 0 108 -42t39 -118v-419q0 -93 -53 -142t-143 -49q-85 0 -142 43l53 92q40 -20 70 -20q57 0 57 61v407q0 40 -12.5 55.5t-37.5 15.5q-48 0 -92 -69v-363h-158v531h138l11 -63q68 80 162 80z" />
    <glyph glyph-name="Omacron" unicode="&#x14c;" horiz-adv-x="691" 
d="M497 781h-305v110h305v-110zM345 710q148 0 230.5 -95t82.5 -268q0 -170 -83 -267t-230 -97t-229.5 95.5t-82.5 268.5q0 170 83 266.5t229 96.5zM345 590q-71 0 -105.5 -57.5t-34.5 -185.5t35 -186t105 -58q72 0 106.5 57.5t34.5 186.5t-35 186t-106 57z" />
    <glyph glyph-name="omacron" unicode="&#x14d;" horiz-adv-x="584" 
d="M444 655h-305v110h305v-110zM292 548q122 0 191 -74.5t69 -208.5q0 -129 -69.5 -205.5t-190.5 -76.5t-190.5 74.5t-69.5 208.5q0 129 69.5 205.5t190.5 76.5zM292 432q-96 0 -96 -166q0 -87 23.5 -127t72.5 -40q96 0 96 166q0 87 -23.5 127t-72.5 40z" />
    <glyph glyph-name="Obreve" unicode="&#x14e;" horiz-adv-x="691" 
d="M344 751q-75 0 -120.5 47t-51.5 115l87 15q21 -68 85 -68q63 0 86 68l87 -15q-6 -68 -52 -115t-121 -47zM345 710q148 0 230.5 -95t82.5 -268q0 -170 -83 -267t-230 -97t-229.5 95.5t-82.5 268.5q0 170 83 266.5t229 96.5zM345 590q-71 0 -105.5 -57.5t-34.5 -185.5
t35 -186t105 -58q72 0 106.5 57.5t34.5 186.5t-35 186t-106 57z" />
    <glyph glyph-name="obreve" unicode="&#x14f;" horiz-adv-x="584" 
d="M291 632q-76 0 -121 48.5t-51 124.5l87 15q20 -78 85 -78t86 78l87 -15q-6 -75 -51.5 -124t-121.5 -49zM292 548q122 0 191 -74.5t69 -208.5q0 -129 -69.5 -205.5t-190.5 -76.5t-190.5 74.5t-69.5 208.5q0 129 69.5 205.5t190.5 76.5zM292 432q-96 0 -96 -166
q0 -87 23.5 -127t72.5 -40q96 0 96 166q0 87 -23.5 127t-72.5 40z" />
    <glyph glyph-name="Ohungarumlaut" unicode="&#x150;" horiz-adv-x="691" 
d="M300 986l108 -50l-113 -180l-83 33zM476 986l106 -53l-121 -182l-82 38zM345 710q148 0 230.5 -95t82.5 -268q0 -170 -83 -267t-230 -97t-229.5 95.5t-82.5 268.5q0 170 83 266.5t229 96.5zM345 590q-71 0 -105.5 -57.5t-34.5 -185.5t35 -186t105 -58q72 0 106.5 57.5
t34.5 186.5t-35 186t-106 57z" />
    <glyph glyph-name="ohungarumlaut" unicode="&#x151;" horiz-adv-x="584" 
d="M243 860l108 -50l-113 -180l-83 33zM419 860l106 -53l-121 -182l-82 38zM292 548q122 0 191 -74.5t69 -208.5q0 -129 -69.5 -205.5t-190.5 -76.5t-190.5 74.5t-69.5 208.5q0 129 69.5 205.5t190.5 76.5zM292 432q-96 0 -96 -166q0 -87 23.5 -127t72.5 -40q96 0 96 166
q0 87 -23.5 127t-72.5 40z" />
    <glyph glyph-name="OE" unicode="&#x152;" horiz-adv-x="905" 
d="M635 295q-13 -106 -69 -177h303v-118h-445q-43 -17 -95 -17q-136 0 -216 96.5t-80 267.5q0 168 80.5 265.5t215.5 97.5q54 0 99 -17h441l-17 -117h-282q52 -68 64 -166h187v-115h-186zM335 103q65 0 98 58t33 186q0 243 -131 243q-130 0 -130 -243q0 -244 130 -244z" />
    <glyph glyph-name="oe" unicode="&#x153;" horiz-adv-x="907" 
d="M880 276q0 -33 -3 -57h-329q7 -67 37.5 -94t83.5 -27q59 0 127 47l65 -88q-93 -74 -207 -74q-119 0 -185 82q-67 -82 -178 -82q-121 0 -190 74.5t-69 208.5q0 128 70 205t190 77q109 0 177 -79q64 79 168 79q113 0 178 -72t65 -200zM724 314v7q0 122 -84 122
q-42 0 -64.5 -30t-27.5 -99h176zM291 99q96 0 96 167q0 166 -95 166q-96 0 -96 -166q0 -87 23.5 -127t71.5 -40z" />
    <glyph glyph-name="Racute" unicode="&#x154;" horiz-adv-x="617" 
d="M441 838l-240 -87l-40 80l221 125zM435 0l-142 265h-64v-265h-164v693h227q285 0 285 -211q0 -67 -32 -111.5t-101 -75.5l176 -295h-185zM229 578v-200h69q110 0 110 104q0 50 -29.5 73t-90.5 23h-59z" />
    <glyph glyph-name="racute" unicode="&#x155;" horiz-adv-x="401" 
d="M368 717l-236 -95l-44 81l218 132zM350 546q29 0 53 -7l-25 -153q-30 7 -48 7q-47 0 -71.5 -32.5t-38.5 -97.5v-263h-158v531h138l13 -103q18 55 54.5 86.5t82.5 31.5z" />
    <glyph glyph-name="Rcommaaccent" unicode="&#x156;" horiz-adv-x="617" 
d="M444 295l176 -295h-185l-142 265h-64v-265h-164v693h227q285 0 285 -211q0 -67 -32 -111.5t-101 -75.5zM229 578v-200h69q110 0 110 104q0 50 -29.5 73t-90.5 23h-59zM312 -68q34 0 56.5 -22t22.5 -55q0 -30 -27 -84l-46 -96h-79l27 115q-33 26 -33 65q0 32 22.5 54.5
t56.5 22.5z" />
    <glyph glyph-name="rcommaaccent" unicode="&#x157;" horiz-adv-x="401" 
d="M350 546q29 0 53 -7l-25 -153q-30 7 -48 7q-47 0 -71.5 -32.5t-38.5 -97.5v-263h-158v531h138l13 -103q18 55 54.5 86.5t82.5 31.5zM142 -68q34 0 56.5 -22t22.5 -55q0 -30 -27 -84l-46 -96h-79l27 115q-33 26 -33 65q0 32 22.5 54.5t56.5 22.5z" />
    <glyph glyph-name="Rcaron" unicode="&#x158;" horiz-adv-x="617" 
d="M349 750h-96l-142 129l57 65l133 -84l133 84l56 -65zM435 0l-142 265h-64v-265h-164v693h227q285 0 285 -211q0 -67 -32 -111.5t-101 -75.5l176 -295h-185zM229 578v-200h69q110 0 110 104q0 50 -29.5 73t-90.5 23h-59z" />
    <glyph glyph-name="rcaron" unicode="&#x159;" horiz-adv-x="401" 
d="M282 611h-96l-142 137l57 65l133 -91l133 91l56 -65zM213 428q18 55 54.5 86.5t82.5 31.5q29 0 53 -7l-25 -153q-30 7 -48 7q-47 0 -71.5 -32.5t-38.5 -97.5v-263h-158v531h138z" />
    <glyph glyph-name="Sacute" unicode="&#x15a;" horiz-adv-x="572" 
d="M376 956l59 -118l-240 -87l-40 80zM288 710q146 0 240 -89l-76 -89q-71 58 -152 58q-43 0 -68 -17.5t-25 -50.5t26.5 -51.5t107.5 -44.5q106 -34 156 -83.5t50 -140.5q0 -98 -73.5 -158.5t-201.5 -60.5q-160 0 -263 99l83 91q81 -68 175 -68q51 0 80.5 22.5t29.5 62.5
q0 39 -26 60.5t-101 44.5q-115 35 -163.5 86t-48.5 129q0 90 70 145t180 55z" />
    <glyph glyph-name="sacute" unicode="&#x15b;" horiz-adv-x="483" 
d="M321 835l62 -118l-236 -95l-44 81zM249 548q115 0 195 -65l-58 -89q-65 41 -131 41q-64 0 -64 -40q0 -22 20 -35t89 -33q83 -24 123.5 -62.5t40.5 -106.5q0 -80 -67 -127.5t-169 -47.5q-135 0 -222 79l77 86q67 -52 141 -52q36 0 56.5 13t20.5 37q0 27 -20 40.5t-92 33.5
q-157 45 -157 166q0 70 59.5 116t157.5 46z" />
    <glyph glyph-name="Scircumflex" unicode="&#x15c;" horiz-adv-x="572" 
d="M162 755l-57 65l142 129h96l141 -129l-56 -65l-133 84zM288 710q146 0 240 -89l-76 -89q-71 58 -152 58q-43 0 -68 -17.5t-25 -50.5t26.5 -51.5t107.5 -44.5q106 -34 156 -83.5t50 -140.5q0 -98 -73.5 -158.5t-201.5 -60.5q-160 0 -263 99l83 91q81 -68 175 -68
q51 0 80.5 22.5t29.5 62.5q0 39 -26 60.5t-101 44.5q-115 35 -163.5 86t-48.5 129q0 90 70 145t180 55z" />
    <glyph glyph-name="scircumflex" unicode="&#x15d;" horiz-adv-x="483" 
d="M115 620l-56 65l141 137h97l141 -137l-56 -65l-133 92zM249 548q115 0 195 -65l-58 -89q-65 41 -131 41q-64 0 -64 -40q0 -22 20 -35t89 -33q83 -24 123.5 -62.5t40.5 -106.5q0 -80 -67 -127.5t-169 -47.5q-135 0 -222 79l77 86q67 -52 141 -52q36 0 56.5 13t20.5 37
q0 27 -20 40.5t-92 33.5q-157 45 -157 166q0 70 59.5 116t157.5 46z" />
    <glyph glyph-name="Scedilla" unicode="&#x15e;" horiz-adv-x="572" 
d="M547 202q0 -87 -59 -145.5t-164 -70.5v-34q104 -12 104 -99q0 -51 -40.5 -83t-108.5 -32t-112 30l36 73q34 -17 64 -17q47 0 47 30q0 34 -92 34l11 97q-134 11 -224 97l83 91q81 -68 175 -68q51 0 80.5 22.5t29.5 62.5q0 39 -26 60.5t-101 44.5q-115 35 -163.5 86
t-48.5 129q0 90 70 145t180 55q146 0 240 -89l-76 -89q-71 58 -152 58q-43 0 -68 -17.5t-25 -50.5t26.5 -51.5t107.5 -44.5q106 -34 156 -83.5t50 -140.5z" />
    <glyph glyph-name="scedilla" unicode="&#x15f;" horiz-adv-x="483" 
d="M464 158q0 -69 -49.5 -114t-129.5 -57v-35q104 -12 104 -99q0 -51 -40.5 -83t-108.5 -32t-112 30l36 73q34 -17 64 -17q47 0 47 30q0 34 -92 34l11 96q-112 10 -188 78l77 86q67 -52 141 -52q36 0 56.5 13t20.5 37q0 27 -20 40.5t-92 33.5q-157 45 -157 166
q0 70 59.5 116t157.5 46q115 0 195 -65l-58 -89q-65 41 -131 41q-64 0 -64 -40q0 -22 20 -35t89 -33q83 -24 123.5 -62.5t40.5 -106.5z" />
    <glyph glyph-name="Scaron" unicode="&#x160;" horiz-adv-x="572" 
d="M428 944l56 -65l-141 -129h-96l-142 129l57 65l133 -84zM288 710q146 0 240 -89l-76 -89q-71 58 -152 58q-43 0 -68 -17.5t-25 -50.5t26.5 -51.5t107.5 -44.5q106 -34 156 -83.5t50 -140.5q0 -98 -73.5 -158.5t-201.5 -60.5q-160 0 -263 99l83 91q81 -68 175 -68
q51 0 80.5 22.5t29.5 62.5q0 39 -26 60.5t-101 44.5q-115 35 -163.5 86t-48.5 129q0 90 70 145t180 55z" />
    <glyph glyph-name="scaron" unicode="&#x161;" horiz-adv-x="483" 
d="M382 813l56 -65l-141 -137h-96l-142 137l57 65l133 -91zM249 548q115 0 195 -65l-58 -89q-65 41 -131 41q-64 0 -64 -40q0 -22 20 -35t89 -33q83 -24 123.5 -62.5t40.5 -106.5q0 -80 -67 -127.5t-169 -47.5q-135 0 -222 79l77 86q67 -52 141 -52q36 0 56.5 13t20.5 37
q0 27 -20 40.5t-92 33.5q-157 45 -157 166q0 70 59.5 116t157.5 46z" />
    <glyph glyph-name="uni0162" unicode="&#x162;" horiz-adv-x="540" 
d="M352 -48q105 -12 105 -99q0 -51 -41 -83t-109 -32q-66 0 -111 30l36 73q34 -17 61 -17q50 0 50 31q0 33 -92 33l13 112h-76v567h-179v126h530l-16 -126h-171v-615z" />
    <glyph glyph-name="uni0163" unicode="&#x163;" horiz-adv-x="386" 
d="M277 -48q104 -12 104 -99q0 -51 -40.5 -83t-108.5 -32t-112 30l36 73q34 -17 64 -17q47 0 47 30q0 34 -92 34l12 104q-110 31 -110 183v246h-75v110h75v115l158 18v-133h122l-17 -110h-105v-244q0 -37 12 -53t38 -16q27 0 57 17l53 -100q-49 -34 -118 -41v-32z" />
    <glyph glyph-name="Tcaron" unicode="&#x164;" horiz-adv-x="540" 
d="M403 944l56 -65l-141 -129h-96l-142 129l57 65l133 -84zM539 693l-16 -126h-171v-567h-164v567h-179v126h530z" />
    <glyph glyph-name="tcaron" unicode="&#x165;" horiz-adv-x="386" 
d="M400 780l-55 -215l-88 13l23 219zM285 108q27 0 57 17l53 -100q-60 -42 -144 -42q-174 1 -174 192v246h-75v110h75v115l158 18v-133h122l-17 -110h-105v-244q0 -37 12 -53t38 -16z" />
    <glyph glyph-name="Tbar" unicode="&#x166;" horiz-adv-x="540" 
d="M523 566h-171v-177h115v-92h-115v-298h-164v298h-115v92h115v177h-179v126h530z" />
    <glyph glyph-name="tbar" unicode="&#x167;" horiz-adv-x="386" 
d="M342 125l53 -100q-60 -42 -144 -42q-174 1 -174 192v82h-66v104h66v60h-75v110h75v115l158 18v-133h122l-17 -110h-105v-60h103v-104h-103v-80q0 -37 12 -53t38 -16q27 0 57 17z" />
    <glyph glyph-name="Utilde" unicode="&#x168;" horiz-adv-x="651" 
d="M383 761q-32 0 -66.5 22.5t-47.5 22.5q-28 0 -53 -44l-79 38q20 52 53.5 85t75.5 33q34 0 68.5 -22.5t47.5 -22.5q28 0 52 44l79 -39q-21 -53 -54.5 -85t-75.5 -32zM596 693v-463q0 -110 -70 -178.5t-201 -68.5q-132 0 -201 67t-69 180v463h164v-456q0 -67 25.5 -99.5
t80.5 -32.5q56 0 81.5 32.5t25.5 99.5v456h164z" />
    <glyph glyph-name="utilde" unicode="&#x169;" horiz-adv-x="572" 
d="M342 635q-32 0 -66.5 22.5t-47.5 22.5q-28 0 -53 -44l-79 38q20 52 53.5 85t75.5 33q34 0 68.5 -22.5t47.5 -22.5q28 0 52 44l79 -39q-21 -53 -54.5 -85t-75.5 -32zM510 531v-531h-137l-7 67q-58 -84 -161 -84q-73 0 -110.5 44t-37.5 123v381h158v-361q0 -39 12.5 -54.5
t38.5 -15.5q50 0 86 62v369h158z" />
    <glyph glyph-name="Umacron" unicode="&#x16a;" horiz-adv-x="651" 
d="M477 781h-305v110h305v-110zM596 693v-463q0 -110 -70 -178.5t-201 -68.5q-132 0 -201 67t-69 180v463h164v-456q0 -67 25.5 -99.5t80.5 -32.5q56 0 81.5 32.5t25.5 99.5v456h164z" />
    <glyph glyph-name="umacron" unicode="&#x16b;" horiz-adv-x="572" 
d="M436 655h-305v110h305v-110zM510 531v-531h-137l-7 67q-58 -84 -161 -84q-73 0 -110.5 44t-37.5 123v381h158v-361q0 -39 12.5 -54.5t38.5 -15.5q50 0 86 62v369h158z" />
    <glyph glyph-name="Ubreve" unicode="&#x16c;" horiz-adv-x="651" 
d="M324 751q-75 0 -120.5 47t-51.5 115l87 15q21 -68 85 -68q63 0 86 68l87 -15q-6 -68 -52 -115t-121 -47zM596 693v-463q0 -110 -70 -178.5t-201 -68.5q-132 0 -201 67t-69 180v463h164v-456q0 -67 25.5 -99.5t80.5 -32.5q56 0 81.5 32.5t25.5 99.5v456h164z" />
    <glyph glyph-name="ubreve" unicode="&#x16d;" horiz-adv-x="572" 
d="M283 632q-76 0 -121 48.5t-51 124.5l87 15q20 -78 85 -78t86 78l87 -15q-6 -75 -51.5 -124t-121.5 -49zM510 531v-531h-137l-7 67q-58 -84 -161 -84q-73 0 -110.5 44t-37.5 123v381h158v-361q0 -39 12.5 -54.5t38.5 -15.5q50 0 86 62v369h158z" />
    <glyph glyph-name="Uring" unicode="&#x16e;" horiz-adv-x="651" 
d="M325 993q63 0 101 -38t38 -93t-38 -93t-101 -38t-101 38t-38 93t38 93t101 38zM325 912q-45 0 -45 -50t45 -50q20 0 32.5 13t12.5 37q0 50 -45 50zM596 693v-463q0 -110 -70 -178.5t-201 -68.5q-132 0 -201 67t-69 180v463h164v-456q0 -67 25.5 -99.5t80.5 -32.5
q56 0 81.5 32.5t25.5 99.5v456h164z" />
    <glyph glyph-name="uring" unicode="&#x16f;" horiz-adv-x="572" 
d="M284 867q63 0 101 -38t38 -93t-38 -93t-101 -38t-101 38t-38 93t38 93t101 38zM284 786q-45 0 -45 -50t45 -50q20 0 32.5 13t12.5 37q0 50 -45 50zM510 531v-531h-137l-7 67q-58 -84 -161 -84q-73 0 -110.5 44t-37.5 123v381h158v-361q0 -39 12.5 -54.5t38.5 -15.5
q50 0 86 62v369h158z" />
    <glyph glyph-name="Uhungarumlaut" unicode="&#x170;" horiz-adv-x="651" 
d="M280 986l108 -50l-113 -180l-83 33zM456 986l106 -53l-121 -182l-82 38zM596 693v-463q0 -110 -70 -178.5t-201 -68.5q-132 0 -201 67t-69 180v463h164v-456q0 -67 25.5 -99.5t80.5 -32.5q56 0 81.5 32.5t25.5 99.5v456h164z" />
    <glyph glyph-name="uhungarumlaut" unicode="&#x171;" horiz-adv-x="572" 
d="M235 860l108 -50l-113 -180l-83 33zM411 860l106 -53l-121 -182l-82 38zM510 531v-531h-137l-7 67q-58 -84 -161 -84q-73 0 -110.5 44t-37.5 123v381h158v-361q0 -39 12.5 -54.5t38.5 -15.5q50 0 86 62v369h158z" />
    <glyph glyph-name="Uogonek" unicode="&#x172;" horiz-adv-x="651" 
d="M432 693h164v-463q0 -83 -41 -144t-119 -87q-116 -43 -116 -101q0 -46 53 -46q24 0 61 8l-11 -98q-34 -8 -70 -8q-65 0 -106 32t-41 85q0 73 84 113q-115 10 -175 75.5t-60 170.5v463h164v-456q0 -67 25.5 -99.5t80.5 -32.5q56 0 81.5 32.5t25.5 99.5v456z" />
    <glyph glyph-name="uogonek" unicode="&#x173;" horiz-adv-x="572" 
d="M510 0q-118 -44 -118 -102q0 -46 53 -46q24 0 61 8l-11 -98q-35 -8 -70 -8q-65 0 -106 32t-41 85q0 85 94 136l-6 60q-58 -84 -161 -84q-73 0 -110.5 44t-37.5 123v381h158v-361q0 -39 12.5 -54.5t38.5 -15.5q50 0 86 62v369h158v-531z" />
    <glyph glyph-name="Wcircumflex" unicode="&#x174;" horiz-adv-x="847" 
d="M292 755l-57 65l142 129h96l141 -129l-56 -65l-133 84zM837 693l-116 -693h-213l-86 529l-91 -529h-208l-114 693h164l69 -569l96 569h172l90 -569l81 569h156z" />
    <glyph glyph-name="wcircumflex" unicode="&#x175;" horiz-adv-x="749" 
d="M241 620l-56 65l141 137h97l141 -137l-56 -65l-133 92zM744 531l-110 -531h-189l-71 390l-70 -390h-187l-113 531h160l55 -413l83 413h154l73 -413l64 413h151z" />
    <glyph glyph-name="Ycircumflex" unicode="&#x176;" horiz-adv-x="594" 
d="M164 755l-57 65l142 129h96l141 -129l-56 -65l-133 84zM601 693l-222 -433v-260h-164v259l-222 434h179l128 -305l128 305h173z" />
    <glyph glyph-name="ycircumflex" unicode="&#x177;" horiz-adv-x="518" 
d="M125 620l-56 65l141 137h97l141 -137l-56 -65l-133 92zM524 531l-169 -532q-32 -103 -104.5 -158.5t-194.5 -62.5l-17 111q76 10 112.5 34t58.5 77h-54l-162 531h168l95 -430l104 430h163z" />
    <glyph glyph-name="Ydieresis" unicode="&#x178;" horiz-adv-x="594" 
d="M180 925q34 0 57.5 -23t23.5 -56t-23.5 -56t-57.5 -23t-57.5 23t-23.5 56t23.5 56t57.5 23zM411 925q35 0 58 -23t23 -56t-23 -56t-58 -23q-33 0 -56.5 23t-23.5 56t23.5 56t56.5 23zM601 693l-222 -433v-260h-164v259l-222 434h179l128 -305l128 305h173z" />
    <glyph glyph-name="Zacute" unicode="&#x179;" horiz-adv-x="544" 
d="M357 956l59 -118l-240 -87l-40 80zM512 693v-124l-301 -438h306l-16 -131h-483v123l307 443h-276v127h463z" />
    <glyph glyph-name="zacute" unicode="&#x17a;" horiz-adv-x="459" 
d="M305 835l62 -118l-236 -95l-44 81zM436 531v-111l-240 -300h245l-14 -120h-414v112l241 300h-220v119h402z" />
    <glyph glyph-name="Zdotaccent" unicode="&#x17b;" horiz-adv-x="544" 
d="M275 937q41 0 67.5 -25.5t26.5 -64.5t-26.5 -64.5t-67.5 -25.5t-67 25.5t-26 64.5t26 64.5t67 25.5zM512 693v-124l-301 -438h306l-16 -131h-483v123l307 443h-276v127h463z" />
    <glyph glyph-name="zdotaccent" unicode="&#x17c;" horiz-adv-x="459" 
d="M232 811q41 0 67.5 -25.5t26.5 -64.5t-26.5 -64.5t-67.5 -25.5t-67 25.5t-26 64.5t26 64.5t67 25.5zM436 531v-111l-240 -300h245l-14 -120h-414v112l241 300h-220v119h402z" />
    <glyph glyph-name="Zcaron" unicode="&#x17d;" horiz-adv-x="544" 
d="M409 944l56 -65l-141 -129h-96l-142 129l57 65l133 -84zM512 693v-124l-301 -438h306l-16 -131h-483v123l307 443h-276v127h463z" />
    <glyph glyph-name="zcaron" unicode="&#x17e;" horiz-adv-x="459" 
d="M366 813l56 -65l-141 -137h-96l-142 137l57 65l133 -91zM436 531v-111l-240 -300h245l-14 -120h-414v112l241 300h-220v119h402z" />
    <glyph glyph-name="longs" unicode="&#x17f;" horiz-adv-x="356" 
d="M286 759q79 0 145 -34l-43 -103q-40 20 -83 20q-34 0 -49 -16t-15 -54v-572h-158v421h-80v110h80v47q0 80 52.5 130.5t150.5 50.5z" />
    <glyph glyph-name="uni0180" unicode="&#x180;" horiz-adv-x="606" 
d="M371 548q95 0 146 -74.5t51 -208.5q0 -125 -57 -203.5t-154 -78.5q-87 0 -139 68l-8 -51h-140v596h-62v92h62v54l158 17v-71h132v-92h-132v-119q52 71 143 71zM311 98q93 0 93 167q0 95 -22 131t-64 36q-53 0 -90 -62v-221q32 -51 83 -51z" />
    <glyph glyph-name="uni0181" unicode="&#x181;" horiz-adv-x="758" 
d="M576 367q156 -30 156 -165q0 -111 -79.5 -156.5t-222.5 -45.5h-223v576h-29q-46 0 -46 -42q0 -26 17 -65l-101 -45q-44 65 -44 120q0 69 49.5 109t133.5 40h216q146 0 223 -41.5t77 -135.5q0 -61 -36.5 -98.5t-90.5 -50.5zM419 577h-48v-161h61q104 0 104 84
q0 42 -28 59.5t-89 17.5zM431 119q65 0 98.5 19.5t33.5 72.5q0 96 -120 96h-72v-188h60z" />
    <glyph glyph-name="uni0182" unicode="&#x182;" horiz-adv-x="596" 
d="M303 446q132 0 203.5 -55t71.5 -162q0 -113 -74 -171t-198 -58h-241v693h432l-17 -124h-251v-123h74zM292 119q115 0 115 108q0 105 -118 105h-60v-213h63z" />
    <glyph glyph-name="uni0183" unicode="&#x183;" horiz-adv-x="597" 
d="M360 536q97 0 148.5 -73t51.5 -204q0 -121 -57 -198.5t-154 -77.5q-87 0 -139 68l-8 -51h-140v742h376l-17 -113h-201v-164q24 32 62 51.5t78 19.5zM304 98q92 0 92 161q0 90 -22 125.5t-63 35.5q-54 0 -91 -62v-209q32 -51 84 -51z" />
    <glyph glyph-name="uni0184" unicode="&#x184;" horiz-adv-x="615" 
d="M324 457q132 0 204 -55.5t72 -166.5q0 -117 -74 -176t-198 -59h-242v492l-75 50q60 62 101 151h138v-236h74zM314 119q114 0 114 114q0 110 -118 110h-60v-224h64z" />
    <glyph glyph-name="uni0185" unicode="&#x185;" horiz-adv-x="541" 
d="M276 366q129 0 188.5 -46.5t59.5 -137.5q0 -89 -62 -135.5t-163 -46.5h-219v339l-75 51q60 61 101 141h132v-165h38zM282 104q81 0 81 81q0 41 -20 60.5t-69 19.5h-36v-161h44z" />
    <glyph glyph-name="uni0186" unicode="&#x186;" horiz-adv-x="575" 
d="M242 710q137 0 218.5 -95.5t81.5 -266.5q0 -174 -85.5 -269.5t-228.5 -95.5q-127 0 -220 89l73 93q37 -27 68 -41t71 -14q150 0 150 238q0 241 -138 241q-71 0 -137 -50l-79 95q95 76 226 76z" />
    <glyph glyph-name="uni0187" unicode="&#x187;" horiz-adv-x="575" 
d="M590 851q76 0 135 -37l-46 -98q-36 19 -68 19q-52 0 -52 -62v-39l-70 -84q-65 39 -134 39t-109.5 -59.5t-40.5 -181.5q0 -121 40.5 -179.5t112.5 -58.5q60 0 135 58l74 -96q-87 -89 -217 -89q-145 0 -231 95.5t-86 269.5q0 167 86 264.5t210 97.5q51 0 91 -16
q4 75 46.5 116t123.5 41z" />
    <glyph glyph-name="uni0188" unicode="&#x188;" horiz-adv-x="479" 
d="M504 759q76 0 135 -38l-46 -98q-36 19 -68 19q-51 0 -51 -61v-98l-59 -82q-50 26 -108 26q-54 0 -81.5 -39t-27.5 -126q0 -84 27 -119t78 -35q45 0 102 36l69 -98q-79 -63 -179 -63q-122 0 -192.5 75.5t-70.5 202.5q0 126 68 206.5t173 80.5q34 0 61 -9v49q0 82 43 126.5
t127 44.5z" />
    <glyph glyph-name="uni0189" unicode="&#x189;" horiz-adv-x="665" 
d="M272 693q60 0 109 -8t97.5 -30.5t81 -60t52.5 -99.5t20 -145q0 -350 -345 -350h-208v304h-65v98h65v291h193zM297 119q81 0 123 50.5t42 180.5q0 68 -12 113.5t-36 69t-52 32.5t-67 9h-52v-172h134v-98h-134v-185h54z" />
    <glyph glyph-name="uni018A" unicode="&#x18a;" horiz-adv-x="793" 
d="M400 693q60 0 109 -8t97.5 -30.5t81 -60t52.5 -99.5t20 -145q0 -350 -345 -350h-208v576h-29q-46 0 -46 -42q0 -26 17 -65l-101 -45q-44 65 -44 120q0 69 49.5 109t133.5 40h213zM425 119q81 0 123 50.5t42 180.5q0 68 -12 113.5t-36 69t-52 32.5t-67 9h-52v-455h54z" />
    <glyph glyph-name="uni018B" unicode="&#x18b;" horiz-adv-x="596" 
d="M531 693v-693h-247q-122 0 -194 55.5t-72 167.5q0 107 72.5 165t202.5 58h74v123h-262v124h426zM303 119h64v213h-60q-118 0 -118 -109q0 -104 114 -104z" />
    <glyph glyph-name="uni018C" unicode="&#x18c;" horiz-adv-x="600" 
d="M538 742v-742h-140l-8 62q-56 -79 -151 -79q-99 0 -150.5 74.5t-51.5 202.5q0 121 59.5 198.5t160.5 77.5q72 0 123 -51v144h-209v113h367zM289 99q53 0 91 60v217q-39 45 -82 45q-45 0 -71 -40t-26 -121q0 -89 23 -125t65 -36z" />
    <glyph glyph-name="uni018D" unicode="&#x18d;" horiz-adv-x="577" 
d="M392 74q58 -32 78.5 -65t20.5 -77q0 -67 -54 -111t-160 -44q-112 0 -191 61l72 84q52 -35 108 -35q74 0 74 48q0 25 -18.5 41t-82.5 41q-109 45 -158 105t-49 161q0 120 69.5 192.5t187.5 72.5q119 0 187.5 -68.5t68.5 -189.5q0 -144 -153 -216zM196 283q0 -69 22 -102.5
t93 -68.5q39 33 55.5 73.5t16.5 98.5q0 148 -94 148q-93 0 -93 -149z" />
    <glyph glyph-name="uni018E" unicode="&#x18e;" horiz-adv-x="526" 
d="M41 693h420v-693h-425v118h261v177h-213v115h213v166h-256v117z" />
    <glyph glyph-name="uni018F" unicode="&#x18f;" horiz-adv-x="640" 
d="M309 710q142 0 219.5 -91t77.5 -267q0 -180 -78.5 -274.5t-215.5 -94.5q-145 0 -217 93.5t-72 261.5q0 37 6 67h411q-7 185 -146 185q-81 0 -158 -57l-74 89q103 88 247 88zM311 103q61 0 93.5 44t36.5 145h-260q1 -189 130 -189z" />
    <glyph glyph-name="uni0190" unicode="&#x190;" horiz-adv-x="541" 
d="M291 710q135 0 232 -92l-79 -83q-63 56 -134 56q-94 0 -94 -81q0 -41 27 -63.5t76 -22.5h76l-20 -118h-53q-124 0 -124 -101q0 -48 31 -74.5t86 -26.5q76 0 141 62l87 -86q-91 -97 -244 -97q-121 0 -197 58t-76 154q0 76 46.5 120t129.5 53q-76 15 -115.5 57t-39.5 103
q0 80 67 131t177 51z" />
    <glyph glyph-name="uni0191" unicode="&#x191;" horiz-adv-x="487" 
d="M461 576h-232v-184h202v-117h-202v-306q0 -94 -54 -142.5t-147 -48.5q-84 0 -141 43l54 97q40 -21 70 -21q54 0 54 61v735h413z" />
    <glyph glyph-name="florin" unicode="&#x192;" horiz-adv-x="372" 
d="M316 642q-40 0 -55 -16t-15 -54v-41h126l-18 -110h-108v-361q0 -63 -15 -110t-45.5 -79t-66 -53t-86.5 -39l-53 115q58 26 83 57.5t25 98.5v371h-81v110h81v47q0 80 52.5 130.5t150.5 50.5q84 0 155 -34l-43 -103q-45 20 -87 20z" />
    <glyph glyph-name="uni0193" unicode="&#x193;" horiz-adv-x="612" 
d="M627 851q78 0 135 -37l-46 -98q-36 19 -68 19q-52 0 -52 -62v-48l-77 -80q-77 46 -147 46q-77 0 -123 -60.5t-46 -183.5q0 -133 35 -188.5t109 -55.5q52 0 94 23v157h-90l-16 116h265v-343q-113 -73 -252 -73q-156 0 -235.5 92.5t-79.5 271.5q0 168 91.5 265.5
t221.5 97.5q63 0 111 -21q2 77 45 119.5t125 42.5z" />
    <glyph glyph-name="uni0194" unicode="&#x194;" horiz-adv-x="570" 
d="M583 693l-211 -601q66 -109 66 -189q0 -125 -151 -125q-76 0 -113.5 33t-37.5 91q0 70 68 190l-217 601h173l128 -494l127 494h168zM316 -87q0 28 -29 93q-29 -63 -29 -93q0 -32 29 -32t29 32z" />
    <glyph glyph-name="uni0195" unicode="&#x195;" horiz-adv-x="870" 
d="M799 531q29 -157 29 -283q0 -132 -76.5 -198.5t-182.5 -66.5q-90 0 -148.5 49.5t-58.5 147.5v181q0 40 -13 55.5t-37 15.5q-48 0 -92 -68v-364h-158v742l158 16v-284q65 74 153 74q69 0 108 -42t39 -118v-205q0 -84 60 -84q38 0 64 38.5t26 123.5q0 122 -27 270h156z" />
    <glyph glyph-name="uni0196" unicode="&#x196;" horiz-adv-x="391" 
d="M342 123l54 -97q-57 -43 -141 -43q-93 0 -147 48.5t-54 142.5v32h1v487h164v-488h-1v-42q0 -61 54 -61q30 0 70 21z" />
    <glyph glyph-name="uni0197" unicode="&#x197;" horiz-adv-x="330" 
d="M324 420v-120h-77v-300h-164v300h-78v120h78v273h164v-273h77z" />
    <glyph glyph-name="uni0198" unicode="&#x198;" horiz-adv-x="653" 
d="M455 0l-221 370l139 221q40 66 79 92.5t101 26.5t113 -37l-44 -94q-22 14 -46 14q-21 0 -35.5 -10t-34.5 -42l-101 -159l240 -382h-190zM229 693v-693h-164v693h164z" />
    <glyph glyph-name="uni0199" unicode="&#x199;" horiz-adv-x="552" 
d="M284 642q-34 0 -49 -16t-15 -54v-572h-158v578q0 80 52.5 130.5t150.5 50.5q79 0 145 -34l-43 -101q-42 18 -83 18zM387 298l174 -298h-178l-158 290l162 241h161z" />
    <glyph glyph-name="uni019A" unicode="&#x19a;" horiz-adv-x="336" 
d="M298 113l31 -112q-43 -18 -96 -18q-69 0 -107.5 39.5t-38.5 112.5v182h-82v110h82v315l158 17v-332h79v-110h-79v-176q0 -33 27 -33q14 0 26 5z" />
    <glyph glyph-name="uni019B" unicode="&#x19b;" horiz-adv-x="529" 
d="M390 457q41 -177 73 -265.5t84 -158.5l-152 -50q-48 78 -77 163t-57 235l-97 -398l-156 36l158 470h78q-13 51 -26 79l-57 -48l-86 52l73 64q-32 12 -86 20l19 102q106 -16 161 -48l72 60l65 -74l-64 -52q46 -65 75 -187z" />
    <glyph glyph-name="uni019C" unicode="&#x19c;" horiz-adv-x="915" 
d="M686 693h164v-693h-143l-12 64q-68 -81 -157 -81q-105 0 -147 92q-41 -49 -80 -70.5t-89 -21.5q-78 0 -122.5 53.5t-44.5 140.5v516h164v-508q0 -80 58 -80q24 0 45 16.5t48 50.5v5v516h165v-508q0 -80 57 -80q28 0 49 16t45 52v520z" />
    <glyph glyph-name="uni019D" unicode="&#x19d;" horiz-adv-x="663" 
d="M452 693h147v-693h-209l-200 537q21 -165 21 -283v-286q0 -93 -50 -141.5t-136 -48.5q-84 0 -141 43l54 94q39 -22 70 -22q57 0 57 61v739h204l205 -538q-22 137 -22 258v280z" />
    <glyph glyph-name="uni019E" unicode="&#x19e;" horiz-adv-x="577" 
d="M373 548q69 0 108 -42t39 -118v-610l-158 17v566q0 40 -12.5 55.5t-37.5 15.5q-48 0 -92 -69v-363h-158v531h138l11 -63q68 80 162 80z" />
    <glyph glyph-name="uni019F" unicode="&#x19f;" horiz-adv-x="691" 
d="M345 710q148 0 230.5 -95t82.5 -268q0 -170 -83 -267t-230 -97t-229.5 95.5t-82.5 268.5q0 170 83 266.5t229 96.5zM345 590q-130 0 -143 -193h287q-7 101 -43 147t-101 46zM345 103q66 0 102.5 48t42.5 154h-289q11 -202 144 -202z" />
    <glyph glyph-name="Ohorn" unicode="&#x1a0;" horiz-adv-x="715" 
d="M713 685q0 -101 -102 -122q47 -86 47 -216q0 -170 -83 -267t-230 -97t-229.5 95.5t-82.5 268.5q0 170 83 266.5t229 96.5q131 0 212 -76q48 5 48 56q0 31 -13 68l102 15q19 -36 19 -88zM345 103q72 0 106.5 57.5t34.5 186.5t-35 186t-106 57t-105.5 -57.5t-34.5 -185.5
t35 -186t105 -58z" />
    <glyph glyph-name="ohorn" unicode="&#x1a1;" horiz-adv-x="625" 
d="M636 521q0 -104 -107 -122q23 -58 23 -134q0 -129 -69.5 -205.5t-190.5 -76.5t-190.5 74.5t-69.5 208.5q0 129 69.5 205.5t190.5 76.5q122 0 192 -76q44 7 44 55q0 30 -13 67l102 15q19 -36 19 -88zM292 99q96 0 96 166q0 87 -23.5 127t-72.5 40q-96 0 -96 -166
q0 -87 23.5 -127t72.5 -40z" />
    <glyph glyph-name="uni01A2" unicode="&#x1a2;" horiz-adv-x="960" 
d="M692 711q96 0 150 -49t54 -143v-729h-164v735q0 71 -60 71q-34 0 -73 -17q59 -92 59 -232q0 -170 -83 -267t-230 -97t-229.5 95.5t-82.5 268.5q0 170 83 266.5t229 96.5q105 0 179 -53q79 54 168 54zM345 103q72 0 106.5 57.5t34.5 186.5t-35 186t-106 57t-105.5 -57.5
t-34.5 -185.5t35 -186t105 -58z" />
    <glyph glyph-name="uni01A3" unicode="&#x1a3;" horiz-adv-x="829" 
d="M575 548q90 0 141 -49t51 -142v-579l-158 17v574q0 64 -57 64q-16 0 -39 -5q39 -69 39 -163q0 -129 -69.5 -205.5t-190.5 -76.5t-190.5 74.5t-69.5 208.5q0 129 69.5 205.5t190.5 76.5q80 0 140 -37q65 37 143 37zM292 99q96 0 96 166q0 87 -23.5 127t-72.5 40
q-96 0 -96 -166q0 -87 23.5 -127t72.5 -40z" />
    <glyph glyph-name="uni01A4" unicode="&#x1a4;" horiz-adv-x="741" 
d="M431 693q137 0 213 -57t76 -169q0 -117 -74.5 -176.5t-199.5 -59.5h-75v-231h-164v576h-29q-46 0 -46 -42q0 -26 17 -65l-101 -45q-44 65 -44 120q0 69 49.5 109t133.5 40h244zM432 349q119 0 119 118q0 109 -122 109h-58v-227h61z" />
    <glyph glyph-name="uni01A5" unicode="&#x1a5;" horiz-adv-x="597" 
d="M359 548q102 0 151.5 -73.5t49.5 -207.5q0 -125 -57 -204.5t-154 -79.5q-80 0 -129 55v-243l-158 -17v800q0 80 52.5 130.5t150.5 50.5q79 0 145 -34l-43 -101q-42 18 -83 18q-34 0 -49 -16t-15 -54v-92q57 68 139 68zM301 99q95 0 95 166q0 94 -21.5 130.5t-65.5 36.5
q-52 0 -89 -62v-224q32 -47 81 -47z" />
    <glyph glyph-name="uni01A6" unicode="&#x1a6;" horiz-adv-x="617" 
d="M435 -115l-142 265h-64v-150h-164v693h164v-114h63q285 0 285 -211q0 -68 -32 -112t-101 -76l176 -295h-185zM229 463v-199h69q110 0 110 104q0 49 -29.5 72t-90.5 23h-59z" />
    <glyph glyph-name="uni01A7" unicode="&#x1a7;" horiz-adv-x="563" 
d="M292 710q110 0 177.5 -53.5t67.5 -142.5q0 -79 -50.5 -127.5t-164.5 -84.5q-73 -22 -100 -47.5t-27 -64.5q0 -41 27.5 -62.5t75.5 -21.5q91 0 173 67l82 -91q-106 -99 -266 -99q-119 0 -191 60t-72 156q0 87 51 136.5t155 82.5q81 26 109 48t28 57q0 67 -87 67
q-85 0 -157 -57l-77 88q101 89 246 89z" />
    <glyph glyph-name="uni01A8" unicode="&#x1a8;" horiz-adv-x="474" 
d="M246 548q94 0 149.5 -46t55.5 -116q0 -64 -39 -100t-121 -60q-67 -19 -87.5 -35t-20.5 -43q0 -25 18.5 -38.5t50.5 -13.5q71 0 139 51l76 -85q-86 -79 -221 -79q-98 0 -162.5 47t-64.5 125q0 68 41 105.5t126 61.5q66 19 86 33.5t20 38.5q0 41 -62 41q-67 0 -133 -40
l-58 88q91 65 207 65z" />
    <glyph glyph-name="uni01A9" unicode="&#x1a9;" horiz-adv-x="503" 
d="M482 693v-119h-280l168 -200v-65l-169 -187h281v-122h-461v119l192 221l-192 234v119h461z" />
    <glyph glyph-name="uni01AA" unicode="&#x1aa;" horiz-adv-x="403" 
d="M468 -87l53 -92q-57 -43 -142 -43q-90 0 -143 49t-53 142v460q-31 -11 -62 -11q-70 0 -114 46.5t-44 122.5t50 124t134 48q91 0 142.5 -50.5t51.5 -135.5v-619q0 -61 57 -61q30 0 70 20zM150 527q15 0 33 5v64q0 53 -41 53q-42 0 -42 -59q0 -63 50 -63z" />
    <glyph glyph-name="uni01AB" unicode="&#x1ab;" horiz-adv-x="386" 
d="M350 110l45 -85v-56q0 -94 -50.5 -142t-142.5 -48q-87 0 -145 42l53 94q40 -21 82 -21q65 0 65 61v29q-3 -1 -10 -1q-170 2 -170 192v246h-75v110h75v115l158 18v-133h122l-17 -110h-105v-255q0 -35 13 -50.5t42 -15.5q24 0 60 10z" />
    <glyph glyph-name="uni01AC" unicode="&#x1ac;" horiz-adv-x="595" 
d="M594 693l-17 -126h-170v-567h-164v567h-64q-46 0 -46 -40q0 -23 16 -57l-108 -46q-37 62 -37 119q0 70 50.5 110t139.5 40h400z" />
    <glyph glyph-name="uni01AD" unicode="&#x1ad;" horiz-adv-x="386" 
d="M342 126l53 -101q-60 -42 -144 -42q-174 1 -174 192v246h-75v110h75v45q0 83 48 133t137 50q73 0 132 -38l-46 -92q-38 20 -65 20q-48 0 -48 -62v-56h122l-17 -110h-105v-244q0 -37 12 -53t38 -16q28 0 57 18z" />
    <glyph glyph-name="uni01AE" unicode="&#x1ae;" horiz-adv-x="542" 
d="M406 -103q30 0 70 21l54 -97q-57 -43 -141 -43q-93 0 -147 48.5t-54 142.5v598h-179v126h530l-16 -126h-171v-609q0 -61 54 -61z" />
    <glyph glyph-name="Uhorn" unicode="&#x1af;" horiz-adv-x="725" 
d="M726 773q19 -36 19 -88q0 -62 -39.5 -94t-109.5 -33v-328q0 -110 -70 -178.5t-201 -68.5q-132 0 -201 67t-69 180v463h164v-456q0 -67 25.5 -99.5t80.5 -32.5q56 0 81.5 32.5t25.5 99.5v456h164v-58q41 8 41 55q0 31 -13 68z" />
    <glyph glyph-name="uhorn" unicode="&#x1b0;" horiz-adv-x="643" 
d="M640 609q19 -36 19 -88q0 -62 -39 -93.5t-110 -32.5v-395h-137l-7 67q-58 -84 -161 -84q-73 0 -110.5 44t-37.5 123v381h158v-361q0 -39 12.5 -54.5t38.5 -15.5q50 0 86 62v369h158v-58q41 7 41 54q0 30 -13 67z" />
    <glyph glyph-name="uni01B1" unicode="&#x1b1;" horiz-adv-x="691" 
d="M345 -17q-144 0 -228 89.5t-84 229.5q0 180 132 274h-110v117h235v-111q-45 -50 -65 -112t-20 -168q0 -199 140 -199q141 0 141 199q0 104 -21 166t-64 114v111h236v-117h-111q132 -88 132 -274q0 -138 -85 -228.5t-228 -90.5z" />
    <glyph glyph-name="uni01B2" unicode="&#x1b2;" horiz-adv-x="651" 
d="M444 710q152 0 152 -166v-252q0 -144 -79 -226.5t-212 -82.5q-116 0 -183 64.5t-67 166.5v479h164v-478q0 -52 23 -81t67 -29q123 0 123 185v262q0 39 -31 39q-14 0 -27 -5l-26 107q42 17 96 17z" />
    <glyph glyph-name="uni01B3" unicode="&#x1b3;" horiz-adv-x="633" 
d="M215 0v259l-222 434h179l128 -305l70 178q29 78 70.5 111t111.5 33q66 0 120 -37l-45 -94q-28 16 -54 16q-23 0 -37.5 -12t-28.5 -43l-128 -280v-260h-164z" />
    <glyph glyph-name="uni01B4" unicode="&#x1b4;" horiz-adv-x="525" 
d="M56 -222l-17 111q76 10 112.5 34t58.5 77h-54l-162 531h168l95 -430l72 336q15 77 49 112t100 35q43 0 83 -15l-27 -105q-13 5 -27 5q-33 0 -43 -41l-98 -402q-29 -122 -105.5 -181.5t-204.5 -66.5z" />
    <glyph glyph-name="uni01B5" unicode="&#x1b5;" horiz-adv-x="544" 
d="M197 131h320l-16 -131h-483v116l128 179h-81v104h155l119 167h-290v127h463v-118l-125 -176h80v-104h-154z" />
    <glyph glyph-name="uni01B6" unicode="&#x1b6;" horiz-adv-x="459" 
d="M188 114h253l-14 -114h-414v106l95 119h-68v95h144l78 98h-228v113h402v-105l-84 -106h59v-95h-135z" />
    <glyph glyph-name="uni01B7" unicode="&#x1b7;" horiz-adv-x="547" 
d="M307 403q103 -4 158 -56t55 -142q0 -96 -74 -159t-203 -63q-153 0 -239 102l84 82q66 -62 147 -62q55 0 85.5 28t30.5 79q0 96 -125 96h-99v92l177 174h-261v119h442v-115z" />
    <glyph glyph-name="uni01B8" unicode="&#x1b8;" horiz-adv-x="547" 
d="M458 167l85 -82q-89 -102 -247 -102q-124 0 -197 61.5t-73 158.5q0 87 57.5 141.5t156.5 58.5l-178 175v115h441v-119h-258l175 -176v-90h-100q-124 0 -124 -103q0 -47 29 -73.5t80 -26.5q88 0 153 62z" />
    <glyph glyph-name="uni01B9" unicode="&#x1b9;" horiz-adv-x="510" 
d="M441 -40l81 -79q-87 -103 -238 -103q-122 0 -194 63.5t-72 161.5q0 95 56.5 149t159.5 60l-184 211v108h432v-118h-256l173 -204v-89h-93q-125 0 -125 -108q0 -55 30.5 -84t82.5 -29q77 0 147 61z" />
    <glyph glyph-name="uni01BA" unicode="&#x1ba;" horiz-adv-x="509" 
d="M187 -222q-160 49 -160 152q0 55 42 87t130 48q68 12 96.5 27.5t28.5 46.5q0 49 -80 49h-132v86l157 145h-247v112h431v-102l-172 -149h26q84 0 132 -39t48 -107q0 -139 -199 -172q-69 -12 -91.5 -22.5t-22.5 -27.5q0 -24 51 -47z" />
    <glyph glyph-name="uni01BB" unicode="&#x1bb;" horiz-adv-x="517" 
d="M208 121h277l-16 -121h-440v112l128 128h-96v104h189q59 75 59 137q0 41 -23.5 64.5t-63.5 23.5q-65 0 -123 -70l-93 74q89 117 232 117q109 0 171 -55.5t62 -137.5q0 -78 -51 -153h56v-104h-144q-46 -49 -124 -119z" />
    <glyph glyph-name="uni01BC" unicode="&#x1bc;" horiz-adv-x="543" 
d="M479 693l-18 -113h-251v-150q49 24 106 24q85 0 139.5 -60t54.5 -166q0 -111 -73 -178t-196 -67q-138 0 -228 102l88 82q55 -65 135 -65q53 0 82.5 32t29.5 94q0 118 -95 118q-39 0 -87 -24h-108v371h421z" />
    <glyph glyph-name="uni01BD" unicode="&#x1bd;" horiz-adv-x="479" 
d="M419 531l-22 -115h-197v-83q33 15 82 15q72 0 121 -47t49 -127q0 -86 -64 -138.5t-168 -52.5q-119 0 -202 81l79 85q36 -27 60 -37.5t58 -10.5q37 0 58 19.5t21 54.5q0 34 -17.5 50.5t-45.5 16.5q-32 0 -68 -14h-103v303h359z" />
    <glyph glyph-name="uni01BE" unicode="&#x1be;" horiz-adv-x="512" 
d="M331 433q149 -45 149 -211q0 -108 -68 -173.5t-180 -65.5q-130 0 -227 92l78 80q62 -55 128 -55q51 0 79 32t28 91q0 64 -29 101t-92 53l-56 12v140h-70v93h70v120l158 16v-136h97v-93h-97v-89z" />
    <glyph glyph-name="uni01BF" unicode="&#x1bf;" horiz-adv-x="592" 
d="M379 548q79 0 130 -53t51 -143q0 -65 -19.5 -116t-60.5 -90.5t-84.5 -67t-110.5 -60.5l-65 -33v-190l-158 -17v753h139l9 -64q66 81 169 81zM258 124q138 89 138 226q0 84 -70 84q-58 0 -106 -51v-283z" />
    <glyph glyph-name="uni01C0" unicode="&#x1c0;" horiz-adv-x="266" 
d="M202 756v-756h-137v742z" />
    <glyph glyph-name="uni01C1" unicode="&#x1c1;" horiz-adv-x="469" 
d="M202 756v-756h-137v742zM405 756v-756h-137v742z" />
    <glyph glyph-name="uni01C2" unicode="&#x1c2;" horiz-adv-x="330" 
d="M324 397h-90v-59h90v-90h-90v-248h-137v248h-92v90h92v59h-92v90h92v255l137 14v-269h90v-90z" />
    <glyph glyph-name="uni01C3" unicode="&#x1c3;" horiz-adv-x="310" 
d="M223 756v-521h-137v507zM155 164q37 0 63.5 -26.5t26.5 -63.5q0 -38 -26.5 -64.5t-63.5 -26.5q-38 0 -64 26.5t-26 64.5q0 37 26 63.5t64 26.5z" />
    <glyph glyph-name="uni01C4" unicode="&#x1c4;" horiz-adv-x="1170" 
d="M1035 944l56 -65l-141 -129h-96l-142 129l57 65l133 -84zM258 693q60 0 109 -8t97.5 -30.5t81 -60t52.5 -99.5t20 -145q0 -350 -345 -350h-208v693h193zM1138 693v-124l-301 -438h306l-16 -131h-483v123l307 443h-276v127h463zM281 574h-52v-455h54q81 0 123 50.5
t42 180.5q0 68 -12 113.5t-36 69t-52 32.5t-67 9z" />
    <glyph glyph-name="uni01C5" unicode="&#x1c5;" horiz-adv-x="1100" 
d="M1007 813l56 -65l-141 -137h-96l-142 137l57 65l133 -91zM258 693q60 0 109 -8t97.5 -30.5t81 -60t52.5 -99.5t20 -145q0 -350 -345 -350h-208v693h193zM281 574h-52v-455h54q81 0 123 50.5t42 180.5q0 68 -12 113.5t-36 69t-52 32.5t-67 9zM1077 531v-111l-240 -300h245
l-14 -120h-414v112l241 300h-220v119h402z" />
    <glyph glyph-name="uni01C6" unicode="&#x1c6;" horiz-adv-x="1059" 
d="M881 611h-96l-142 137l57 65l133 -91l133 91l56 -65zM380 498v261l158 -17v-742h-140l-8 62q-56 -79 -151 -79q-99 0 -150.5 76t-51.5 208q0 124 60 202.5t157 78.5q76 0 126 -50zM796 120h245l-14 -120h-414v112l241 300h-220v119h402v-111zM288 99q54 0 92 60v229
q-39 45 -83 45t-70 -41t-26 -126q0 -93 22.5 -130t64.5 -37z" />
    <glyph glyph-name="uni01C7" unicode="&#x1c7;" horiz-adv-x="807" 
d="M229 693v-563h270l-17 -130h-417v693h164zM746 693v-588q0 -63 -17.5 -110.5t-51 -78.5t-69.5 -50t-85 -35l-44 116q63 25 83 61t20 103v582h164z" />
    <glyph glyph-name="uni01C8" unicode="&#x1c8;" horiz-adv-x="779" 
d="M638 811q41 0 67.5 -25.5t26.5 -64.5t-26.5 -64.5t-67.5 -25.5t-67 25.5t-26 64.5t26 64.5t67 25.5zM229 693v-563h270l-17 -130h-417v693h164zM717 531v-471q0 -63 -15 -110t-45.5 -79t-66 -53t-86.5 -39l-53 115q58 26 83 57.5t25 98.5v481h158z" />
    <glyph glyph-name="uni01C9" unicode="&#x1c9;" horiz-adv-x="578" 
d="M437 811q41 0 67.5 -25.5t26.5 -64.5t-26.5 -64.5t-67.5 -25.5t-67 25.5t-26 64.5t26 64.5t67 25.5zM203 -17q-69 0 -107.5 39.5t-38.5 112.5v607l158 17v-618q0 -33 27 -33q14 0 26 5l31 -112q-43 -18 -96 -18zM516 531v-471q0 -63 -15 -110t-45.5 -79t-66 -53
t-86.5 -39l-53 115q58 26 83 57.5t25 98.5v481h158z" />
    <glyph glyph-name="uni01CA" unicode="&#x1ca;" horiz-adv-x="980" 
d="M599 693v-693h-209l-200 537q21 -165 21 -283v-254h-146v693h204l205 -538q-22 137 -22 258v280h147zM919 693v-588q0 -63 -17.5 -110.5t-51 -78.5t-69.5 -50t-85 -35l-44 116q63 25 83 61t20 103v582h164z" />
    <glyph glyph-name="uni01CB" unicode="&#x1cb;" horiz-adv-x="944" 
d="M803 811q41 0 67.5 -25.5t26.5 -64.5t-26.5 -64.5t-67.5 -25.5t-67 25.5t-26 64.5t26 64.5t67 25.5zM599 693v-693h-209l-200 537q21 -165 21 -283v-254h-146v693h204l205 -538q-22 137 -22 258v280h147zM882 531v-471q0 -63 -15 -110t-45.5 -79t-66 -53t-86.5 -39
l-53 115q58 26 83 57.5t25 98.5v481h158z" />
    <glyph glyph-name="uni01CC" unicode="&#x1cc;" horiz-adv-x="858" 
d="M717 631q-41 0 -67 25.5t-26 64.5t26 64.5t67 25.5t67.5 -25.5t26.5 -64.5t-26.5 -64.5t-67.5 -25.5zM373 548q69 0 108 -42t39 -118v-388h-158v361q0 40 -12.5 55.5t-37.5 15.5q-48 0 -92 -69v-363h-158v531h138l11 -63q68 80 162 80zM638 50v481h158v-471
q0 -63 -15 -110t-45.5 -79t-66 -53t-86.5 -39l-53 115q58 26 83 57.5t25 98.5z" />
    <glyph glyph-name="uni01CD" unicode="&#x1cd;" horiz-adv-x="590" 
d="M344 750h-96l-142 129l57 65l133 -84l133 84l56 -65zM430 0l-36 149h-202l-35 -149h-170l209 693h199l209 -693h-174zM220 268h146l-73 306z" />
    <glyph glyph-name="uni01CE" unicode="&#x1ce;" horiz-adv-x="548" 
d="M319 611h-96l-142 137l57 65l133 -91l133 91l56 -65zM484 154q0 -30 8.5 -44t27.5 -21l-33 -103q-49 4 -80 21.5t-48 55.5q-52 -80 -160 -80q-79 0 -126 46t-47 120q0 87 64 133t185 46h54v23q0 47 -20 64.5t-70 17.5q-57 0 -139 -28l-36 104q105 39 200 39
q114 0 167 -47t53 -141v-206zM245 96q54 0 84 51v94h-39q-107 0 -107 -78q0 -32 16.5 -49.5t45.5 -17.5z" />
    <glyph glyph-name="uni01CF" unicode="&#x1cf;" horiz-adv-x="293" 
d="M279 944l56 -65l-141 -129h-96l-142 129l57 65l133 -84zM229 693v-693h-164v693h164z" />
    <glyph glyph-name="uni01D0" unicode="&#x1d0;" horiz-adv-x="282" 
d="M274 813l56 -65l-141 -137h-96l-142 137l57 65l133 -91zM220 531v-531h-158v531h158z" />
    <glyph glyph-name="uni01D1" unicode="&#x1d1;" horiz-adv-x="691" 
d="M478 944l56 -65l-141 -129h-96l-142 129l57 65l133 -84zM345 710q148 0 230.5 -95t82.5 -268q0 -170 -83 -267t-230 -97t-229.5 95.5t-82.5 268.5q0 170 83 266.5t229 96.5zM345 590q-71 0 -105.5 -57.5t-34.5 -185.5t35 -186t105 -58q72 0 106.5 57.5t34.5 186.5
t-35 186t-106 57z" />
    <glyph glyph-name="uni01D2" unicode="&#x1d2;" horiz-adv-x="584" 
d="M425 813l56 -65l-141 -137h-96l-142 137l57 65l133 -91zM292 548q122 0 191 -74.5t69 -208.5q0 -129 -69.5 -205.5t-190.5 -76.5t-190.5 74.5t-69.5 208.5q0 129 69.5 205.5t190.5 76.5zM292 432q-96 0 -96 -166q0 -87 23.5 -127t72.5 -40q96 0 96 166q0 87 -23.5 127
t-72.5 40z" />
    <glyph glyph-name="uni01D3" unicode="&#x1d3;" horiz-adv-x="651" 
d="M458 944l56 -65l-141 -129h-96l-142 129l57 65l133 -84zM596 693v-463q0 -110 -70 -178.5t-201 -68.5q-132 0 -201 67t-69 180v463h164v-456q0 -67 25.5 -99.5t80.5 -32.5q56 0 81.5 32.5t25.5 99.5v456h164z" />
    <glyph glyph-name="uni01D4" unicode="&#x1d4;" horiz-adv-x="572" 
d="M417 813l56 -65l-141 -137h-96l-142 137l57 65l133 -91zM510 531v-531h-137l-7 67q-58 -84 -161 -84q-73 0 -110.5 44t-37.5 123v381h158v-361q0 -39 12.5 -54.5t38.5 -15.5q50 0 86 62v369h158z" />
    <glyph glyph-name="uni01D5" unicode="&#x1d5;" horiz-adv-x="651" 
d="M480 940h-305v110h305v-110zM209 903q34 0 57.5 -23t23.5 -56t-23.5 -56t-57.5 -23t-57.5 23t-23.5 56t23.5 56t57.5 23zM440 903q35 0 58 -23t23 -56t-23 -56t-58 -23q-33 0 -56.5 23t-23.5 56t23.5 56t56.5 23zM596 693v-463q0 -110 -70 -178.5t-201 -68.5
q-132 0 -201 67t-69 180v463h164v-456q0 -67 25.5 -99.5t80.5 -32.5q56 0 81.5 32.5t25.5 99.5v456h164z" />
    <glyph glyph-name="uni01D6" unicode="&#x1d6;" horiz-adv-x="572" 
d="M435 801h-305v110h305v-110zM167 760q34 0 57.5 -23t23.5 -56t-23.5 -56t-57.5 -23t-57.5 23t-23.5 56t23.5 56t57.5 23zM398 760q35 0 58 -23t23 -56t-23 -56t-58 -23q-33 0 -56.5 23t-23.5 56t23.5 56t56.5 23zM510 531v-531h-137l-7 67q-58 -84 -161 -84
q-73 0 -110.5 44t-37.5 123v381h158v-361q0 -39 12.5 -54.5t38.5 -15.5q50 0 86 62v369h158z" />
    <glyph glyph-name="uni01D7" unicode="&#x1d7;" horiz-adv-x="651" 
d="M397 1097l86 -84l-158 -141l-60 54zM203 906q33 0 57 -23t24 -56t-24 -56t-57 -23q-34 0 -57.5 23t-23.5 56t23.5 56t57.5 23zM447 906q34 0 57.5 -23t23.5 -56t-23.5 -56t-57.5 -23t-57.5 23t-23.5 56t23.5 56t57.5 23zM596 693v-463q0 -110 -70 -178.5t-201 -68.5
q-132 0 -201 67t-69 180v463h164v-456q0 -67 25.5 -99.5t80.5 -32.5q56 0 81.5 32.5t25.5 99.5v456h164z" />
    <glyph glyph-name="uni01D8" unicode="&#x1d8;" horiz-adv-x="572" 
d="M356 950l86 -84l-158 -141l-60 54zM162 759q33 0 57 -23t24 -56t-24 -56t-57 -23q-34 0 -57.5 23t-23.5 56t23.5 56t57.5 23zM406 759q34 0 57.5 -23t23.5 -56t-23.5 -56t-57.5 -23t-57.5 23t-23.5 56t23.5 56t57.5 23zM510 531v-531h-137l-7 67q-58 -84 -161 -84
q-73 0 -110.5 44t-37.5 123v381h158v-361q0 -39 12.5 -54.5t38.5 -15.5q50 0 86 62v369h158z" />
    <glyph glyph-name="uni01D9" unicode="&#x1d9;" horiz-adv-x="651" 
d="M456 1100l56 -65l-141 -129h-96l-142 129l57 65l133 -84zM202 906q34 0 57.5 -23t23.5 -56t-23.5 -56t-57.5 -23t-57.5 23t-23.5 56t23.5 56t57.5 23zM446 906q34 0 57.5 -23t23.5 -56t-23.5 -56t-57.5 -23t-57 23t-23 56t23 56t57 23zM596 693v-463q0 -110 -70 -178.5
t-201 -68.5q-132 0 -201 67t-69 180v463h164v-456q0 -67 25.5 -99.5t80.5 -32.5q56 0 81.5 32.5t25.5 99.5v456h164z" />
    <glyph glyph-name="uni01DA" unicode="&#x1da;" horiz-adv-x="572" 
d="M417 953l56 -65l-141 -129h-96l-142 129l57 65l133 -84zM162 759q34 0 57 -23t23 -56t-23 -56t-57 -23t-57.5 23t-23.5 56t23.5 56t57.5 23zM405 759q34 0 57.5 -23t23.5 -56t-23.5 -56t-57.5 -23q-33 0 -56.5 23t-23.5 56t23.5 56t56.5 23zM510 531v-531h-137l-7 67
q-58 -84 -161 -84q-73 0 -110.5 44t-37.5 123v381h158v-361q0 -39 12.5 -54.5t38.5 -15.5q50 0 86 62v369h158z" />
    <glyph glyph-name="uni01DB" unicode="&#x1db;" horiz-adv-x="651" 
d="M256 1097l131 -171l-59 -54l-158 141zM203 906q34 0 57.5 -23t23.5 -56t-23.5 -56t-57.5 -23t-57.5 23t-23.5 56t23.5 56t57.5 23zM447 906q34 0 57.5 -23t23.5 -56t-23.5 -56t-57.5 -23t-57.5 23t-23.5 56t23.5 56t57.5 23zM596 693v-463q0 -110 -70 -178.5t-201 -68.5
q-132 0 -201 67t-69 180v463h164v-456q0 -67 25.5 -99.5t80.5 -32.5q56 0 81.5 32.5t25.5 99.5v456h164z" />
    <glyph glyph-name="uni01DC" unicode="&#x1dc;" horiz-adv-x="572" 
d="M215 950l131 -171l-59 -54l-158 141zM162 759q34 0 57.5 -23t23.5 -56t-23.5 -56t-57.5 -23t-57.5 23t-23.5 56t23.5 56t57.5 23zM406 759q34 0 57.5 -23t23.5 -56t-23.5 -56t-57.5 -23t-57.5 23t-23.5 56t23.5 56t57.5 23zM510 531v-531h-137l-7 67q-58 -84 -161 -84
q-73 0 -110.5 44t-37.5 123v381h158v-361q0 -39 12.5 -54.5t38.5 -15.5q50 0 86 62v369h158z" />
    <glyph glyph-name="uni01DD" unicode="&#x1dd;" horiz-adv-x="556" 
d="M269 548q128 0 191.5 -75.5t63.5 -206.5q0 -125 -66.5 -204t-184.5 -79q-113 0 -179.5 72t-66.5 200q0 31 3 57h341q-9 124 -108 124q-71 0 -134 -44l-66 88q86 68 206 68zM273 95q45 0 69.5 28.5t28.5 93.5h-195v-7q1 -54 26 -84.5t71 -30.5z" />
    <glyph glyph-name="uni01DE" unicode="&#x1de;" horiz-adv-x="590" 
d="M451 1050v-110h-305v110h305zM180 745q-34 0 -57.5 23t-23.5 56t23.5 56t57.5 23t57.5 -23t23.5 -56t-23.5 -56t-57.5 -23zM331 824q0 33 23.5 56t56.5 23q35 0 58 -23t23 -56t-23 -56t-58 -23q-33 0 -56.5 23t-23.5 56zM430 0l-36 149h-202l-35 -149h-170l209 693h199
l209 -693h-174zM220 268h146l-73 306z" />
    <glyph glyph-name="uni01DF" unicode="&#x1df;" horiz-adv-x="548" 
d="M422 911v-110h-305v110h305zM154 602q-34 0 -57.5 23t-23.5 56t23.5 56t57.5 23t57.5 -23t23.5 -56t-23.5 -56t-57.5 -23zM305 681q0 33 23.5 56t56.5 23q35 0 58 -23t23 -56t-23 -56t-58 -23q-33 0 -56.5 23t-23.5 56zM484 154q0 -30 8.5 -44t27.5 -21l-33 -103
q-49 4 -80 21.5t-48 55.5q-52 -80 -160 -80q-79 0 -126 46t-47 120q0 87 64 133t185 46h54v23q0 47 -20 64.5t-70 17.5q-57 0 -139 -28l-36 104q105 39 200 39q114 0 167 -47t53 -141v-206zM245 96q54 0 84 51v94h-39q-107 0 -107 -78q0 -32 16.5 -49.5t45.5 -17.5z" />
    <glyph glyph-name="uni01E0" unicode="&#x1e0;" horiz-adv-x="590" 
d="M448 1051v-110h-305v110h305zM201 826q0 39 26 64.5t67 25.5t67.5 -25.5t26.5 -64.5t-26.5 -64.5t-67.5 -25.5t-67 25.5t-26 64.5zM430 0l-36 149h-202l-35 -149h-170l209 693h199l209 -693h-174zM220 268h146l-73 306z" />
    <glyph glyph-name="uni01E1" unicode="&#x1e1;" horiz-adv-x="548" 
d="M423 913v-110h-305v110h305zM177 683q0 39 26 64.5t67 25.5t67.5 -25.5t26.5 -64.5t-26.5 -64.5t-67.5 -25.5t-67 25.5t-26 64.5zM484 154q0 -30 8.5 -44t27.5 -21l-33 -103q-49 4 -80 21.5t-48 55.5q-52 -80 -160 -80q-79 0 -126 46t-47 120q0 87 64 133t185 46h54v23
q0 47 -20 64.5t-70 17.5q-57 0 -139 -28l-36 104q105 39 200 39q114 0 167 -47t53 -141v-206zM245 96q54 0 84 51v94h-39q-107 0 -107 -78q0 -32 16.5 -49.5t45.5 -17.5z" />
    <glyph glyph-name="uni01E2" unicode="&#x1e2;" horiz-adv-x="845" 
d="M635 891v-110h-305v110h305zM582 118h230v-118h-368l-26 149h-215l-50 -149h-176l272 693h526l-17 -117h-270l34 -168h244v-115h-220zM243 268h155l-53 305z" />
    <glyph glyph-name="uni01E3" unicode="&#x1e3;" horiz-adv-x="855" 
d="M581 765v-110h-305v110h305zM828 276q0 -33 -3 -57h-329q7 -67 37.5 -94t83.5 -27q59 0 127 47l65 -88q-93 -74 -207 -74q-140 0 -211 91q-64 -91 -188 -91q-81 0 -129 46t-48 120q0 87 65.5 133t189.5 46h54v22q0 46 -20.5 64t-69.5 18q-57 0 -139 -28l-36 105
q105 39 200 39q111 0 163 -67q64 67 162 67q106 0 169.5 -72.5t63.5 -199.5zM672 314v7q0 122 -86 122q-40 0 -62.5 -30t-27.5 -99h176zM253 96q52 0 95 64q-9 31 -11 74v4h-40q-53 0 -78.5 -18.5t-25.5 -59.5q0 -30 15.5 -47t44.5 -17z" />
    <glyph glyph-name="uni01E4" unicode="&#x1e4;" horiz-adv-x="665" 
d="M663 271v-95h-63v-120q-113 -73 -250 -73q-157 0 -237 92.5t-80 271.5q0 171 93.5 267t237.5 96q133 0 232 -85l-82 -87q-71 53 -142 53q-77 0 -123 -60.5t-46 -183.5q0 -133 35 -188.5t109 -55.5q53 0 106 22v51h-108v95h108v43h-104l-14 100h265v-143h63z" />
    <glyph glyph-name="uni01E5" unicode="&#x1e5;" horiz-adv-x="551" 
d="M587 -20v-67h-54q-17 -65 -86.5 -100t-186.5 -35q-143 0 -198.5 43t-55.5 128h142q0 -41 23 -56.5t93 -15.5q105 0 128 36h-124v67h123q-21 30 -88 30h-77q-82 0 -122.5 26.5t-40.5 68.5q0 57 63 97q-95 50 -95 152q0 89 64 141.5t169 52.5q80 -2 135.5 16t114.5 53
l37 -117q-52 -21 -153 -21q52 -22 76 -54t24 -83q0 -79 -60.5 -128.5t-162.5 -49.5q-33 0 -61 6q-17 -9 -17 -30q0 -14 11.5 -21.5t46.5 -7.5h80q83 0 136.5 -35.5t64.5 -95.5h51zM268 444q-37 0 -58.5 -23.5t-21.5 -64.5q0 -43 21.5 -66.5t58.5 -23.5q80 0 80 92
q0 86 -80 86z" />
    <glyph glyph-name="Gcaron" unicode="&#x1e6;" horiz-adv-x="645" 
d="M485 944l56 -65l-141 -129h-96l-142 129l57 65l133 -84zM365 710q134 0 231 -85l-83 -87q-69 53 -141 53q-77 0 -123 -60.5t-46 -183.5q0 -133 35 -188.5t109 -55.5q52 0 94 23v157h-90l-16 116h265v-343q-114 -73 -249 -73q-158 0 -238 92.5t-80 271.5q0 171 93.5 267
t238.5 96z" />
    <glyph glyph-name="gcaron" unicode="&#x1e7;" horiz-adv-x="551" 
d="M409 813l56 -65l-141 -137h-96l-142 137l57 65l133 -91zM514 617l37 -117q-52 -21 -153 -21q52 -22 76 -54t24 -83q0 -79 -60.5 -128.5t-162.5 -49.5q-33 0 -61 6q-17 -9 -17 -30q0 -32 58 -32h80q92 0 147.5 -43t55.5 -111q0 -83 -71.5 -129.5t-206.5 -46.5
q-143 0 -198.5 43t-55.5 128h142q0 -36 23.5 -51t92.5 -15q65 0 90 15.5t25 44.5q0 52 -76 52h-77q-82 0 -122.5 29.5t-40.5 75.5q0 62 63 102q-95 50 -95 152q0 89 64 141.5t169 52.5q80 -2 135.5 16t114.5 53zM268 444q-37 0 -58.5 -23.5t-21.5 -64.5q0 -43 21.5 -66.5
t58.5 -23.5q80 0 80 92q0 86 -80 86z" />
    <glyph glyph-name="uni01E8" unicode="&#x1e8;" horiz-adv-x="633" 
d="M462 944l56 -65l-141 -129h-96l-142 129l57 65l133 -84zM229 693v-693h-164v693h164zM627 693l-221 -311l239 -382h-190l-221 370l220 323h173z" />
    <glyph glyph-name="uni01E9" unicode="&#x1e9;" horiz-adv-x="552" 
d="M430 993l56 -65l-141 -129h-96l-142 129l57 65l133 -84zM220 759v-759h-158v742zM548 531l-161 -233l174 -298h-178l-158 290l162 241h161z" />
    <glyph glyph-name="uni01EA" unicode="&#x1ea;" horiz-adv-x="691" 
d="M658 347q0 -134 -53 -224.5t-149 -122.5q-118 -44 -118 -102q0 -46 53 -46q24 0 61 8l-11 -98q-35 -8 -70 -8q-65 0 -106 32t-41 85q0 70 63 116q-121 19 -187.5 112.5t-66.5 247.5q0 170 83 266.5t229 96.5q148 0 230.5 -95t82.5 -268zM345 103q72 0 106.5 57.5
t34.5 186.5t-35 186t-106 57t-105.5 -57.5t-34.5 -185.5t35 -186t105 -58z" />
    <glyph glyph-name="uni01EB" unicode="&#x1eb;" horiz-adv-x="584" 
d="M378 -5q-105 -42 -105 -97q0 -46 53 -46q24 0 61 8l-11 -98q-35 -8 -70 -8q-65 0 -106 32t-41 85q0 72 66 119q-92 19 -142.5 90.5t-50.5 185.5q0 129 69.5 205.5t190.5 76.5q122 0 191 -74.5t69 -208.5q0 -103 -46 -174t-128 -96zM292 432q-96 0 -96 -166
q0 -87 23.5 -127t72.5 -40q96 0 96 166q0 87 -23.5 127t-72.5 40z" />
    <glyph glyph-name="uni01EC" unicode="&#x1ec;" horiz-adv-x="691" 
d="M497 891v-110h-305v110h305zM658 347q0 -134 -53 -224.5t-149 -122.5q-118 -44 -118 -102q0 -46 53 -46q24 0 61 8l-11 -98q-35 -8 -70 -8q-65 0 -106 32t-41 85q0 70 63 116q-121 19 -187.5 112.5t-66.5 247.5q0 170 83 266.5t229 96.5q148 0 230.5 -95t82.5 -268z
M345 103q72 0 106.5 57.5t34.5 186.5t-35 186t-106 57t-105.5 -57.5t-34.5 -185.5t35 -186t105 -58z" />
    <glyph glyph-name="uni01ED" unicode="&#x1ed;" horiz-adv-x="584" 
d="M444 765v-110h-305v110h305zM378 -5q-105 -42 -105 -97q0 -46 53 -46q24 0 61 8l-11 -98q-35 -8 -70 -8q-65 0 -106 32t-41 85q0 72 66 119q-92 19 -142.5 90.5t-50.5 185.5q0 129 69.5 205.5t190.5 76.5q122 0 191 -74.5t69 -208.5q0 -103 -46 -174t-128 -96zM292 432
q-96 0 -96 -166q0 -87 23.5 -127t72.5 -40q96 0 96 166q0 87 -23.5 127t-72.5 40z" />
    <glyph glyph-name="uni01EE" unicode="&#x1ee;" horiz-adv-x="547" 
d="M313 750h-96l-142 129l57 65l133 -84l133 84l56 -65zM307 403q103 -4 158 -56t55 -142q0 -96 -74 -159t-203 -63q-153 0 -239 102l84 82q66 -62 147 -62q55 0 85.5 28t30.5 79q0 96 -125 96h-99v92l177 174h-261v119h442v-115z" />
    <glyph glyph-name="uni01EF" unicode="&#x1ef;" horiz-adv-x="510" 
d="M292 611h-96l-142 137l57 65l133 -91l133 91l56 -65zM276 213q216 -14 216 -204q0 -101 -72.5 -166t-196.5 -65q-150 0 -235 103l83 80q68 -62 143 -62q54 0 84.5 30t30.5 90q0 54 -31 77.5t-95 23.5h-92v92l171 201h-255v118h433v-108z" />
    <glyph glyph-name="uni01F0" unicode="&#x1f0;" horiz-adv-x="281" 
d="M274 813l56 -65l-141 -137h-96l-142 137l57 65l133 -91zM219 531v-471q0 -63 -15 -110t-45.5 -79t-66 -53t-86.5 -39l-53 115q58 26 83 57.5t25 98.5v481h158z" />
    <glyph glyph-name="uni01F1" unicode="&#x1f1;" horiz-adv-x="1170" 
d="M258 693q60 0 109 -8t97.5 -30.5t81 -60t52.5 -99.5t20 -145q0 -350 -345 -350h-208v693h193zM1138 693v-124l-301 -438h306l-16 -131h-483v123l307 443h-276v127h463zM281 574h-52v-455h54q81 0 123 50.5t42 180.5q0 68 -12 113.5t-36 69t-52 32.5t-67 9z" />
    <glyph glyph-name="uni01F2" unicode="&#x1f2;" horiz-adv-x="1100" 
d="M258 693q60 0 109 -8t97.5 -30.5t81 -60t52.5 -99.5t20 -145q0 -350 -345 -350h-208v693h193zM281 574h-52v-455h54q81 0 123 50.5t42 180.5q0 68 -12 113.5t-36 69t-52 32.5t-67 9zM1077 531v-111l-240 -300h245l-14 -120h-414v112l241 300h-220v119h402z" />
    <glyph glyph-name="uni01F3" unicode="&#x1f3;" horiz-adv-x="1059" 
d="M380 498v261l158 -17v-742h-140l-8 62q-56 -79 -151 -79q-99 0 -150.5 76t-51.5 208q0 124 60 202.5t157 78.5q76 0 126 -50zM796 120h245l-14 -120h-414v112l241 300h-220v119h402v-111zM288 99q54 0 92 60v229q-39 45 -83 45t-70 -41t-26 -126q0 -93 22.5 -130
t64.5 -37z" />
    <glyph glyph-name="uni01F4" unicode="&#x1f4;" horiz-adv-x="645" 
d="M433 956l59 -118l-240 -87l-40 80zM365 710q134 0 231 -85l-83 -87q-69 53 -141 53q-77 0 -123 -60.5t-46 -183.5q0 -133 35 -188.5t109 -55.5q52 0 94 23v157h-90l-16 116h265v-343q-114 -73 -249 -73q-158 0 -238 92.5t-80 271.5q0 171 93.5 267t238.5 96z" />
    <glyph glyph-name="uni01F5" unicode="&#x1f5;" horiz-adv-x="551" 
d="M348 835l62 -118l-236 -95l-44 81zM514 617l37 -117q-52 -21 -153 -21q52 -22 76 -54t24 -83q0 -79 -60.5 -128.5t-162.5 -49.5q-33 0 -61 6q-17 -9 -17 -30q0 -32 58 -32h80q92 0 147.5 -43t55.5 -111q0 -83 -71.5 -129.5t-206.5 -46.5q-143 0 -198.5 43t-55.5 128h142
q0 -36 23.5 -51t92.5 -15q65 0 90 15.5t25 44.5q0 52 -76 52h-77q-82 0 -122.5 29.5t-40.5 75.5q0 62 63 102q-95 50 -95 152q0 89 64 141.5t169 52.5q80 -2 135.5 16t114.5 53zM268 444q-37 0 -58.5 -23.5t-21.5 -64.5q0 -43 21.5 -66.5t58.5 -23.5q80 0 80 92q0 86 -80 86
z" />
    <glyph glyph-name="uni01F6" unicode="&#x1f6;" horiz-adv-x="951" 
d="M880 531q29 -157 29 -283q0 -132 -76.5 -198.5t-182.5 -66.5q-93 0 -153 49.5t-60 147.5v117h-208v-297h-164v693h164v-268h208v268h164v-510q0 -84 60 -84q37 0 63.5 38.5t26.5 123.5q0 113 -27 270h156z" />
    <glyph glyph-name="uni01F7" unicode="&#x1f7;" horiz-adv-x="600" 
d="M387 710q80 0 135.5 -53t55.5 -140q0 -48 -14.5 -87.5t-37.5 -68t-60.5 -53.5t-74 -42t-87.5 -36l-75 -28v-202h-164v693h164v-43q60 60 158 60zM270 334q139 61 139 174q0 41 -21 62.5t-59 21.5q-56 0 -100 -39v-236z" />
    <glyph glyph-name="uni01F8" unicode="&#x1f8;" horiz-adv-x="663" 
d="M251 956l221 -125l-40 -80l-240 87zM599 693v-693h-209l-200 537q21 -165 21 -283v-254h-146v693h204l205 -538q-22 137 -22 258v280h147z" />
    <glyph glyph-name="uni01F9" unicode="&#x1f9;" horiz-adv-x="577" 
d="M444 703l-44 -81l-236 95l62 118zM373 548q69 0 108 -42t39 -118v-388h-158v361q0 40 -12.5 55.5t-37.5 15.5q-48 0 -92 -69v-363h-158v531h138l11 -63q68 80 162 80z" />
    <glyph glyph-name="Aringacute" unicode="&#x1fa;" horiz-adv-x="590" 
d="M437 1073l-240 -87l-40 80l221 125zM296 720q-63 0 -101 38t-38 93t38 93t101 38t101 -38t38 -93t-38 -93t-101 -38zM296 901q-45 0 -45 -50t45 -50q20 0 32.5 13t12.5 37q0 50 -45 50zM430 0l-36 149h-202l-35 -149h-170l209 693h199l209 -693h-174zM220 268h146
l-73 306z" />
    <glyph glyph-name="aringacute" unicode="&#x1fb;" horiz-adv-x="548" 
d="M411 930l-240 -87l-40 80l221 125zM270 577q-63 0 -101 38t-38 93t38 93t101 38t101 -38t38 -93t-38 -93t-101 -38zM270 758q-45 0 -45 -50t45 -50q20 0 32.5 13t12.5 37q0 50 -45 50zM484 154q0 -30 8.5 -44t27.5 -21l-33 -103q-49 4 -80 21.5t-48 55.5
q-52 -80 -160 -80q-79 0 -126 46t-47 120q0 87 64 133t185 46h54v23q0 47 -20 64.5t-70 17.5q-57 0 -139 -28l-36 104q105 39 200 39q114 0 167 -47t53 -141v-206zM245 96q54 0 84 51v94h-39q-107 0 -107 -78q0 -32 16.5 -49.5t45.5 -17.5z" />
    <glyph glyph-name="AEacute" unicode="&#x1fc;" horiz-adv-x="845" 
d="M623 838l-240 -87l-40 80l221 125zM582 118h230v-118h-368l-26 149h-215l-50 -149h-176l272 693h526l-17 -117h-270l34 -168h244v-115h-220zM243 268h155l-53 305z" />
    <glyph glyph-name="aeacute" unicode="&#x1fd;" horiz-adv-x="855" 
d="M563 717l-236 -95l-44 81l218 132zM828 276q0 -33 -3 -57h-329q7 -67 37.5 -94t83.5 -27q59 0 127 47l65 -88q-93 -74 -207 -74q-140 0 -211 91q-64 -91 -188 -91q-81 0 -129 46t-48 120q0 87 65.5 133t189.5 46h54v22q0 46 -20.5 64t-69.5 18q-57 0 -139 -28l-36 105
q105 39 200 39q111 0 163 -67q64 67 162 67q106 0 169.5 -72.5t63.5 -199.5zM672 314v7q0 122 -86 122q-40 0 -62.5 -30t-27.5 -99h176zM253 96q52 0 95 64q-9 31 -11 74v4h-40q-53 0 -78.5 -18.5t-25.5 -59.5q0 -30 15.5 -47t44.5 -17z" />
    <glyph glyph-name="Oslashacute" unicode="&#x1fe;" horiz-adv-x="691" 
d="M483 872l-240 -87l-40 80l221 125zM514 667q144 -88 144 -320q0 -170 -83 -267t-230 -97q-25 0 -49 3l-36 -120l-124 32l40 129q-143 89 -143 320q0 170 83 266.5t229 96.5q26 0 50 -3l37 121l123 -33zM345 590q-71 0 -105.5 -57.5t-34.5 -185.5q0 -144 38 -199l132 440
q-18 2 -30 2zM345 103q72 0 106.5 57.5t34.5 186.5q0 146 -38 199l-133 -441q20 -2 30 -2z" />
    <glyph glyph-name="oslashacute" unicode="&#x1ff;" horiz-adv-x="584" 
d="M426 717l-236 -95l-44 81l218 132zM438 510q114 -70 114 -245q0 -129 -69.5 -205.5t-190.5 -76.5q-12 0 -34 2l-37 -120l-115 34l39 122q-113 72 -113 245q0 129 69.5 205.5t190.5 76.5q11 0 33 -2l39 121l116 -34zM292 432q-109 0 -109 -166q0 -96 25 -134l100 300h-16z
M292 99q109 0 109 166q0 97 -26 134l-99 -300h16z" />
    <glyph glyph-name="uni0200" unicode="&#x200;" horiz-adv-x="590" 
d="M262 789l-81 -38l-122 182l106 53zM429 789l-83 -33l-113 180l108 50zM430 0l-36 149h-202l-35 -149h-170l209 693h199l209 -693h-174zM220 268h146l-73 306z" />
    <glyph glyph-name="uni0201" unicode="&#x201;" horiz-adv-x="548" 
d="M249 663l-81 -38l-122 182l106 53zM416 663l-83 -33l-113 180l108 50zM484 154q0 -30 8.5 -44t27.5 -21l-33 -103q-49 4 -80 21.5t-48 55.5q-52 -80 -160 -80q-79 0 -126 46t-47 120q0 87 64 133t185 46h54v23q0 47 -20 64.5t-70 17.5q-57 0 -139 -28l-36 104
q105 39 200 39q114 0 167 -47t53 -141v-206zM245 96q54 0 84 51v94h-39q-107 0 -107 -78q0 -32 16.5 -49.5t45.5 -17.5z" />
    <glyph glyph-name="uni0202" unicode="&#x202;" horiz-adv-x="590" 
d="M295 842q-65 0 -85 -78l-87 15q6 76 51 124.5t121 48.5t121.5 -49t51.5 -124l-87 -15q-21 78 -86 78zM430 0l-36 149h-202l-35 -149h-170l209 693h199l209 -693h-174zM220 268h146l-73 306z" />
    <glyph glyph-name="uni0203" unicode="&#x203;" horiz-adv-x="548" 
d="M270 680q-66 0 -85 -78l-87 15q6 76 51 124.5t121 48.5t121.5 -49t51.5 -124l-87 -15q-21 78 -86 78zM484 154q0 -30 8.5 -44t27.5 -21l-33 -103q-49 4 -80 21.5t-48 55.5q-52 -80 -160 -80q-79 0 -126 46t-47 120q0 87 64 133t185 46h54v23q0 47 -20 64.5t-70 17.5
q-57 0 -139 -28l-36 104q105 39 200 39q114 0 167 -47t53 -141v-206zM245 96q54 0 84 51v94h-39q-107 0 -107 -78q0 -32 16.5 -49.5t45.5 -17.5z" />
    <glyph glyph-name="uni0204" unicode="&#x204;" horiz-adv-x="526" 
d="M148 986l97 -197l-81 -38l-122 182zM324 986l88 -197l-83 -33l-113 180zM490 693l-17 -117h-244v-166h213v-115h-213v-177h261v-118h-425v693h425z" />
    <glyph glyph-name="uni0205" unicode="&#x205;" horiz-adv-x="552" 
d="M261 663l-81 -38l-122 182l106 53zM428 663l-83 -33l-113 180l108 50zM525 276q0 -33 -3 -57h-329q8 -67 38 -94t83 -27q59 0 127 47l65 -88q-93 -74 -207 -74q-129 0 -198 76t-69 204q0 124 65.5 204.5t182.5 80.5q115 0 180 -72t65 -200zM370 314v7q-2 122 -86 122
q-41 0 -63.5 -30t-27.5 -99h177z" />
    <glyph glyph-name="uni0206" unicode="&#x206;" horiz-adv-x="526" 
d="M278 952q76 0 121.5 -49t51.5 -124l-87 -15q-21 78 -86 78q-66 0 -85 -78l-87 15q6 76 51 124.5t121 48.5zM490 693l-17 -117h-244v-166h213v-115h-213v-177h261v-118h-425v693h425z" />
    <glyph glyph-name="uni0207" unicode="&#x207;" horiz-adv-x="552" 
d="M282 680q-66 0 -85 -78l-87 15q6 76 51 124.5t121 48.5t121.5 -49t51.5 -124l-87 -15q-21 78 -86 78zM525 276q0 -33 -3 -57h-329q8 -67 38 -94t83 -27q59 0 127 47l65 -88q-93 -74 -207 -74q-129 0 -198 76t-69 204q0 124 65.5 204.5t182.5 80.5q115 0 180 -72t65 -200z
M370 314v7q-2 122 -86 122q-41 0 -63.5 -30t-27.5 -99h177z" />
    <glyph glyph-name="uni0208" unicode="&#x208;" horiz-adv-x="293" 
d="M15 986l97 -197l-81 -38l-122 182zM191 986l88 -197l-83 -33l-113 180zM229 693v-693h-164v693h164z" />
    <glyph glyph-name="uni0209" unicode="&#x209;" horiz-adv-x="282" 
d="M22 860l97 -197l-81 -38l-122 182zM198 860l88 -197l-83 -33l-113 180zM220 531v-531h-158v531h158z" />
    <glyph glyph-name="uni020A" unicode="&#x20a;" horiz-adv-x="293" 
d="M145 952q76 0 121.5 -49t51.5 -124l-87 -15q-21 78 -86 78t-85 -78l-87 15q6 76 51 124.5t121 48.5zM229 693v-693h-164v693h164z" />
    <glyph glyph-name="uni020B" unicode="&#x20b;" horiz-adv-x="282" 
d="M140 790q76 0 121.5 -49t51.5 -124l-87 -15q-21 78 -86 78q-66 0 -85 -78l-87 15q6 76 51 124.5t121 48.5zM220 531v-531h-158v531h158z" />
    <glyph glyph-name="uni020C" unicode="&#x20c;" horiz-adv-x="691" 
d="M214 986l97 -197l-81 -38l-122 182zM390 986l88 -197l-83 -33l-113 180zM345 710q148 0 230.5 -95t82.5 -268q0 -170 -83 -267t-230 -97t-229.5 95.5t-82.5 268.5q0 170 83 266.5t229 96.5zM345 590q-71 0 -105.5 -57.5t-34.5 -185.5t35 -186t105 -58q72 0 106.5 57.5
t34.5 186.5t-35 186t-106 57z" />
    <glyph glyph-name="uni020D" unicode="&#x20d;" horiz-adv-x="584" 
d="M173 860l97 -197l-81 -38l-122 182zM349 860l88 -197l-83 -33l-113 180zM292 548q122 0 191 -74.5t69 -208.5q0 -129 -69.5 -205.5t-190.5 -76.5t-190.5 74.5t-69.5 208.5q0 129 69.5 205.5t190.5 76.5zM292 432q-96 0 -96 -166q0 -87 23.5 -127t72.5 -40q96 0 96 166
q0 87 -23.5 127t-72.5 40z" />
    <glyph glyph-name="uni020E" unicode="&#x20e;" horiz-adv-x="691" 
d="M344 952q76 0 121.5 -49t51.5 -124l-87 -15q-21 78 -86 78q-66 0 -85 -78l-87 15q6 76 51 124.5t121 48.5zM345 710q148 0 230.5 -95t82.5 -268q0 -170 -83 -267t-230 -97t-229.5 95.5t-82.5 268.5q0 170 83 266.5t229 96.5zM345 590q-71 0 -105.5 -57.5t-34.5 -185.5
t35 -186t105 -58q72 0 106.5 57.5t34.5 186.5t-35 186t-106 57z" />
    <glyph glyph-name="uni020F" unicode="&#x20f;" horiz-adv-x="584" 
d="M291 790q76 0 121.5 -49t51.5 -124l-87 -15q-21 78 -86 78t-85 -78l-87 15q6 76 51 124.5t121 48.5zM292 548q122 0 191 -74.5t69 -208.5q0 -129 -69.5 -205.5t-190.5 -76.5t-190.5 74.5t-69.5 208.5q0 129 69.5 205.5t190.5 76.5zM292 432q-96 0 -96 -166
q0 -87 23.5 -127t72.5 -40q96 0 96 166q0 87 -23.5 127t-72.5 40z" />
    <glyph glyph-name="uni0210" unicode="&#x210;" horiz-adv-x="617" 
d="M267 789l-81 -38l-122 182l106 53zM434 789l-83 -33l-113 180l108 50zM435 0l-142 265h-64v-265h-164v693h227q285 0 285 -211q0 -67 -32 -111.5t-101 -75.5l176 -295h-185zM229 578v-200h69q110 0 110 104q0 50 -29.5 73t-90.5 23h-59z" />
    <glyph glyph-name="uni0211" unicode="&#x211;" horiz-adv-x="401" 
d="M212 663l-81 -38l-122 182l106 53zM379 663l-83 -33l-113 180l108 50zM350 546q29 0 53 -7l-25 -153q-30 7 -48 7q-47 0 -71.5 -32.5t-38.5 -97.5v-263h-158v531h138l13 -103q18 55 54.5 86.5t82.5 31.5z" />
    <glyph glyph-name="uni0212" unicode="&#x212;" horiz-adv-x="617" 
d="M300 842q-66 0 -85 -78l-87 15q6 76 51 124.5t121 48.5t121.5 -49t51.5 -124l-87 -15q-21 78 -86 78zM435 0l-142 265h-64v-265h-164v693h227q285 0 285 -211q0 -67 -32 -111.5t-101 -75.5l176 -295h-185zM229 578v-200h69q110 0 110 104q0 50 -29.5 73t-90.5 23h-59z
" />
    <glyph glyph-name="uni0213" unicode="&#x213;" horiz-adv-x="401" 
d="M233 680q-65 0 -85 -78l-87 15q6 76 51 124.5t121 48.5t121.5 -49t51.5 -124l-87 -15q-21 78 -86 78zM213 428q18 55 54.5 86.5t82.5 31.5q29 0 53 -7l-25 -153q-30 7 -48 7q-47 0 -71.5 -32.5t-38.5 -97.5v-263h-158v531h138z" />
    <glyph glyph-name="uni0214" unicode="&#x214;" horiz-adv-x="651" 
d="M194 986l97 -197l-81 -38l-122 182zM370 986l88 -197l-83 -33l-113 180zM596 693v-463q0 -110 -70 -178.5t-201 -68.5q-132 0 -201 67t-69 180v463h164v-456q0 -67 25.5 -99.5t80.5 -32.5q56 0 81.5 32.5t25.5 99.5v456h164z" />
    <glyph glyph-name="uni0215" unicode="&#x215;" horiz-adv-x="572" 
d="M165 860l97 -197l-81 -38l-122 182zM341 860l88 -197l-83 -33l-113 180zM510 531v-531h-137l-7 67q-58 -84 -161 -84q-73 0 -110.5 44t-37.5 123v381h158v-361q0 -39 12.5 -54.5t38.5 -15.5q50 0 86 62v369h158z" />
    <glyph glyph-name="uni0216" unicode="&#x216;" horiz-adv-x="651" 
d="M324 952q76 0 121.5 -49t51.5 -124l-87 -15q-21 78 -86 78q-66 0 -85 -78l-87 15q6 76 51 124.5t121 48.5zM596 693v-463q0 -110 -70 -178.5t-201 -68.5q-132 0 -201 67t-69 180v463h164v-456q0 -67 25.5 -99.5t80.5 -32.5q56 0 81.5 32.5t25.5 99.5v456h164z" />
    <glyph glyph-name="uni0217" unicode="&#x217;" horiz-adv-x="572" 
d="M283 790q76 0 121.5 -49t51.5 -124l-87 -15q-21 78 -86 78t-85 -78l-87 15q6 76 51 124.5t121 48.5zM510 531v-531h-137l-7 67q-58 -84 -161 -84q-73 0 -110.5 44t-37.5 123v381h158v-361q0 -39 12.5 -54.5t38.5 -15.5q50 0 86 62v369h158z" />
    <glyph glyph-name="Scommaaccent" unicode="&#x218;" horiz-adv-x="572" 
d="M288 710q146 0 240 -89l-76 -89q-71 58 -152 58q-43 0 -68 -17.5t-25 -50.5t26.5 -51.5t107.5 -44.5q106 -34 156 -83.5t50 -140.5q0 -98 -73.5 -158.5t-201.5 -60.5q-160 0 -263 99l83 91q81 -68 175 -68q51 0 80.5 22.5t29.5 62.5q0 39 -26 60.5t-101 44.5
q-115 35 -163.5 86t-48.5 129q0 90 70 145t180 55zM284 -68q34 0 56.5 -22t22.5 -55q0 -30 -27 -84l-46 -96h-79l27 115q-33 26 -33 65q0 32 22.5 54.5t56.5 22.5z" />
    <glyph glyph-name="scommaaccent" unicode="&#x219;" horiz-adv-x="483" 
d="M249 548q115 0 195 -65l-58 -89q-65 41 -131 41q-64 0 -64 -40q0 -22 20 -35t89 -33q83 -24 123.5 -62.5t40.5 -106.5q0 -80 -67 -127.5t-169 -47.5q-135 0 -222 79l77 86q67 -52 141 -52q36 0 56.5 13t20.5 37q0 27 -20 40.5t-92 33.5q-157 45 -157 166q0 70 59.5 116
t157.5 46zM243 -68q34 0 56.5 -22t22.5 -55q0 -30 -27 -84l-46 -96h-79l27 115q-33 26 -33 65q0 32 22.5 54.5t56.5 22.5z" />
    <glyph glyph-name="uni021A" unicode="&#x21a;" horiz-adv-x="540" 
d="M539 693l-16 -126h-171v-567h-164v567h-179v126h530zM271 -68q34 0 56.5 -22t22.5 -55q0 -30 -27 -84l-46 -96h-79l27 115q-33 26 -33 65q0 32 22.5 54.5t56.5 22.5z" />
    <glyph glyph-name="uni021B" unicode="&#x21b;" horiz-adv-x="386" 
d="M395 25q-60 -42 -144 -42q-174 1 -174 192v246h-75v110h75v115l158 18v-133h122l-17 -110h-105v-244q0 -37 12 -53t38 -16q27 0 57 17zM235 -68q34 0 56.5 -22t22.5 -55q0 -30 -27 -84l-46 -96h-79l27 115q-33 26 -33 65q0 32 22.5 54.5t56.5 22.5z" />
    <glyph glyph-name="uni021C" unicode="&#x21c;" horiz-adv-x="520" 
d="M236 710q109 0 173 -52t64 -135q0 -134 -155 -165q176 -20 176 -163q0 -106 -103 -187t-322 -121l-13 121q154 40 210 85t56 109q0 94 -124 94h-73l20 118h56q50 0 77 23.5t27 67.5q0 86 -91 86q-69 0 -140 -56l-76 83q97 92 238 92z" />
    <glyph glyph-name="uni021D" unicode="&#x21d;" horiz-adv-x="481" 
d="M214 548q90 0 149 -40.5t59 -111.5q0 -93 -116 -123q69 -4 106 -34.5t37 -83.5q0 -87 -101.5 -156t-288.5 -106l-15 104q129 39 184.5 75.5t56.5 86.5q0 53 -70 53h-95l10 102h51q82 0 82 66q0 59 -71 59q-60 0 -117 -35l-72 82q88 62 211 62z" />
    <glyph glyph-name="uni021E" unicode="&#x21e;" horiz-adv-x="666" 
d="M466 944l56 -65l-141 -129h-96l-142 129l57 65l133 -84zM437 0v297h-208v-297h-164v693h164v-268h208v268h164v-693h-164z" />
    <glyph glyph-name="uni021F" unicode="&#x21f;" horiz-adv-x="577" 
d="M336 799h-96l-142 129l57 65l133 -84l133 84l56 -65zM373 548q69 0 108 -42t39 -118v-388h-158v361q0 40 -13 55.5t-37 15.5q-48 0 -92 -68v-364h-158v742l158 16v-284q65 74 153 74z" />
    <glyph glyph-name="uni0220" unicode="&#x220;" horiz-adv-x="654" 
d="M415 710q89 0 134.5 -51t45.5 -134v-735h-164v709q0 89 -73 89q-38 0 -67 -16t-62 -52v-520h-164v693h143l13 -66q44 43 89 63t105 20z" />
    <glyph glyph-name="uni0221" unicode="&#x221;" horiz-adv-x="788" 
d="M675 245q52 0 86.5 -31t34.5 -83q0 -72 -53.5 -110t-138.5 -38q-27 0 -50 4l-31 -71l-78 30l31 66q-48 26 -71 70q-62 -99 -166 -99q-99 0 -150.5 76t-51.5 208q0 125 59.5 203t160.5 78q73 0 123 -50v261l158 -17v-552q0 -28 4 -43q24 52 55 75t78 23zM289 99
q54 0 93 62q-2 22 -2 33v194q-39 45 -82 45q-97 0 -97 -167q0 -93 22.5 -130t65.5 -37zM627 97q59 0 59 36q0 27 -27 27q-17 0 -28.5 -13t-27.5 -49q7 -1 24 -1z" />
    <glyph glyph-name="uni0222" unicode="&#x222;" horiz-adv-x="651" 
d="M487 400q131 -50 131 -182q0 -98 -80 -166.5t-213 -68.5t-212.5 67t-79.5 167q0 129 130 181q-89 48 -89 153v142h164v-149q0 -47 20 -71t68 -24q88 0 88 95v149h164v-142q0 -102 -91 -151zM325 103q121 0 121 117q0 53 -31 83.5t-90 30.5q-58 0 -89 -30.5t-31 -84.5
q0 -55 31 -85.5t89 -30.5z" />
    <glyph glyph-name="uni0223" unicode="&#x223;" horiz-adv-x="578" 
d="M427 417q119 -48 119 -192q0 -104 -68.5 -173t-188.5 -69t-188.5 68t-68.5 174q0 141 117 190q-79 43 -79 140v187h156v-212q0 -71 63 -71q35 0 49.5 17.5t14.5 53.5v212h156v-187q0 -92 -82 -138zM289 99q50 0 72 31t22 97q0 128 -94 128t-94 -129q0 -127 94 -127z" />
    <glyph glyph-name="uni0224" unicode="&#x224;" horiz-adv-x="538" 
d="M512 693v-124l-301 -438h299v-162q0 -94 -54 -142.5t-147 -48.5q-85 0 -141 43l53 97q42 -21 74 -21q58 0 58 61v42h-335v123l307 443h-276v127h463z" />
    <glyph glyph-name="uni0225" unicode="&#x225;" horiz-adv-x="453" 
d="M436 531v-111l-240 -300h239v-151q0 -93 -53 -142t-145 -49q-83 0 -140 43l53 93q42 -21 75 -21q59 0 59 61v46h-271v112l241 300h-220v119h402z" />
    <glyph glyph-name="uni0226" unicode="&#x226;" horiz-adv-x="590" 
d="M295 757q-41 0 -67 25.5t-26 64.5t26 64.5t67 25.5t67.5 -25.5t26.5 -64.5t-26.5 -64.5t-67.5 -25.5zM430 0l-36 149h-202l-35 -149h-170l209 693h199l209 -693h-174zM220 268h146l-73 306z" />
    <glyph glyph-name="uni0227" unicode="&#x227;" horiz-adv-x="548" 
d="M270 631q-41 0 -67 25.5t-26 64.5t26 64.5t67 25.5t67.5 -25.5t26.5 -64.5t-26.5 -64.5t-67.5 -25.5zM484 154q0 -30 8.5 -44t27.5 -21l-33 -103q-49 4 -80 21.5t-48 55.5q-52 -80 -160 -80q-79 0 -126 46t-47 120q0 87 64 133t185 46h54v23q0 47 -20 64.5t-70 17.5
q-57 0 -139 -28l-36 104q105 39 200 39q114 0 167 -47t53 -141v-206zM245 96q54 0 84 51v94h-39q-107 0 -107 -78q0 -32 16.5 -49.5t45.5 -17.5z" />
    <glyph glyph-name="uni0228" unicode="&#x228;" horiz-adv-x="526" 
d="M229 295v-177h261v-118h-172v-48q104 -12 104 -99q0 -51 -40.5 -83t-108.5 -32t-112 30l36 73q34 -17 64 -17q47 0 47 30q0 34 -92 34l13 112h-164v693h425l-17 -117h-244v-166h213v-115h-213z" />
    <glyph glyph-name="uni0229" unicode="&#x229;" horiz-adv-x="552" 
d="M525 276q0 -33 -3 -57h-329q8 -67 38 -94t83 -27q59 0 127 47l65 -88q-76 -61 -169 -72v-33q104 -12 104 -99q0 -51 -40.5 -83t-108.5 -32t-112 30l36 73q34 -17 64 -17q47 0 47 30q0 34 -92 34l12 99q-105 15 -160 88.5t-55 187.5q0 124 65.5 204.5t182.5 80.5
q115 0 180 -72t65 -200zM370 314v7q-2 122 -86 122q-41 0 -63.5 -30t-27.5 -99h177z" />
    <glyph glyph-name="uni022A" unicode="&#x22a;" horiz-adv-x="691" 
d="M500 940h-305v110h305v-110zM229 903q34 0 57.5 -23t23.5 -56t-23.5 -56t-57.5 -23t-57.5 23t-23.5 56t23.5 56t57.5 23zM460 903q35 0 58 -23t23 -56t-23 -56t-58 -23q-33 0 -56.5 23t-23.5 56t23.5 56t56.5 23zM345 710q148 0 230.5 -95t82.5 -268q0 -170 -83 -267
t-230 -97t-229.5 95.5t-82.5 268.5q0 170 83 266.5t229 96.5zM345 590q-71 0 -105.5 -57.5t-34.5 -185.5t35 -186t105 -58q72 0 106.5 57.5t34.5 186.5t-35 186t-106 57z" />
    <glyph glyph-name="uni022B" unicode="&#x22b;" horiz-adv-x="584" 
d="M443 801h-305v110h305v-110zM175 760q34 0 57.5 -23t23.5 -56t-23.5 -56t-57.5 -23t-57.5 23t-23.5 56t23.5 56t57.5 23zM406 760q35 0 58 -23t23 -56t-23 -56t-58 -23q-33 0 -56.5 23t-23.5 56t23.5 56t56.5 23zM292 548q122 0 191 -74.5t69 -208.5q0 -129 -69.5 -205.5
t-190.5 -76.5t-190.5 74.5t-69.5 208.5q0 129 69.5 205.5t190.5 76.5zM292 432q-96 0 -96 -166q0 -87 23.5 -127t72.5 -40q96 0 96 166q0 87 -23.5 127t-72.5 40z" />
    <glyph glyph-name="uni022C" unicode="&#x22c;" horiz-adv-x="691" 
d="M497 943h-305v110h305v-110zM403 756q-32 0 -66.5 22.5t-47.5 22.5q-28 0 -53 -44l-79 38q20 52 53.5 85t75.5 33q34 0 68.5 -22.5t47.5 -22.5q28 0 52 44l79 -39q-21 -53 -54.5 -85t-75.5 -32zM345 710q148 0 230.5 -95t82.5 -268q0 -170 -83 -267t-230 -97t-229.5 95.5
t-82.5 268.5q0 170 83 266.5t229 96.5zM345 590q-71 0 -105.5 -57.5t-34.5 -185.5t35 -186t105 -58q72 0 106.5 57.5t34.5 186.5t-35 186t-106 57z" />
    <glyph glyph-name="uni022D" unicode="&#x22d;" horiz-adv-x="584" 
d="M444 832h-305v110h305v-110zM350 594q-32 0 -66.5 22.5t-47.5 22.5q-28 0 -53 -44l-79 38q20 52 53.5 85t75.5 33q34 0 68.5 -22.5t47.5 -22.5q28 0 52 44l79 -39q-21 -53 -54.5 -85t-75.5 -32zM292 548q122 0 191 -74.5t69 -208.5q0 -129 -69.5 -205.5t-190.5 -76.5
t-190.5 74.5t-69.5 208.5q0 129 69.5 205.5t190.5 76.5zM292 432q-96 0 -96 -166q0 -87 23.5 -127t72.5 -40q96 0 96 166q0 87 -23.5 127t-72.5 40z" />
    <glyph glyph-name="uni022E" unicode="&#x22e;" horiz-adv-x="691" 
d="M344 937q41 0 67.5 -25.5t26.5 -64.5t-26.5 -64.5t-67.5 -25.5t-67 25.5t-26 64.5t26 64.5t67 25.5zM345 710q148 0 230.5 -95t82.5 -268q0 -170 -83 -267t-230 -97t-229.5 95.5t-82.5 268.5q0 170 83 266.5t229 96.5zM345 590q-71 0 -105.5 -57.5t-34.5 -185.5t35 -186
t105 -58q72 0 106.5 57.5t34.5 186.5t-35 186t-106 57z" />
    <glyph glyph-name="uni022F" unicode="&#x22f;" horiz-adv-x="584" 
d="M291 811q41 0 67.5 -25.5t26.5 -64.5t-26.5 -64.5t-67.5 -25.5t-67 25.5t-26 64.5t26 64.5t67 25.5zM292 548q122 0 191 -74.5t69 -208.5q0 -129 -69.5 -205.5t-190.5 -76.5t-190.5 74.5t-69.5 208.5q0 129 69.5 205.5t190.5 76.5zM292 432q-96 0 -96 -166
q0 -87 23.5 -127t72.5 -40q96 0 96 166q0 87 -23.5 127t-72.5 40z" />
    <glyph glyph-name="uni0230" unicode="&#x230;" horiz-adv-x="691" 
d="M497 941h-305v110h305v-110zM343 916q41 0 67.5 -25.5t26.5 -64.5t-26.5 -64.5t-67.5 -25.5t-67 25.5t-26 64.5t26 64.5t67 25.5zM345 710q148 0 230.5 -95t82.5 -268q0 -170 -83 -267t-230 -97t-229.5 95.5t-82.5 268.5q0 170 83 266.5t229 96.5zM345 590
q-71 0 -105.5 -57.5t-34.5 -185.5t35 -186t105 -58q72 0 106.5 57.5t34.5 186.5t-35 186t-106 57z" />
    <glyph glyph-name="uni0231" unicode="&#x231;" horiz-adv-x="584" 
d="M444 803h-305v110h305v-110zM291 773q41 0 67.5 -25.5t26.5 -64.5t-26.5 -64.5t-67.5 -25.5t-67 25.5t-26 64.5t26 64.5t67 25.5zM292 548q122 0 191 -74.5t69 -208.5q0 -129 -69.5 -205.5t-190.5 -76.5t-190.5 74.5t-69.5 208.5q0 129 69.5 205.5t190.5 76.5zM292 432
q-96 0 -96 -166q0 -87 23.5 -127t72.5 -40q96 0 96 166q0 87 -23.5 127t-72.5 40z" />
    <glyph glyph-name="uni0232" unicode="&#x232;" horiz-adv-x="594" 
d="M449 781h-305v110h305v-110zM601 693l-222 -433v-260h-164v259l-222 434h179l128 -305l128 305h173z" />
    <glyph glyph-name="uni0233" unicode="&#x233;" horiz-adv-x="518" 
d="M411 655h-305v110h305v-110zM524 531l-169 -532q-32 -103 -104.5 -158.5t-194.5 -62.5l-17 111q76 10 112.5 34t58.5 77h-54l-162 531h168l95 -430l104 430h163z" />
    <glyph glyph-name="uni0234" unicode="&#x234;" horiz-adv-x="466" 
d="M352 245q52 0 86.5 -31t34.5 -83q0 -72 -53.5 -110t-137.5 -38q-27 0 -50 4l-32 -71l-78 30l32 66q-97 50 -97 182v548l158 17v-569q0 -28 4 -43q24 52 55 75t78 23zM305 97q58 0 58 36q0 27 -27 27q-16 0 -27.5 -13t-28.5 -49q7 -1 25 -1z" />
    <glyph glyph-name="uni0235" unicode="&#x235;" horiz-adv-x="771" 
d="M658 245q52 0 86 -31t34 -83q0 -72 -53 -110t-138 -38q-27 0 -50 4l-32 -71l-77 30l31 66q-97 50 -97 182v167q0 40 -12.5 55.5t-37.5 15.5q-48 0 -92 -69v-363h-158v531h138l11 -63q68 80 162 80q69 0 108 -42t39 -118v-198q0 -29 4 -45q24 53 54.5 76.5t79.5 23.5z
M610 97q58 0 58 36q0 27 -27 27q-16 0 -27.5 -13t-27.5 -49q7 -1 24 -1z" />
    <glyph glyph-name="uni0236" unicode="&#x236;" horiz-adv-x="485" 
d="M372 245q52 0 86.5 -31t34.5 -83q0 -72 -53.5 -110t-138.5 -38q-25 0 -50 3l-31 -70l-78 30l31 65q-96 50 -96 183v227h-75v110h75v115l158 18v-133h122l-17 -110h-105v-231q0 -28 4 -43q24 52 55 75t78 23zM324 97q59 0 59 36q0 27 -27 27q-17 0 -28.5 -13t-27.5 -49
q7 -1 24 -1z" />
    <glyph glyph-name="uni0237" unicode="&#x237;" horiz-adv-x="281" 
d="M219 531v-471q0 -63 -15 -110t-45.5 -79t-66 -53t-86.5 -39l-53 115q58 26 83 57.5t25 98.5v481h158z" />
    <glyph glyph-name="uni0238" unicode="&#x238;" horiz-adv-x="875" 
d="M655 548q86 0 134.5 -75t48.5 -208q0 -124 -55.5 -203t-145.5 -79q-81 0 -128 76l-9 -59h-122l-8 61q-56 -78 -141 -78q-92 0 -142 76.5t-50 207.5q0 124 56.5 202.5t146.5 78.5q72 0 120 -64v258l158 17v-283q51 72 137 72zM279 99q43 0 81 59v224q-34 51 -77 51
q-37 0 -59.5 -41t-22.5 -126q0 -167 78 -167zM595 98q34 0 56.5 40t22.5 127q0 167 -75 167q-44 0 -81 -56v-219q32 -59 77 -59z" />
    <glyph glyph-name="uni0239" unicode="&#x239;" horiz-adv-x="875" 
d="M650 548q93 0 140.5 -74.5t47.5 -206.5q0 -124 -55 -204t-142 -80q-78 0 -123 68v-256l-158 -17v270q-52 -65 -133 -65q-91 0 -140.5 76.5t-49.5 207.5q0 124 57.5 202.5t149.5 78.5q77 0 128 -76l7 59h120l8 -63q57 80 143 80zM277 99q45 0 83 59v217q-34 58 -77 58
q-37 0 -59.5 -41t-22.5 -126q0 -167 76 -167zM593 99q36 0 58.5 41t22.5 125q0 93 -18.5 130t-54.5 37q-45 0 -83 -58v-220q31 -55 75 -55z" />
    <glyph glyph-name="uni023A" unicode="&#x23a;" horiz-adv-x="590" 
d="M444 0l-38 149h-114l-59 -223l-58 13l56 210h-50l-38 -149h-156l209 693h178l17 63l57 -14l-32 -120l188 -622h-160zM209 261h51l60 225l-27 104zM321 261h56l-27 108z" />
    <glyph glyph-name="uni023B" unicode="&#x23b;" horiz-adv-x="575" 
d="M567 72q-89 -89 -217 -89q-41 0 -75 7l-17 -64l-58 13l18 69q-87 36 -136 123t-49 217q0 170 88 266t227 96q32 0 56 -4l13 50l57 -14l-13 -50q53 -19 98 -58l-78 -93q-28 21 -52 32l-120 -455q24 -8 49 -8q62 0 136 56zM205 348q0 -136 52 -194l115 434q-5 1 -16 1
q-70 0 -110.5 -59t-40.5 -182z" />
    <glyph glyph-name="uni023C" unicode="&#x23c;" horiz-adv-x="479" 
d="M303 108q45 0 102 36l69 -98q-79 -63 -179 -63q-25 0 -48 3l-16 -60l-56 13l16 61q-75 29 -117 97t-42 164q0 128 71 207.5t189 79.5q24 0 45 -3l15 56l55 -14l-15 -56q41 -14 82 -48l-68 -94q-18 14 -45 27l-81 -306q14 -2 23 -2zM198 262q0 -87 30 -123l77 288
q-107 0 -107 -165z" />
    <glyph glyph-name="uni023D" unicode="&#x23d;" horiz-adv-x="530" 
d="M246 130h270l-17 -130h-417v302h-77v122h77v269h164v-269h78v-122h-78v-172z" />
    <glyph glyph-name="uni023E" unicode="&#x23e;" horiz-adv-x="540" 
d="M523 573h-88l-93 -200v-373h-144v64l-64 -138l-50 23l114 245v379h-189v120h421l30 65l50 -24l-19 -41h48zM342 504l32 69h-32v-69z" />
    <glyph glyph-name="uni023F" unicode="&#x23f;" horiz-adv-x="484" 
d="M377 -106q25 0 52 11l32 -96q-41 -30 -104 -30q-45 0 -80.5 17t-62 46.5t-50 62t-58 72.5t-73.5 68q-14 9 -25 17l67 86q76 -52 151 -52t75 49q0 28 -20 41.5t-92 33.5q-157 45 -157 166q0 70 59.5 116t157.5 46q115 0 195 -65l-58 -89q-65 41 -131 41q-64 0 -64 -40
q0 -22 20 -35t89 -33q83 -24 123.5 -62.5t40.5 -106.5q0 -79 -64 -126t-158 -49q25 -16 49 -40t42 -36.5t44 -12.5z" />
    <glyph glyph-name="uni0240" unicode="&#x240;" horiz-adv-x="437" 
d="M383 -221q-38 0 -68.5 11.5t-50.5 29.5t-38 40.5l-37.5 45.5t-41.5 42.5t-56.5 34t-77.5 17.5v112l241 300h-220v119h402v-111l-275 -334q41 -15 73 -40.5t50.5 -50.5l35.5 -48.5t36.5 -38t44.5 -14.5t54 11l32 -96q-41 -30 -104 -30z" />
    <glyph glyph-name="uni0241" unicode="&#x241;" horiz-adv-x="509" 
d="M147 0v330l55 15q62 18 89.5 49.5t27.5 90.5q0 49 -26 77.5t-74 28.5q-68 0 -136 -56l-79 83q98 92 237 92q114 0 181 -59.5t67 -157.5q0 -83 -38.5 -130t-114.5 -75l-25 -9v-279h-164z" />
    <glyph glyph-name="uni0242" unicode="&#x242;" horiz-adv-x="463" 
d="M111 0v203l52 14q108 30 108 118q0 43 -23.5 69t-63.5 26q-56 0 -112 -46l-76 80q87 84 204 84q106 0 170.5 -58.5t64.5 -152.5q0 -133 -138 -178l-28 -9v-150h-158z" />
    <glyph glyph-name="uni0243" unicode="&#x243;" horiz-adv-x="631" 
d="M448 367q156 -30 156 -165q0 -111 -79.5 -156.5t-222.5 -45.5h-223v175h-65v80h65v438h196q146 0 223 -41.5t77 -135.5q0 -61 -36.5 -98.5t-90.5 -50.5zM291 577h-48v-161h61q104 0 104 84q0 42 -28 59.5t-89 17.5zM303 119q65 0 98.5 19.5t33.5 72.5q0 96 -120 96h-72
v-52h115v-80h-115v-56h60z" />
    <glyph glyph-name="uni0244" unicode="&#x244;" horiz-adv-x="681" 
d="M668 592v-92h-57v-270q0 -110 -70 -178.5t-201 -68.5q-132 0 -201 67t-69 180v270h-57v92h57v101h164v-101h213v101h164v-101h57zM447 237v263h-213v-263q0 -67 25.5 -99.5t80.5 -32.5q56 0 81.5 32.5t25.5 99.5z" />
    <glyph glyph-name="uni0245" unicode="&#x245;" horiz-adv-x="590" 
d="M395 693l209 -693h-174l-136 574l-137 -574h-170l209 693h199z" />
    <glyph glyph-name="uni0246" unicode="&#x246;" horiz-adv-x="526" 
d="M337 295l-47 -177h200v-118h-231l-20 -74l-58 13l16 61h-132v693h315l17 63l58 -14l-13 -49h48l-17 -117h-62l-44 -166h75v-115h-105zM229 576v-166h77l43 166h-120zM229 295v-174l46 174h-46z" />
    <glyph glyph-name="uni0247" unicode="&#x247;" horiz-adv-x="552" 
d="M522 222h-230l-31 -118q23 -6 53 -6q59 0 127 47l65 -88q-93 -74 -207 -74q-37 0 -69 6l-17 -63l-53 13l18 66q-72 30 -109 97.5t-37 160.5q0 124 65.5 204.5t182.5 80.5q22 0 42 -3l15 56l53 -14l-15 -55q72 -26 111 -92t39 -164q0 -30 -3 -54zM284 446q-49 0 -73.5 -31
t-29.5 -104h78l36 135h-11zM385 318q0 80 -38 110l-31 -117h69v7zM212 134l24 88h-55q6 -58 31 -88z" />
    <glyph glyph-name="uni0248" unicode="&#x248;" horiz-adv-x="337" 
d="M333 404v-122h-77v-177q0 -63 -17.5 -110.5t-51 -78.5t-69.5 -50t-85 -35l-44 116q63 25 83 61t20 103v171h-78v122h78v289h164v-289h77z" />
    <glyph glyph-name="uni0249" unicode="&#x249;" horiz-adv-x="331" 
d="M167 631q-41 0 -67 25.5t-26 64.5t26 64.5t67 25.5t67.5 -25.5t26.5 -64.5t-26.5 -64.5t-67.5 -25.5zM325 313v-110h-79v-143q0 -63 -15 -110t-45.5 -79t-66 -53t-86.5 -39l-53 115q58 26 83 57.5t25 98.5v153h-81v110h81v218h158v-218h79z" />
    <glyph glyph-name="uni024A" unicode="&#x24a;" horiz-adv-x="673" 
d="M732 -82l54 -97q-57 -43 -141 -43q-93 0 -147 48.5t-54 142.5v67q-55 -53 -138 -53q-123 0 -198 93.5t-75 258.5q0 174 77 274.5t199 100.5q85 0 147 -57l6 40h146v-735q0 -61 54 -61q30 0 70 21zM339 100q61 0 105 41v408q-44 41 -102 41q-68 0 -102.5 -60t-34.5 -195
q0 -126 34.5 -180.5t99.5 -54.5z" />
    <glyph glyph-name="uni024B" unicode="&#x24b;" horiz-adv-x="600" 
d="M591 -93l31 -111q-40 -18 -96 -18q-69 0 -107.5 39.5t-38.5 112.5v121q-53 -68 -141 -68q-99 0 -150.5 76t-51.5 208q0 125 59.5 203t160.5 78q79 0 135 -63l8 46h138v-596q0 -32 27 -32q12 0 26 4zM289 99q53 0 91 60v229q-39 45 -82 45q-97 0 -97 -167q0 -93 22.5 -130
t65.5 -37z" />
    <glyph glyph-name="uni024C" unicode="&#x24c;" horiz-adv-x="631" 
d="M634 0h-185l-142 265h-64v-265h-164v265h-65v113h65v315h227q285 0 285 -211q0 -67 -32 -111.5t-101 -75.5zM243 378h69q110 0 110 104q0 50 -29.5 73t-90.5 23h-59v-200z" />
    <glyph glyph-name="uni024D" unicode="&#x24d;" horiz-adv-x="424" 
d="M373 546q29 0 53 -7l-25 -153q-30 7 -48 7q-44 0 -68.5 -29.5t-38.5 -88.5h78v-110h-81v-165h-158v165h-80v110h80v256h138l13 -103q18 55 54.5 86.5t82.5 31.5z" />
    <glyph glyph-name="uni024E" unicode="&#x24e;" horiz-adv-x="594" 
d="M602 693l-40 -78h40v-92h-87l-135 -263v-260h-165v259l-135 264h-86v92h39l-40 78h174l33 -78h202l33 78h167zM300 375l63 148h-125z" />
    <glyph glyph-name="uni024F" unicode="&#x24f;" horiz-adv-x="541" 
d="M535 531l-44 -137h42v-90h-70l-97 -305q-32 -103 -104.5 -158.5t-194.5 -62.5l-17 111q76 10 112.5 34t58.5 77h-54l-93 304h-68v90h41l-42 137h168l30 -137h136l33 137h163zM268 101l49 203h-94z" />
    <glyph glyph-name="uni0250" unicode="&#x250;" horiz-adv-x="548" 
d="M309 98q57 0 139 28l36 -104q-105 -39 -200 -39q-114 0 -167 47t-53 141v206q0 30 -8.5 44t-27.5 21l33 103q49 -4 80 -21.5t48 -55.5q52 80 160 80q79 0 126 -46t47 -120q0 -87 -64 -133t-185 -46h-54v-23q0 -47 20 -64.5t70 -17.5zM303 435q-54 0 -84 -51v-94h39
q107 0 107 78q0 32 -16.5 49.5t-45.5 17.5z" />
    <glyph glyph-name="uni0251" unicode="&#x251;" horiz-adv-x="597" 
d="M530 178q0 -35 9.5 -52t33.5 -29l-46 -114q-102 19 -135 81q-59 -81 -155 -81q-99 0 -152 76t-53 208q0 125 60 203t161 78q81 0 131 -62l9 45h137v-353zM281 99q54 0 91 58v232q-39 44 -84 44q-92 0 -92 -167q0 -93 22 -130t63 -37z" />
    <glyph glyph-name="uni0252" unicode="&#x252;" horiz-adv-x="597" 
d="M360 548q99 0 152 -76t53 -208q0 -125 -60 -203t-161 -78q-81 0 -131 62l-9 -45h-137v353q0 35 -9.5 52t-33.5 29l46 114q102 -19 135 -81q59 81 155 81zM309 98q92 0 92 167q0 93 -22 130t-63 37q-54 0 -91 -58v-232q39 -44 84 -44z" />
    <glyph glyph-name="uni0253" unicode="&#x253;" horiz-adv-x="597" 
d="M360 548q97 0 148.5 -74t51.5 -209q0 -125 -57 -203.5t-154 -78.5q-87 0 -139 68l-8 -51h-140v578q0 80 52.5 130.5t150.5 50.5q79 0 145 -34l-43 -101q-42 18 -83 18q-34 0 -49 -16t-15 -54v-95q24 33 61.5 52t78.5 19zM304 98q92 0 92 167q0 94 -22 130.5t-63 36.5
q-54 0 -91 -62v-221q32 -51 84 -51z" />
    <glyph glyph-name="uni0254" unicode="&#x254;" horiz-adv-x="476" 
d="M184 -17q-105 0 -179 60l71 92q50 -35 100 -36q104 0 104 166q0 87 -24 127t-74 40q-54 0 -105 -35l-67 89q73 62 181 62q119 0 186 -74t67 -209q0 -129 -69.5 -205.5t-190.5 -76.5z" />
    <glyph glyph-name="uni0255" unicode="&#x255;" horiz-adv-x="501" 
d="M367 255q56 0 92 -32t36 -88q0 -74 -54 -113t-137 -39q-37 0 -70 7l-34 -74l-77 30l34 73q-60 32 -92.5 95t-32.5 147q0 128 71 207.5t189 79.5q105 0 182 -65l-69 -95q-48 39 -100 39q-107 0 -107 -165q0 -72 21 -114q25 57 60 82t88 25zM324 97q60 0 60 42q0 30 -31 30
q-21 0 -37 -15t-33 -52q22 -5 41 -5z" />
    <glyph glyph-name="uni0256" unicode="&#x256;" horiz-adv-x="600" 
d="M665 -87l53 -92q-57 -43 -142 -43q-90 0 -143 49t-53 142v80q-54 -66 -141 -66q-99 0 -150.5 76t-51.5 208q0 125 59.5 203t160.5 78q73 0 123 -50v261l158 -17v-788q0 -61 57 -61q30 0 70 20zM289 99q53 0 91 60v229q-39 45 -82 45q-97 0 -97 -167q0 -93 22.5 -130
t65.5 -37z" />
    <glyph glyph-name="uni0257" unicode="&#x257;" horiz-adv-x="600" 
d="M568 759q76 0 135 -38l-46 -98q-36 19 -67 19q-52 0 -52 -61v-581h-140l-8 62q-56 -79 -151 -79q-99 0 -150.5 76t-51.5 208q0 125 59.5 203t160.5 78q73 0 123 -50v78q0 83 49 133t139 50zM289 99q53 0 91 60v229q-39 45 -82 45q-97 0 -97 -167q0 -93 22.5 -130
t65.5 -37z" />
    <glyph glyph-name="uni0258" unicode="&#x258;" horiz-adv-x="552" 
d="M272 548q124 0 186 -77t62 -208q0 -128 -69 -204t-198 -76q-114 0 -206 74l65 88q68 -47 130 -47q53 0 82 26.5t35 94.5h-329q-3 48 -3 57q0 128 66 200t179 72zM183 321v-7h177q-4 73 -24.5 101t-64.5 28q-88 0 -88 -122z" />
    <glyph glyph-name="uni0259" unicode="&#x259;" horiz-adv-x="556" 
d="M269 548q128 0 191.5 -75.5t63.5 -206.5q0 -125 -66.5 -204t-184.5 -79q-113 0 -179.5 72t-66.5 200q0 31 3 57h341q-9 124 -108 124q-71 0 -134 -44l-66 88q86 68 206 68zM273 95q45 0 69.5 28.5t28.5 93.5h-195v-7q1 -54 26 -84.5t71 -30.5z" />
    <glyph glyph-name="uni025A" unicode="&#x25a;" horiz-adv-x="826" 
d="M795 433l44 -89q-55 -37 -125 -37t-109.5 32t-47.5 89l-1 6l-55 -32q23 -56 23 -136q0 -125 -66.5 -204t-184.5 -79q-113 0 -179.5 72t-66.5 200q0 31 3 57h341q-9 124 -108 124q-71 0 -134 -44l-66 88q86 68 206 68q117 0 184 -67l96 50h131v-59q0 -55 52 -55
q27 0 63 16zM273 95q45 0 69.5 28.5t28.5 93.5h-195v-7q1 -54 26 -84.5t71 -30.5z" />
    <glyph glyph-name="uni025B" unicode="&#x25b;" horiz-adv-x="480" 
d="M264 548q116 0 198 -60l-65 -82q-58 33 -113 33q-33 0 -52.5 -14.5t-19.5 -41.5t19.5 -43t55.5 -16h67l-16 -102h-58q-84 0 -84 -62q0 -64 88 -64q61 0 128 40l66 -89q-85 -64 -216 -64q-103 0 -166.5 42.5t-63.5 121.5q0 119 142 136q-122 24 -122 119q0 67 58 106.5
t154 39.5z" />
    <glyph glyph-name="uni025C" unicode="&#x25c;" horiz-adv-x="498" 
d="M231 548q89 0 148.5 -39.5t59.5 -107.5q0 -88 -116 -118q142 -20 142 -130q0 -83 -67.5 -126.5t-178.5 -43.5q-129 0 -216 64l74 88q65 -39 137 -39q88 0 88 66q0 60 -92 60h-83l9 102h62q82 0 82 61q0 54 -71 54q-61 0 -117 -36l-73 83q89 62 212 62z" />
    <glyph glyph-name="uni025D" unicode="&#x25d;" horiz-adv-x="758" 
d="M727 433l44 -89q-55 -37 -125 -37t-109.5 32t-47.5 89l-1 6l-49 -28v-5q0 -88 -116 -118q142 -20 142 -130q0 -83 -67.5 -126.5t-178.5 -43.5q-129 0 -216 64l74 88q65 -39 137 -39q88 0 88 66q0 60 -92 60h-83l9 102h62q82 0 82 61q0 54 -71 54q-61 0 -117 -36l-73 83
q89 62 212 62q113 0 171 -58l79 41h131v-59q0 -55 52 -55q27 0 63 16z" />
    <glyph glyph-name="uni025E" unicode="&#x25e;" horiz-adv-x="573" 
d="M298 -17q-129 0 -197.5 74t-68.5 209q0 129 70 205.5t195 76.5q97 0 157.5 -40t60.5 -108q0 -87 -116 -117q142 -20 142 -130q0 -81 -66 -125.5t-177 -44.5zM297 96q84 0 84 67q0 59 -88 59h-34l9 102h13q78 0 78 60q0 26 -18 40.5t-48 14.5q-53 0 -78 -41.5t-25 -131.5
q0 -92 23.5 -131t83.5 -39z" />
    <glyph glyph-name="uni025F" unicode="&#x25f;" horiz-adv-x="331" 
d="M325 313v-110h-79v-143q0 -63 -15 -110t-45.5 -79t-66 -53t-86.5 -39l-53 115q58 26 83 57.5t25 98.5v153h-81v110h81v218h158v-218h79z" />
    <glyph glyph-name="uni0260" unicode="&#x260;" horiz-adv-x="600" 
d="M568 759q76 0 135 -38l-46 -98q-36 19 -67 19q-52 0 -52 -61v-565q0 -238 -257 -238q-116 0 -193 50l48 97q66 -32 132 -32q60 0 86 25t26 78v73q-54 -66 -141 -66q-98 0 -150 74.5t-52 199.5q0 118 59.5 194.5t160.5 76.5q69 0 123 -51v79q0 83 49 133t139 50zM289 119
q53 0 91 60v209q-39 45 -82 45q-45 0 -71 -39t-26 -118q0 -86 23 -121.5t65 -35.5z" />
    <glyph glyph-name="uni0261" unicode="&#x261;" horiz-adv-x="600" 
d="M400 531h138v-515q0 -238 -257 -238q-116 0 -193 50l48 97q66 -32 132 -32q60 0 86 25t26 78v73q-54 -66 -141 -66q-98 0 -150 74.5t-52 199.5q0 118 59.5 194.5t160.5 76.5q76 0 135 -62zM289 119q53 0 91 60v209q-39 45 -82 45q-45 0 -71 -39t-26 -118q0 -86 23 -121.5
t65 -35.5z" />
    <glyph glyph-name="uni0262" unicode="&#x262;" 
d="M306 548q120 0 207 -72l-76 -83q-60 43 -121 43q-57 0 -89 -43.5t-32 -124.5q0 -94 25.5 -132.5t76.5 -38.5q42 0 73 14v96h-68l-15 104h231v-263q-104 -63 -223 -63q-263 0 -263 283q0 128 77.5 204t196.5 76z" />
    <glyph glyph-name="uni0263" unicode="&#x263;" horiz-adv-x="518" 
d="M524 531l-186 -449q37 -58 53.5 -98.5t16.5 -83.5q0 -57 -36.5 -89.5t-109.5 -32.5q-74 0 -110.5 32t-36.5 89q0 70 70 182l-191 450h168l100 -348l99 348h163zM291 -93q0 28 -29 88q-29 -60 -29 -88q0 -31 29 -31t29 31z" />
    <glyph glyph-name="uni0264" unicode="&#x264;" 
d="M468 548q53 0 101 -30l-45 -91q-20 10 -40 10q-26 0 -46 -38l-82 -157q32 -48 45 -79.5t13 -67.5q0 -50 -34 -81t-100 -31q-65 0 -100 31t-35 81q0 33 13 64.5t45 83.5l-81 156q-11 22 -21 30t-25 8q-20 0 -40 -10l-45 91q47 30 101 30q56 0 88 -29t60 -96l40 -92l40 92
q29 67 60.5 96t87.5 29zM304 103q0 20 -24 65q-25 -46 -25 -65q0 -25 25 -25q24 0 24 25z" />
    <glyph glyph-name="uni0265" unicode="&#x265;" horiz-adv-x="577" 
d="M357 531h158v-753l-158 17v262q-65 -74 -153 -74q-68 0 -107.5 42.5t-39.5 117.5v388h158v-360q0 -40 13 -55.5t37 -15.5q50 0 92 68v363z" />
    <glyph glyph-name="uni0266" unicode="&#x266;" horiz-adv-x="577" 
d="M373 548q69 0 108 -42t39 -118v-388h-158v361q0 40 -13 55.5t-37 15.5q-48 0 -92 -68v-364h-158v578q0 80 52.5 130.5t150.5 50.5q79 0 145 -34l-43 -101q-42 18 -83 18q-34 0 -49 -16t-15 -54v-98q65 74 153 74z" />
    <glyph glyph-name="uni0267" unicode="&#x267;" horiz-adv-x="577" 
d="M373 548q69 0 108 -42t39 -118v-419q0 -93 -53 -142t-143 -49q-85 0 -142 43l53 92q40 -20 70 -20q57 0 57 61v407q0 40 -13 55.5t-37 15.5q-48 0 -92 -68v-364h-158v578q0 80 52.5 130.5t150.5 50.5q79 0 145 -34l-43 -101q-42 18 -83 18q-34 0 -49 -16t-15 -54v-98
q65 74 153 74z" />
    <glyph glyph-name="uni0268" unicode="&#x268;" horiz-adv-x="330" 
d="M164 631q-41 0 -67 25.5t-26 64.5t26 64.5t67 25.5t67.5 -25.5t26.5 -64.5t-26.5 -64.5t-67.5 -25.5zM324 337v-110h-80v-227h-158v227h-81v110h81v194h158v-194h80z" />
    <glyph glyph-name="uni0269" unicode="&#x269;" horiz-adv-x="297" 
d="M203 -17q-69 0 -107.5 39.5t-38.5 112.5v396h158v-390q0 -33 27 -33q10 0 26 4l31 -111q-43 -18 -96 -18z" />
    <glyph glyph-name="uni026A" unicode="&#x26a;" horiz-adv-x="337" 
d="M322 418h-75v-304h75v-114h-306v114h73v304h-73v113h306v-113z" />
    <glyph glyph-name="uni026B" unicode="&#x26b;" horiz-adv-x="458" 
d="M310 276h-3v-135q0 -33 27 -33q14 0 26 5l31 -112q-43 -18 -96 -18q-69 0 -107.5 39.5t-38.5 112.5v201q-3 1 -8 1q-16 0 -30 -9t-20 -16.5t-19 -26.5l-84 42q28 57 66 92t95 35v288l158 17v-364q4 -1 11 -1q23 0 37.5 12t31.5 36l83 -41q-62 -125 -160 -125z" />
    <glyph glyph-name="uni026C" unicode="&#x26c;" horiz-adv-x="427" 
d="M369 113l31 -112q-43 -18 -96 -18q-69 0 -107.5 39.5t-38.5 112.5v106q-81 2 -121.5 35.5t-40.5 90.5q0 54 35 84.5t90 30.5q17 0 37 -4v264l158 17v-430q36 3 71 10l12 -80q-38 -11 -83 -14v-104q0 -33 27 -33q14 0 26 5zM100 368q0 -41 58 -41v71q-12 3 -25 3
q-33 0 -33 -33z" />
    <glyph glyph-name="uni026D" unicode="&#x26d;" horiz-adv-x="282" 
d="M347 -87l53 -92q-57 -43 -142 -43q-90 0 -143 49t-53 142v773l158 17v-805q0 -61 57 -61q30 0 70 20z" />
    <glyph glyph-name="uni026E" unicode="&#x26e;" horiz-adv-x="708" 
d="M474 212q216 -13 216 -204q0 -101 -72.5 -165.5t-195.5 -64.5q-128 0 -209 75l74 92q57 -46 125 -46q53 0 84 30t31 89q0 55 -30.5 78.5t-94.5 23.5h-93v92l171 201h-265v-272q0 -33 27 -33q14 0 26 5l31 -112q-43 -18 -96 -18q-69 0 -107.5 39.5t-38.5 112.5v607l158 17
v-228h443v-108z" />
    <glyph glyph-name="uni026F" unicode="&#x26f;" horiz-adv-x="845" 
d="M625 531h158v-531h-138l-11 62q-62 -79 -154 -79q-44 0 -77 22t-48 62q-63 -84 -159 -84q-63 0 -101 42.5t-38 117.5v388h158v-361q0 -71 45 -71t81 69v363h158v-361q0 -71 45 -71t81 69v363z" />
    <glyph glyph-name="uni0270" unicode="&#x270;" horiz-adv-x="845" 
d="M625 531h158v-753l-158 17v256q-59 -68 -145 -68q-44 0 -77 22t-48 62q-63 -84 -159 -84q-63 0 -101 42.5t-38 117.5v388h158v-361q0 -71 45 -71t81 69v363h158v-361q0 -71 45 -71t81 69v363z" />
    <glyph glyph-name="uni0271" unicode="&#x271;" horiz-adv-x="845" 
d="M649 548q63 0 101 -42.5t38 -117.5v-419q0 -93 -53.5 -142t-144.5 -49q-84 0 -141 43l54 93q40 -21 70 -21q57 0 57 61v407q0 71 -45 71t-81 -69v-363h-158v361q0 71 -45 71t-81 -69v-363h-158v531h138l11 -62q62 79 154 79q45 0 77.5 -22t47.5 -62q63 84 159 84z" />
    <glyph glyph-name="uni0272" unicode="&#x272;" horiz-adv-x="577" 
d="M373 548q69 0 108 -42t39 -118v-388h-158v361q0 40 -12.5 55.5t-37.5 15.5q-48 0 -92 -69v-394q0 -93 -53 -142t-143 -49q-85 0 -142 43l53 92q40 -20 70 -20q57 0 57 61v577h138l11 -63q68 80 162 80z" />
    <glyph glyph-name="uni0273" unicode="&#x273;" horiz-adv-x="577" 
d="M647 -87l53 -92q-57 -43 -142 -43q-90 0 -143 49t-53 142v392q0 40 -12.5 55.5t-37.5 15.5q-48 0 -92 -69v-363h-158v531h138l11 -63q68 80 162 80q69 0 108 -42t39 -118v-434q0 -61 57 -61q30 0 70 20z" />
    <glyph glyph-name="uni0274" unicode="&#x274;" horiz-adv-x="588" 
d="M526 531v-531h-190l-158 394q24 -137 24 -244v-150h-140v531h188l159 -394q-23 130 -23 219v175h140z" />
    <glyph glyph-name="uni0275" unicode="&#x275;" horiz-adv-x="584" 
d="M292 548q122 0 191 -74.5t69 -208.5q0 -129 -69.5 -205.5t-190.5 -76.5t-190.5 74.5t-69.5 208.5q0 129 69.5 205.5t190.5 76.5zM292 434q-86 0 -99 -120h198q-7 63 -31 91.5t-68 28.5zM292 97q90 0 100 129h-200q10 -129 100 -129z" />
    <glyph glyph-name="uni0276" unicode="&#x276;" horiz-adv-x="768" 
d="M543 216q-12 -62 -48 -106h248v-110h-355q-46 -17 -96 -17q-121 0 -190.5 74.5t-69.5 208.5q0 129 69.5 205.5t190.5 76.5q52 0 100 -17h353l-16 -109h-232q31 -42 44 -100h163v-106h-161zM292 99q96 0 96 167q0 166 -96 166t-96 -166q0 -87 23.5 -127t72.5 -40z" />
    <glyph glyph-name="uni0277" unicode="&#x277;" horiz-adv-x="764" 
d="M383 548q166 0 257.5 -78.5t91.5 -227.5q0 -129 -54 -194t-143 -65q-126 0 -153 118q-16 -63 -52.5 -90.5t-100.5 -27.5q-91 0 -144 64.5t-53 194.5q0 149 92.5 227.5t258.5 78.5zM511 99q67 0 67 151q0 189 -195 189q-105 0 -150.5 -49t-45.5 -141q0 -150 67 -150
q27 0 41 18t14 70v112l147 19v-131q0 -49 14 -68.5t41 -19.5z" />
    <glyph glyph-name="uni0278" unicode="&#x278;" horiz-adv-x="663" 
d="M637 268q0 -121 -63 -187t-164 -76l-1 -210l-158 -17l1 227q-101 10 -163.5 74.5t-62.5 184.5t62.5 186t162.5 76v216l158 16v-232q102 -10 165 -74t63 -184zM396 106q86 12 86 162q0 148 -86 157v-319zM180 264q0 -144 85 -158v319q-43 -6 -64 -44.5t-21 -116.5z" />
    <glyph glyph-name="uni0279" unicode="&#x279;" horiz-adv-x="401" 
d="M181 531h158v-531h-138l-13 103q-18 -55 -54.5 -86.5t-82.5 -31.5q-29 0 -53 7l25 153q30 -7 48 -7q47 0 71.5 32.5t38.5 97.5v263z" />
    <glyph glyph-name="uni027A" unicode="&#x27a;" horiz-adv-x="401" 
d="M181 759l158 -17v-742h-138l-13 103q-18 -55 -54.5 -86.5t-82.5 -31.5q-29 0 -53 7l25 153q30 -7 48 -7q47 0 71.5 32.5t38.5 97.5v491z" />
    <glyph glyph-name="uni027B" unicode="&#x27b;" horiz-adv-x="401" 
d="M466 -87l53 -92q-57 -43 -142 -43q-90 0 -143 49t-53 142v116q-20 -47 -54 -73.5t-76 -26.5q-26 0 -53 8l25 153q27 -8 48 -8q47 0 71.5 32.5t38.5 97.5v263h158v-577q0 -61 57 -61q30 0 70 20z" />
    <glyph glyph-name="uni027C" unicode="&#x27c;" horiz-adv-x="401" 
d="M350 546q29 0 53 -7l-25 -153q-30 7 -48 7q-47 0 -71.5 -32.5t-38.5 -97.5v-468l-158 -17v753h138l13 -103q18 55 54.5 86.5t82.5 31.5z" />
    <glyph glyph-name="uni027D" unicode="&#x27d;" horiz-adv-x="401" 
d="M277 -107q30 0 70 20l53 -92q-57 -43 -142 -43q-90 0 -143 49t-53 142v562h138l13 -103q18 55 54.5 86.5t82.5 31.5q29 0 53 -7l-25 -153q-30 7 -48 7q-47 0 -71.5 -32.5t-38.5 -97.5v-309q0 -61 57 -61z" />
    <glyph glyph-name="uni027E" unicode="&#x27e;" horiz-adv-x="392" 
d="M253 549q85 0 142 -43l-53 -92q-40 20 -70 20q-57 0 -57 -61v-373h-158v358q0 93 53 142t143 49z" />
    <glyph glyph-name="uni027F" unicode="&#x27f;" horiz-adv-x="392" 
d="M139 549q90 0 143 -49t53 -142v-358h-158v373q0 61 -57 61q-30 0 -70 -20l-53 92q57 43 142 43z" />
    <glyph glyph-name="uni0280" unicode="&#x280;" horiz-adv-x="530" 
d="M360 0l-103 183h-43v-183h-152v531h191q234 0 234 -175q0 -107 -91 -150l130 -206h-166zM214 430v-151h41q40 0 59 17.5t19 60.5q0 40 -20.5 56.5t-63.5 16.5h-35z" />
    <glyph glyph-name="uni0281" unicode="&#x281;" horiz-adv-x="530" 
d="M397 326q90 -41 90 -147q0 -179 -234 -179h-191v531h152v-183h43l103 183h166zM249 102q43 0 63.5 16.5t20.5 59.5q0 40 -19.5 57.5t-58.5 17.5h-41v-151h35z" />
    <glyph glyph-name="uni0282" unicode="&#x282;" horiz-adv-x="483" 
d="M244 -17q-58 0 -99 16v-44q0 -61 65 -61q41 0 81 21l54 -94q-58 -42 -145 -42q-92 0 -143 48t-51 142v93l65 73q68 -39 152 -39q37 0 57.5 13t20.5 36q0 28 -20 41.5t-92 33.5q-157 45 -157 166q0 70 59.5 116t157.5 46q115 0 195 -65l-58 -90q-64 42 -126 42
q-69 0 -69 -40q0 -22 20 -35t89 -33q83 -24 123.5 -62.5t40.5 -106.5q0 -80 -63.5 -127.5t-156.5 -47.5z" />
    <glyph glyph-name="uni0283" unicode="&#x283;" horiz-adv-x="282" 
d="M250 759q76 0 135 -38l-46 -98q-36 19 -67 19q-52 0 -52 -61v-612q0 -93 -53 -142t-143 -49q-85 0 -142 43l53 92q40 -20 70 -20q57 0 57 61v622q0 83 49 133t139 50z" />
    <glyph glyph-name="uni0284" unicode="&#x284;" horiz-adv-x="331" 
d="M246 110h77v-110h-81q-13 -89 -65.5 -138.5t-143.5 -82.5l-51 107q49 21 74 46t30 68h-82v110h84v466q0 83 49 133t139 50q76 0 135 -38l-46 -98q-36 19 -67 19q-52 0 -52 -61v-471z" />
    <glyph glyph-name="uni0285" unicode="&#x285;" horiz-adv-x="485" 
d="M441 118l53 -92q-57 -43 -142 -43q-90 0 -143 49t-53 142v197q0 61 -52 61q-31 0 -67 -19l-46 98q59 38 135 38q90 0 139 -50t49 -133v-207q0 -61 57 -61q30 0 70 20z" />
    <glyph glyph-name="uni0286" unicode="&#x286;" horiz-adv-x="339" 
d="M277 30q0 -23 -1 -34q53 -15 101 -40l-28 -66q-34 15 -84 31q-37 -143 -198 -143q-71 0 -109.5 31.5t-38.5 86.5q0 61 42.5 95t114.5 34q17 0 43 -2v553q0 83 49 133t139 50q76 0 135 -38l-46 -98q-36 19 -67 19q-52 0 -52 -61v-551zM57 -139q30 0 44.5 20t16.5 66
q-22 2 -42 2q-63 0 -63 -48q0 -40 44 -40z" />
    <glyph glyph-name="uni0287" unicode="&#x287;" horiz-adv-x="386" 
d="M384 110v-110h-75v-115l-158 -18v133h-122l17 110h105v244q0 37 -12 53t-38 16q-27 0 -57 -17l-53 100q60 42 144 42q174 -1 174 -192v-246h75z" />
    <glyph glyph-name="uni0288" unicode="&#x288;" horiz-adv-x="386" 
d="M362 -87l53 -92q-57 -43 -142 -43q-90 0 -143 49t-53 142v452h-75v110h75v115l158 18v-133h122l-17 -110h-105v-467q0 -61 57 -61q30 0 70 20z" />
    <glyph glyph-name="uni0289" unicode="&#x289;" horiz-adv-x="616" 
d="M607 394v-98h-76v-296h-137l-7 67q-59 -84 -161 -84q-73 0 -110.5 44t-37.5 123v146h-75v98h75v137h158v-137h137v137h158v-137h76zM373 162v134h-137v-126q0 -39 12.5 -54.5t38.5 -15.5q50 0 86 62z" />
    <glyph glyph-name="uni028A" unicode="&#x28a;" horiz-adv-x="583" 
d="M292 -17q-120 0 -190 69t-70 173q0 125 103 197h-88v109h203v-101q-56 -70 -56 -189q0 -145 98 -145q97 0 97 146q0 119 -57 188v101h204v-109h-87q102 -72 102 -197q0 -104 -69.5 -173t-189.5 -69z" />
    <glyph glyph-name="uni028B" unicode="&#x28b;" horiz-adv-x="568" 
d="M266 -17q-91 0 -150 48.5t-59 142.5v357h158v-348q0 -84 62 -84q90 0 90 147v151q0 32 -27 32q-14 0 -23 -3l-25 107q37 15 86 15q70 0 108.5 -39.5t38.5 -118.5v-138q0 -136 -73 -202.5t-186 -66.5z" />
    <glyph glyph-name="uni028C" unicode="&#x28c;" horiz-adv-x="513" 
d="M-6 0l167 531h187l171 -531h-172l-94 411l-98 -411h-161z" />
    <glyph glyph-name="uni028D" unicode="&#x28d;" horiz-adv-x="749" 
d="M5 0l110 531h189l71 -390l70 390h187l113 -531h-160l-55 413l-83 -413h-154l-73 413l-64 -413h-151z" />
    <glyph glyph-name="uni028E" unicode="&#x28e;" horiz-adv-x="518" 
d="M-6 0l169 532q34 108 105.5 163.5t193.5 62.5l14 -107q-78 -9 -114.5 -36t-56.5 -84h57l162 -531h-168l-95 431l-104 -431h-163z" />
    <glyph glyph-name="uni028F" unicode="&#x28f;" horiz-adv-x="498" 
d="M510 531l-182 -339v-192h-158v191l-182 340h168l96 -238l95 238h163z" />
    <glyph glyph-name="uni0290" unicode="&#x290;" horiz-adv-x="459" 
d="M568 -86l53 -93q-56 -43 -140 -43q-88 0 -139 49t-51 142v31h-278v112l241 300h-220v119h402v-111l-240 -300h245v-166q0 -61 57 -61q28 0 70 21z" />
    <glyph glyph-name="uni0291" unicode="&#x291;" horiz-adv-x="544" 
d="M436 266q55 0 89.5 -31.5t34.5 -86.5q0 -149 -210 -148q-5 -31 -5 -128h-91q0 80 5 128h-246v112l241 300h-220v119h402v-105l-247 -306h87q40 146 160 146zM373 120q41 0 60 8t19 28q0 27 -28 27q-41 0 -56 -63h5zM356 38l-1 -2l-1 -6z" />
    <glyph glyph-name="uni0292" unicode="&#x292;" horiz-adv-x="510" 
d="M276 213q216 -14 216 -204q0 -101 -72.5 -166t-196.5 -65q-150 0 -235 103l83 80q68 -62 143 -62q54 0 84.5 30t30.5 90q0 54 -31 77.5t-95 23.5h-92v92l171 201h-255v118h433v-108z" />
    <glyph glyph-name="uni0293" unicode="&#x293;" horiz-adv-x="510" 
d="M492 12q0 -78 -43 -135t-127 -82l25 -55l-79 -30l-32 70q-28 -2 -43 -2q-103 0 -160.5 40.5t-57.5 114.5q0 57 35.5 90t91.5 33t91.5 -30.5t68.5 -107.5l4 -8q63 24 63 111q0 57 -30.5 81t-95.5 24h-92v92l172 195h-256v118h433v-108l-184 -205q216 -13 216 -206zM84 -60
q0 -23 22 -32t79 -9q-19 41 -34 56.5t-35 15.5q-32 0 -32 -31z" />
    <glyph glyph-name="uni0294" unicode="&#x294;" horiz-adv-x="478" 
d="M130 0v354l43 13q62 19 92.5 54.5t30.5 97.5q0 59 -28 91t-79 32q-66 0 -127 -55l-78 80q95 92 228 92q112 0 179.5 -64.5t67.5 -172.5q0 -87 -40 -135.5t-112 -76.5l-19 -8v-302h-158z" />
    <glyph glyph-name="uni0295" unicode="&#x295;" horiz-adv-x="478" 
d="M348 0h-158v302l-19 8q-72 28 -112 76.5t-40 135.5q0 107 70.5 172t181.5 65q128 0 223 -92l-78 -80q-60 55 -125 55q-50 0 -79.5 -32.5t-29.5 -91.5q0 -62 30.5 -97t92.5 -54l43 -13v-354z" />
    <glyph glyph-name="uni0296" unicode="&#x296;" horiz-adv-x="512" 
d="M141 742l158 16v-318l32 -7q149 -45 149 -211q0 -108 -68 -173.5t-180 -65.5q-130 0 -227 92l78 80q62 -55 128 -55q51 0 79 32t28 91q0 64 -29 101t-92 53l-56 12v353z" />
    <glyph glyph-name="uni0297" unicode="&#x297;" horiz-adv-x="488" 
d="M314 548q98 0 169 -65l-65 -91q-50 35 -96 35q-57 0 -86 -62.5t-29 -204.5q0 -139 28 -197.5t82 -58.5q45 0 97 36l69 -98q-78 -63 -171 -63q-130 0 -200 99t-70 282t71.5 285.5t200.5 102.5z" />
    <glyph glyph-name="uni0298" unicode="&#x298;" horiz-adv-x="798" 
d="M399 710q164 0 264.5 -98t100.5 -265q0 -162 -101 -263t-264 -101q-164 0 -265 98.5t-101 265.5q0 161 101.5 262t264.5 101zM399 600q-100 0 -155.5 -62.5t-55.5 -190.5q0 -129 55.5 -191.5t155.5 -62.5q211 0 211 254q0 127 -57 190t-154 63zM401 426q36 0 59 -22.5
t23 -56.5q0 -33 -23 -56t-59 -23t-59 23t-23 56q0 34 23 56.5t59 22.5z" />
    <glyph glyph-name="uni0299" unicode="&#x299;" horiz-adv-x="557" 
d="M389 292q135 -16 135 -131q0 -81 -63.5 -121t-173.5 -40h-225v526q119 22 210 22q108 0 168.5 -36.5t60.5 -107.5q0 -92 -112 -112zM269 447q-31 0 -49 -2v-122h56q69 0 69 63q0 61 -76 61zM282 104q80 0 80 71q0 65 -79 65h-63v-136h62z" />
    <glyph glyph-name="uni029A" unicode="&#x29a;" horiz-adv-x="573" 
d="M275 -17q-111 0 -177 44.5t-66 125.5q0 110 142 130q-116 30 -116 117q0 68 60.5 108t157.5 40q125 0 195 -76.5t70 -205.5q0 -135 -68.5 -209t-197.5 -74zM276 96q60 0 83.5 39t23.5 131q0 90 -25 131.5t-78 41.5q-30 0 -48 -14.5t-18 -40.5q0 -60 78 -60h13l9 -102h-34
q-88 0 -88 -59q0 -67 84 -67z" />
    <glyph glyph-name="uni029B" unicode="&#x29b;" 
d="M543 759q76 0 135 -38l-46 -98q-36 19 -67 19q-52 0 -52 -61v-105l-68 -75q-67 35 -127 35q-59 0 -91 -43t-32 -125q0 -94 25.5 -132.5t76.5 -38.5q42 0 73 14v96h-68l-15 104h231v-263q-94 -63 -221 -63q-265 0 -265 283q0 127 75.5 203.5t184.5 76.5q47 0 82 -13v53
q0 82 42.5 126.5t126.5 44.5z" />
    <glyph glyph-name="uni029C" unicode="&#x29c;" horiz-adv-x="586" 
d="M366 0v211h-146v-211h-158v531h158v-203h146v203h158v-531h-158z" />
    <glyph glyph-name="uni029D" unicode="&#x29d;" horiz-adv-x="341" 
d="M197 631q-41 0 -67 25.5t-26 64.5t26 64.5t67 25.5t67.5 -25.5t26.5 -64.5t-26.5 -64.5t-67.5 -25.5zM377 -44l-28 -66q-34 15 -84 31q-37 -143 -198 -143q-71 0 -109.5 31.5t-38.5 86.5q0 61 42.5 95t114.5 34q17 0 43 -2v508h158v-500q0 -24 -1 -35q53 -15 101 -40z
M57 -139q30 0 44.5 20t16.5 65q-17 3 -42 3q-63 0 -63 -48q0 -40 44 -40z" />
    <glyph glyph-name="uni029E" unicode="&#x29e;" horiz-adv-x="552" 
d="M4 0l161 234l-174 297h178l158 -290l-162 -241h-161zM332 -205v736h158v-753z" />
    <glyph glyph-name="uni029F" unicode="&#x29f;" horiz-adv-x="450" 
d="M220 531v-409h222l-17 -122h-363v531h158z" />
    <glyph glyph-name="uni02A0" unicode="&#x2a0;" horiz-adv-x="600" 
d="M568 759q76 0 135 -38l-46 -98q-36 19 -67 19q-52 0 -52 -61v-803l-158 17v256q-53 -68 -141 -68q-99 0 -150.5 76t-51.5 208q0 124 58.5 202.5t155.5 78.5q84 0 129 -60v88q0 83 49 133t139 50zM289 99q53 0 91 60v229q-39 45 -82 45q-97 0 -97 -167q0 -93 22.5 -130
t65.5 -37z" />
    <glyph glyph-name="uni02A1" unicode="&#x2a1;" horiz-adv-x="478" 
d="M307 310l-19 -8v-80h97v-93h-97v-129h-158v129h-67v93h67v132l43 13q62 19 92.5 54.5t30.5 97.5q0 59 -28 91t-79 32q-66 0 -127 -55l-78 80q95 92 228 92q112 0 179.5 -64.5t67.5 -172.5q0 -87 -40 -135.5t-112 -76.5z" />
    <glyph glyph-name="uni02A2" unicode="&#x2a2;" horiz-adv-x="478" 
d="M291 642q-50 0 -79.5 -32.5t-29.5 -91.5q0 -62 30.5 -97t92.5 -54l43 -13v-132h67v-93h-67v-129h-158v129h-97v93h97v80l-19 8q-72 28 -112 76.5t-40 135.5q0 107 70.5 172t181.5 65q128 0 223 -92l-78 -80q-60 55 -125 55z" />
    <glyph glyph-name="uni02A3" unicode="&#x2a3;" horiz-adv-x="982" 
d="M710 120h254l-15 -120h-551l-8 62q-56 -79 -151 -79q-99 0 -150.5 76t-51.5 208q0 124 60 202.5t157 78.5q76 0 126 -50v261l158 -17v-211h421v-111zM288 99q54 0 92 60v229q-39 45 -83 45t-70 -41t-26 -126q0 -93 22.5 -130t64.5 -37zM538 412v-299l247 299h-247z" />
    <glyph glyph-name="uni02A4" unicode="&#x2a4;" horiz-adv-x="1019" 
d="M786 213q216 -14 216 -204q0 -101 -72.5 -166t-196.5 -65q-150 0 -235 103l83 80q68 -62 143 -62q54 0 84.5 30t30.5 90q0 54 -31 77.5t-95 23.5h-92v92l171 201h-254v-413h-140l-8 62q-56 -79 -151 -79q-99 0 -150.5 76t-51.5 208q0 124 60 202.5t157 78.5q76 0 126 -50
v261l158 -17v-211h432v-108zM288 99q54 0 92 60v229q-39 45 -83 45t-70 -41t-26 -126q0 -93 22.5 -130t64.5 -37z" />
    <glyph glyph-name="uni02A5" unicode="&#x2a5;" horiz-adv-x="1066" 
d="M959 266q54 0 89 -31.5t35 -86.5q0 -149 -211 -148q-5 -31 -5 -128h-91q0 71 6 128h-384l-8 62q-56 -79 -151 -79q-99 0 -150.5 76t-51.5 208q0 124 60 202.5t157 78.5q76 0 126 -50v261l158 -17v-211h420v-105l-252 -306h93q38 146 160 146zM288 99q54 0 92 60v229
q-39 45 -83 45t-70 -41t-26 -126q0 -93 22.5 -130t64.5 -37zM538 412v-296l245 296h-245zM895 120q42 0 60.5 8t18.5 28q0 27 -28 27q-41 0 -56 -63h5zM877 33v-1l-1 -2z" />
    <glyph glyph-name="uni02A6" unicode="&#x2a6;" horiz-adv-x="745" 
d="M579 327q77 -25 112 -63t35 -98q0 -89 -82 -136t-236 -47q-172 0 -251.5 60t-79.5 186v192h-75v110h75v115l158 18v-133h95l-16 -110h-79v-190q0 -72 40.5 -103.5t133.5 -31.5q82 0 118 14t36 44q0 23 -16.5 38t-69.5 32q-79 25 -111.5 61t-32.5 99q0 71 54.5 117.5
t144.5 46.5q105 0 180 -63l-54 -86q-60 36 -118 36q-29 0 -44.5 -11.5t-15.5 -30.5q0 -20 20 -33.5t79 -32.5z" />
    <glyph glyph-name="uni02A7" unicode="&#x2a7;" horiz-adv-x="591" 
d="M559 759q76 0 135 -38l-46 -98q-36 19 -67 19q-52 0 -52 -61v-612q0 -93 -53 -142t-143 -49q-85 0 -142 43l53 92q40 -20 70 -20q57 0 57 61v47q-51 -18 -102 -18q-192 1 -192 196v242h-75v110h75v115l158 18v-133h136v45q0 83 49 133t139 50zM304 108q25 0 67 6v307
h-136v-242q0 -39 16.5 -55t52.5 -16z" />
    <glyph glyph-name="uni02A8" unicode="&#x2a8;" horiz-adv-x="819" 
d="M685 255q56 0 91.5 -32t35.5 -88q0 -74 -53.5 -113t-136.5 -39q-110 0 -181 59q-106 -59 -186 -59q-178 1 -178 192v246h-75v110h75v115l158 18v-133h122l-17 -110h-105v-244q0 -38 13.5 -53.5t46.5 -15.5q38 0 83 15q-28 61 -28 138q0 128 70.5 207.5t188.5 79.5
q106 0 182 -65l-68 -95q-48 39 -101 39q-107 0 -107 -165q0 -43 7 -71q75 64 163 64zM641 97q61 0 61 42q0 30 -31 30q-41 0 -108 -51q29 -21 78 -21z" />
    <glyph glyph-name="uni02A9" unicode="&#x2a9;" horiz-adv-x="882" 
d="M678 548q69 0 108 -42t39 -118v-419q0 -93 -53 -142t-143 -49q-85 0 -142 43l53 92q40 -20 70 -20q57 0 57 61v407q0 40 -12.5 55.5t-37.5 15.5q-48 0 -92 -69v-363h-158v421h-126v-421h-158v421h-80v110h80v47q0 80 52.5 130.5t150.5 50.5q79 0 145 -34l-43 -103
q-40 20 -83 20q-34 0 -49 -16t-15 -54v-41h264l11 -63q68 80 162 80z" />
    <glyph glyph-name="uni02AA" unicode="&#x2aa;" horiz-adv-x="690" 
d="M360 -17q-165 0 -234 59.5t-69 170.5v529l158 17v-552q0 -60 34 -85.5t111 -25.5q160 0 160 58q0 22 -18 36t-80 34q-79 25 -111.5 61t-32.5 99q0 71 54.5 117.5t144.5 46.5q105 0 180 -63l-54 -86q-60 36 -118 36q-29 0 -44.5 -11.5t-15.5 -30.5q0 -20 20 -33.5
t79 -32.5q77 -25 112 -63t35 -98q0 -89 -80.5 -136t-230.5 -47z" />
    <glyph glyph-name="uni02AB" unicode="&#x2ab;" horiz-adv-x="714" 
d="M696 120l-15 -120h-387q-42 -17 -91 -17q-69 0 -107.5 39.5t-38.5 112.5v607l158 17v-618q0 -33 27 -33q14 0 26 5l241 299h-221v119h403v-111l-243 -300h248z" />
    <glyph glyph-name="uni02AC" unicode="&#x2ac;" horiz-adv-x="469" 
d="M439 667l-61 -267h-104l-36 194l-39 -194h-103l-65 267h80l40 -206l41 206h95l38 -207l38 207h76zM439 267l-61 -267h-104l-36 194l-39 -194h-103l-65 267h80l40 -206l41 206h95l38 -207l38 207h76z" />
    <glyph glyph-name="uni02AD" unicode="&#x2ad;" horiz-adv-x="365" 
d="M30 399v165h305v-165h-94v84h-117v-84h-94zM30 -1v165h305v-165h-94v84h-117v-84h-94z" />
    <glyph glyph-name="uni02AE" unicode="&#x2ae;" horiz-adv-x="698" 
d="M478 531h158v-753l-158 17v262q-65 -74 -153 -74q-69 0 -108.5 42.5t-39.5 117.5v231q0 61 -57 61q-30 0 -70 -20l-53 92q57 43 142 43q90 0 143 -49t53 -142v-188q0 -71 51 -71q49 0 92 68v363z" />
    <glyph glyph-name="uni02AF" unicode="&#x2af;" horiz-adv-x="698" 
d="M763 -87l53 -92q-57 -43 -142 -43q-90 0 -143 49t-53 142v88q-65 -74 -153 -74q-69 0 -108.5 42.5t-39.5 117.5v231q0 61 -57 61q-30 0 -70 -20l-53 92q57 43 142 43q90 0 143 -49t53 -142v-188q0 -71 51 -71q49 0 92 68v363h158v-577q0 -61 57 -61q30 0 70 20z" />
    <glyph glyph-name="uni02B0" unicode="&#x2b0;" horiz-adv-x="312" 
d="M197 673q40 0 62.5 -20.5t22.5 -59.5v-193h-83v176q0 35 -29 35q-23 0 -57 -27v-184h-83v372l83 9v-141q36 33 84 33z" />
    <glyph glyph-name="uni02B1" unicode="&#x2b1;" horiz-adv-x="312" 
d="M197 673q40 0 62.5 -20.5t22.5 -59.5v-193h-83v176q0 35 -29 35q-23 0 -57 -27v-184h-83v293q0 38 28.5 62t79.5 24q42 0 81 -16l-23 -54q-27 8 -50 8q-33 0 -33 -29v-48q36 33 84 33z" />
    <glyph glyph-name="uni02B2" unicode="&#x2b2;" horiz-adv-x="211" 
d="M130 808q23 0 37 -14t14 -34t-14 -34t-37 -14t-38 14t-15 34t15 34t38 14zM171 665v-239q0 -61 -28.5 -89t-89.5 -46l-23 54q33 16 45.5 31t12.5 49v240h83z" />
    <glyph glyph-name="uni02B4" unicode="&#x2b4;" horiz-adv-x="248" 
d="M135 666h83v-266h-63l-15 56q-21 -63 -77 -63q-21 0 -33 5l13 76q11 -4 27 -4q26 0 40.5 19t24.5 57v120z" />
    <glyph glyph-name="uni02B7" unicode="&#x2b7;" horiz-adv-x="469" 
d="M439 667l-61 -267h-104l-36 194l-39 -194h-103l-65 267h80l40 -206l41 206h95l38 -207l38 207h76z" />
    <glyph glyph-name="uni02B8" unicode="&#x2b8;" horiz-adv-x="357" 
d="M327 667l-105 -271q-20 -52 -55.5 -79t-100.5 -34l-10 56q42 8 61 20.5t33 40.5h-25l-95 267h84l62 -215l69 215h82z" />
    <glyph glyph-name="uni02B9" unicode="&#x2b9;" horiz-adv-x="319" 
d="M48 414l80 279h143l-119 -279h-104z" />
    <glyph glyph-name="uni02BA" unicode="&#x2ba;" horiz-adv-x="513" 
d="M48 414l80 279h143l-119 -279h-104zM242 414l80 279h143l-119 -279h-104z" />
    <glyph glyph-name="uni02BB" unicode="&#x2bb;" horiz-adv-x="234" 
d="M114 586q-36 0 -60 23t-24 58q0 32 29 93l64 131h81l-42 -156q37 -26 37 -69q0 -34 -24.5 -57t-60.5 -23z" />
    <glyph glyph-name="uni02BC" unicode="&#x2bc;" horiz-adv-x="243" 
d="M121 766q36 0 60 -23t24 -58q0 -32 -29 -93l-64 -131h-81l42 156q-37 26 -37 69q0 34 24.5 57t60.5 23z" />
    <glyph glyph-name="uni02BF" unicode="&#x2bf;" horiz-adv-x="199" 
d="M169 605v81q-45 0 -45 50t45 50v81q-63 0 -101 -38t-38 -93t38 -93t101 -38z" />
    <glyph glyph-name="uni02C0" unicode="&#x2c0;" horiz-adv-x="293" 
d="M85 605v99q38 2 54.5 10.5t16.5 27.5q0 31 -40 31q-28 0 -60 -13l-26 66q46 26 109 26q59 0 91.5 -27.5t32.5 -73.5q0 -78 -84 -94v-52h-94z" />
    <glyph glyph-name="circumflex" unicode="&#x2c6;" horiz-adv-x="439" 
d="M86 620l-56 65l141 137h97l141 -137l-56 -65l-133 92z" />
    <glyph glyph-name="caron" unicode="&#x2c7;" horiz-adv-x="439" 
d="M353 813l56 -65l-141 -137h-96l-142 137l57 65l133 -91z" />
    <glyph glyph-name="uni02C8" unicode="&#x2c8;" horiz-adv-x="199" 
d="M30 620v262h139v-262h-139z" />
    <glyph glyph-name="uni02CA" unicode="&#x2ca;" horiz-adv-x="340" 
d="M248 835l62 -118l-236 -95l-44 81z" />
    <glyph glyph-name="uni02CB" unicode="&#x2cb;" horiz-adv-x="340" 
d="M92 835l218 -132l-44 -81l-236 95z" />
    <glyph glyph-name="uni02CC" unicode="&#x2cc;" horiz-adv-x="199" 
d="M30 -329v262h139v-262h-139z" />
    <glyph glyph-name="uni02CE" unicode="&#x2ce;" horiz-adv-x="340" 
d="M89 -41l221 -125l-40 -80l-240 87z" />
    <glyph glyph-name="uni02CF" unicode="&#x2cf;" horiz-adv-x="340" 
d="M251 -41l59 -118l-240 -87l-40 80z" />
    <glyph glyph-name="uni02D0" unicode="&#x2d0;" horiz-adv-x="230" 
d="M103 324l-74 175h171l-74 -175h-23zM103 175h23l74 -175h-171z" />
    <glyph glyph-name="uni02D1" unicode="&#x2d1;" horiz-adv-x="230" 
d="M103 323l-74 175h171l-74 -175h-23z" />
    <glyph glyph-name="uni02D4" unicode="&#x2d4;" horiz-adv-x="422" 
d="M373 265v-87h-325v87h112v148h100v-148h113z" />
    <glyph glyph-name="uni02D6" unicode="&#x2d6;" horiz-adv-x="487" 
d="M303 494v-140h136v-110h-136v-141h-118v141h-137v110h137v140h118z" />
    <glyph glyph-name="uni02D7" unicode="&#x2d7;" horiz-adv-x="476" 
d="M48 244v110h380v-110h-380z" />
    <glyph glyph-name="breve" unicode="&#x2d8;" horiz-adv-x="405" 
d="M202 632q-76 0 -121 48.5t-51 124.5l87 15q19 -78 85 -78q65 0 86 78l87 -15q-6 -75 -51.5 -124t-121.5 -49z" />
    <glyph glyph-name="dotaccent" unicode="&#x2d9;" horiz-adv-x="247" 
d="M123 811q41 0 67.5 -25.5t26.5 -64.5t-26.5 -64.5t-67.5 -25.5t-67 25.5t-26 64.5t26 64.5t67 25.5z" />
    <glyph glyph-name="ring" unicode="&#x2da;" horiz-adv-x="338" 
d="M169 867q63 0 101 -38t38 -93t-38 -93t-101 -38t-101 38t-38 93t38 93t101 38zM169 786q-45 0 -45 -50t45 -50q20 0 32.5 13t12.5 37q0 50 -45 50z" />
    <glyph glyph-name="ogonek" unicode="&#x2db;" horiz-adv-x="292" 
d="M268 50l25 -50q-118 -44 -118 -102q0 -46 53 -46q24 0 61 8l-11 -98q-35 -8 -70 -8q-65 0 -106 32t-41 85q0 66 53.5 109t153.5 70z" />
    <glyph glyph-name="tilde" unicode="&#x2dc;" horiz-adv-x="436" 
d="M276 635q-32 0 -66.5 22.5t-47.5 22.5q-28 0 -53 -44l-79 38q20 52 53.5 85t75.5 33q34 0 68.5 -22.5t47.5 -22.5q28 0 52 44l79 -39q-21 -53 -54.5 -85t-75.5 -32z" />
    <glyph glyph-name="hungarumlaut" unicode="&#x2dd;" horiz-adv-x="430" 
d="M118 860l108 -50l-113 -180l-83 33zM294 860l106 -53l-121 -182l-82 38z" />
    <glyph glyph-name="uni02DE" unicode="&#x2de;" horiz-adv-x="418" 
d="M306 307q-70 0 -109.5 32t-47.5 89l-1 6l-116 -67v107l109 57h131v-59q0 -55 52 -55q27 0 63 16l44 -89q-55 -37 -125 -37z" />
    <glyph glyph-name="uni02E0" unicode="&#x2e0;" horiz-adv-x="359" 
d="M324 665l-103 -228q36 -51 36 -86q0 -28 -19.5 -44.5t-56.5 -16.5t-57 16t-20 45q0 38 38 87l-106 227h86l59 -179l58 179h85zM194 355q0 15 -13 42q-14 -28 -14 -42t14 -14q13 0 13 14z" />
    <glyph glyph-name="uni02E1" unicode="&#x2e1;" horiz-adv-x="186" 
d="M108 391q-78 0 -78 75v306l83 8v-311q0 -12 12 -12q3 0 15 3l16 -60q-25 -9 -48 -9z" />
    <glyph glyph-name="uni02E2" unicode="&#x2e2;" horiz-adv-x="308" 
d="M167 673q59 0 106 -34l-33 -46q-37 21 -72 21q-41 0 -41 -19q0 -10 11.5 -15t51.5 -15q51 -12 73 -31.5t22 -55.5q0 -37 -35 -62t-93 -25q-71 0 -124 39l39 44q42 -24 85 -24q46 0 46 24q0 12 -11.5 18.5t-53.5 16.5q-46 11 -68 30.5t-22 52.5q0 35 32.5 58t86.5 23z" />
    <glyph glyph-name="uni02E3" unicode="&#x2e3;" horiz-adv-x="348" 
d="M223 542l95 -142h-90l-56 99l-55 -99h-87l95 140l-85 125h89l46 -84l44 84h85z" />
    <glyph glyph-name="uni02E4" unicode="&#x2e4;" horiz-adv-x="327" 
d="M216 400h-84v144l-16 5q-45 14 -65.5 38t-20.5 70q0 56 40.5 89t105.5 33q64 0 121 -44l-40 -46q-41 26 -76 26q-31 0 -49.5 -15t-18.5 -43q0 -31 17 -46t54 -25l32 -8v-178z" />
    <glyph glyph-name="uni02E5" unicode="&#x2e5;" horiz-adv-x="369" 
d="M228 0v595h-198v98h309v-693h-111z" />
    <glyph glyph-name="uni02E6" unicode="&#x2e6;" horiz-adv-x="369" 
d="M228 693h111v-693h-111v449h-198v98h198v146z" />
    <glyph glyph-name="uni02E7" unicode="&#x2e7;" horiz-adv-x="369" 
d="M228 693h111v-693h-111v299h-198v98h198v296z" />
    <glyph glyph-name="uni02E8" unicode="&#x2e8;" horiz-adv-x="369" 
d="M228 693h111v-693h-111v149h-198v98h198v446z" />
    <glyph glyph-name="uni02E9" unicode="&#x2e9;" horiz-adv-x="369" 
d="M228 693h111v-693h-309v99h198v594z" />
    <glyph glyph-name="uni02EE" unicode="&#x2ee;" horiz-adv-x="411" 
d="M112 759q32 0 53.5 -20.5t21.5 -52.5q0 -30 -26 -83l-57 -118h-73l38 140q-34 24 -34 62q0 31 22 51.5t55 20.5zM296 759q33 0 54.5 -20.5t21.5 -52.5q0 -30 -26 -83l-58 -118h-73l38 140q-33 24 -33 62q0 31 22 51.5t54 20.5z" />
    <glyph glyph-name="gravecomb" unicode="&#x300;" horiz-adv-x="0" 
d="M-248 835l218 -132l-44 -81l-236 95z" />
    <glyph glyph-name="acutecomb" unicode="&#x301;" horiz-adv-x="0" 
d="M-92 835l62 -118l-236 -95l-44 81z" />
    <glyph glyph-name="uni0302" unicode="&#x302;" horiz-adv-x="0" 
d="M-353 620l-56 65l141 137h97l141 -137l-56 -65l-133 92z" />
    <glyph glyph-name="tildecomb" unicode="&#x303;" horiz-adv-x="0" 
d="M-160 635q-32 0 -66.5 22.5t-47.5 22.5q-28 0 -53 -44l-79 38q20 52 53.5 85t75.5 33q34 0 68.5 -22.5t47.5 -22.5q28 0 52 44l79 -39q-21 -53 -54.5 -85t-75.5 -32z" />
    <glyph glyph-name="uni0304" unicode="&#x304;" horiz-adv-x="0" 
d="M-30 655h-305v110h305v-110z" />
    <glyph glyph-name="uni0306" unicode="&#x306;" horiz-adv-x="0" 
d="M-203 632q-76 0 -121 48.5t-51 124.5l87 15q20 -78 85 -78t86 78l87 -15q-6 -75 -51.5 -124t-121.5 -49z" />
    <glyph glyph-name="uni0307" unicode="&#x307;" horiz-adv-x="0" 
d="M-124 811q41 0 67.5 -25.5t26.5 -64.5t-26.5 -64.5t-67.5 -25.5t-67 25.5t-26 64.5t26 64.5t67 25.5z" />
    <glyph glyph-name="uni0308" unicode="&#x308;" horiz-adv-x="0" 
d="M-342 799q34 0 57.5 -23t23.5 -56t-23.5 -56t-57.5 -23t-57.5 23t-23.5 56t23.5 56t57.5 23zM-111 799q35 0 58 -23t23 -56t-23 -56t-58 -23q-33 0 -56.5 23t-23.5 56t23.5 56t56.5 23z" />
    <glyph glyph-name="hookabovecomb" unicode="&#x309;" horiz-adv-x="0" 
d="M-202 605v99q38 2 54.5 10.5t16.5 27.5q0 31 -40 31q-27 0 -60 -13l-26 66q45 26 109 26q59 0 91.5 -27.5t32.5 -73.5q0 -78 -84 -94v-52h-94z" />
    <glyph glyph-name="uni030A" unicode="&#x30a;" horiz-adv-x="0" 
d="M-169 867q63 0 101 -38t38 -93t-38 -93t-101 -38t-101 38t-38 93t38 93t101 38zM-169 786q-45 0 -45 -50t45 -50q20 0 32.5 13t12.5 37q0 50 -45 50z" />
    <glyph glyph-name="uni030B" unicode="&#x30b;" horiz-adv-x="0" 
d="M-312 860l108 -50l-113 -180l-83 33zM-136 860l106 -53l-121 -182l-82 38z" />
    <glyph glyph-name="uni030C" unicode="&#x30c;" horiz-adv-x="0" 
d="M-86 813l56 -65l-141 -137h-96l-142 137l57 65l133 -91z" />
    <glyph glyph-name="uni030D" unicode="&#x30d;" horiz-adv-x="0" 
d="M-169 620v262h139v-262h-139z" />
    <glyph glyph-name="uni030F" unicode="&#x30f;" horiz-adv-x="0" 
d="M-294 860l97 -197l-81 -38l-122 182zM-118 860l88 -197l-83 -33l-113 180z" />
    <glyph glyph-name="uni0311" unicode="&#x311;" horiz-adv-x="0" 
d="M-203 790q76 0 121.5 -49t51.5 -124l-87 -15q-21 78 -86 78t-85 -78l-87 15q6 76 51 124.5t121 48.5z" />
    <glyph glyph-name="uni0312" unicode="&#x312;" horiz-adv-x="0" 
d="M-111 577q-34 0 -56.5 22t-22.5 55q0 30 27 84l46 96h79l-27 -115q33 -26 33 -65q0 -32 -22.5 -54.5t-56.5 -22.5z" />
    <glyph glyph-name="uni0313" unicode="&#x313;" horiz-adv-x="0" 
d="M-109 840q34 0 56.5 -22t22.5 -55q0 -30 -27 -84l-46 -96h-79l27 115q-33 26 -33 65q0 32 22.5 54.5t56.5 22.5z" />
    <glyph glyph-name="uni0316" unicode="&#x316;" horiz-adv-x="0" 
d="M-251 -41l221 -125l-40 -80l-240 87z" />
    <glyph glyph-name="uni0317" unicode="&#x317;" horiz-adv-x="0" 
d="M-89 -41l59 -118l-240 -87l-40 80z" />
    <glyph glyph-name="uni0318" unicode="&#x318;" horiz-adv-x="0" 
d="M-125 -58h95v-296h-95v105h-121v85h121v106z" />
    <glyph glyph-name="uni0319" unicode="&#x319;" horiz-adv-x="0" 
d="M-151 -58v-106h121v-85h-121v-105h-95v296h95z" />
    <glyph glyph-name="uni031A" unicode="&#x31a;" horiz-adv-x="0" 
d="M-240 801h210v-206h-94v122h-116v84z" />
    <glyph glyph-name="uni031B" unicode="&#x31b;" horiz-adv-x="0" 
d="M-179 395l-10 76q27 3 39 16t12 40q0 30 -13 67l102 15q19 -36 19 -88q0 -62 -39 -93.5t-110 -32.5z" />
    <glyph glyph-name="uni031C" unicode="&#x31c;" horiz-adv-x="0" 
d="M-30 -314v81q-45 0 -45 50t45 50v81q-63 0 -101 -38t-38 -93t38 -93t101 -38z" />
    <glyph glyph-name="uni031D" unicode="&#x31d;" horiz-adv-x="0" 
d="M-30 -235v-87h-325v87h112v148h100v-148h113z" />
    <glyph glyph-name="uni031E" unicode="&#x31e;" horiz-adv-x="0" 
d="M-30 -174h-113v-148h-100v148h-112v87h325v-87z" />
    <glyph glyph-name="uni031F" unicode="&#x31f;" horiz-adv-x="0" 
d="M-122 -78v-87h92v-88h-92v-86h-102v86h-91v88h91v87h102z" />
    <glyph glyph-name="uni0320" unicode="&#x320;" horiz-adv-x="0" 
d="M-315 -253v88h284v-88h-284z" />
    <glyph glyph-name="uni0321" unicode="&#x321;" horiz-adv-x="0" 
d="M-226 -222q-85 0 -142 43l53 92q40 -20 70 -20q57 0 57 61v47h158v-32q0 -93 -53 -142t-143 -49z" />
    <glyph glyph-name="dotbelowcomb" unicode="&#x323;" horiz-adv-x="0" 
d="M-123 -240q-41 0 -67.5 25.5t-26.5 64.5t26.5 64.5t67.5 25.5t67 -25.5t26 -64.5t-26 -64.5t-67 -25.5z" />
    <glyph glyph-name="uni0324" unicode="&#x324;" horiz-adv-x="0" 
d="M-342 -69q34 0 57.5 -23t23.5 -56t-23.5 -56t-57.5 -23t-57.5 23t-23.5 56t23.5 56t57.5 23zM-111 -69q35 0 58 -23t23 -56t-23 -56t-58 -23q-33 0 -56.5 23t-23.5 56t23.5 56t56.5 23z" />
    <glyph glyph-name="uni0325" unicode="&#x325;" horiz-adv-x="0" 
d="M-169 -52q63 0 101 -38t38 -93t-38 -93t-101 -38t-101 38t-38 93t38 93t101 38zM-169 -133q-45 0 -45 -50t45 -50q20 0 32.5 13t12.5 37q0 50 -45 50z" />
    <glyph glyph-name="uni0326" unicode="&#x326;" horiz-adv-x="0" 
d="M-109 -68q34 0 56.5 -22t22.5 -55q0 -30 -27 -84l-46 -96h-79l27 115q-33 26 -33 65q0 32 22.5 54.5t56.5 22.5z" />
    <glyph glyph-name="uni0327" unicode="&#x327;" horiz-adv-x="0" 
d="M-134 16v-64q104 -12 104 -99q0 -51 -40.5 -83t-108.5 -32t-112 30l36 73q34 -17 64 -17q47 0 47 30q0 34 -92 34l15 128h87z" />
    <glyph glyph-name="uni0328" unicode="&#x328;" horiz-adv-x="0" 
d="M-55 50l25 -50q-118 -44 -118 -102q0 -46 53 -46q24 0 61 8l-11 -98q-35 -8 -70 -8q-65 0 -106 32t-41 85q0 66 53.5 109t153.5 70z" />
    <glyph glyph-name="uni0329" unicode="&#x329;" horiz-adv-x="0" 
d="M-173 -329v262h139v-262h-139z" />
    <glyph glyph-name="uni032A" unicode="&#x32a;" horiz-adv-x="0" 
d="M-335 -252v165h305v-165h-94v84h-117v-84h-94z" />
    <glyph glyph-name="uni032B" unicode="&#x32b;" horiz-adv-x="0" 
d="M-96 -55l66 -7q-5 -73 -34.5 -118.5t-80.5 -45.5q-65 0 -96 76q-31 -76 -97 -76q-51 0 -80.5 45.5t-33.5 118.5l65 7q11 -68 52 -68q42 0 53 68h81q12 -68 53 -68t52 68z" />
    <glyph glyph-name="uni032C" unicode="&#x32c;" horiz-adv-x="0" 
d="M-86 -61l56 -65l-141 -129h-96l-142 129l57 65l133 -84z" />
    <glyph glyph-name="uni032D" unicode="&#x32d;" horiz-adv-x="0" 
d="M-353 -265l-56 65l141 137h97l141 -137l-56 -65l-133 92z" />
    <glyph glyph-name="uni032F" unicode="&#x32f;" horiz-adv-x="0" 
d="M-203 -45q76 0 121.5 -49t51.5 -124l-87 -15q-21 78 -86 78t-85 -78l-87 15q6 76 51 124.5t121 48.5z" />
    <glyph glyph-name="uni0330" unicode="&#x330;" horiz-adv-x="0" 
d="M-160 -211q-32 0 -66.5 22.5t-47.5 22.5q-28 0 -53 -44l-79 38q20 52 53.5 85t75.5 33q34 0 68.5 -22.5t47.5 -22.5q28 0 52 44l79 -39q-21 -53 -54.5 -85t-75.5 -32z" />
    <glyph glyph-name="uni0331" unicode="&#x331;" horiz-adv-x="0" 
d="M-30 -191h-305v110h305v-110z" />
    <glyph glyph-name="uni0332" unicode="&#x332;" horiz-adv-x="0" 
d="M-31 -191h-458v110h458v-110z" />
    <glyph glyph-name="uni0334" unicode="&#x334;" horiz-adv-x="0" 
d="M-190 232q-30 0 -57 9.5t-43 21t-34.5 21t-34.5 9.5t-30 -9t-20 -16.5t-19 -26.5l-84 42q28 57 66 92t95 35q38 0 69.5 -15t55.5 -30t44 -15q23 0 37.5 12t31.5 36l83 -41q-62 -125 -160 -125z" />
    <glyph glyph-name="uni0335" unicode="&#x335;" horiz-adv-x="0" 
d="M-363 252v122h319v-122h-319z" />
    <glyph glyph-name="uni0336" unicode="&#x336;" horiz-adv-x="0" 
d="M-783 252v122h754v-122h-754z" />
    <glyph glyph-name="uni0339" unicode="&#x339;" horiz-adv-x="0" 
d="M-169 -313q63 0 101 38t38 93t-38 93t-101 38v-81q45 0 45 -50t-45 -50v-81z" />
    <glyph glyph-name="uni033A" unicode="&#x33a;" horiz-adv-x="0" 
d="M-335 -86h94v-84h117v84h94v-165h-305v165z" />
    <glyph glyph-name="uni033B" unicode="&#x33b;" horiz-adv-x="0" 
d="M-335 -251v189h305v-189h-305zM-259 -188h153v63h-153v-63z" />
    <glyph glyph-name="uni033C" unicode="&#x33c;" horiz-adv-x="0" 
d="M-145 -56q51 0 80.5 -45.5t34.5 -118.5l-66 -7q-11 68 -52 68t-53 -68h-81q-11 68 -53 68q-41 0 -52 -68l-65 7q4 73 33.5 118.5t80.5 45.5q66 0 97 -76q31 76 96 76z" />
    <glyph glyph-name="uni033D" unicode="&#x33d;" horiz-adv-x="0" 
d="M-125 728l95 -128h-90l-56 89l-55 -89h-87l95 126l-85 112h89l46 -75l44 75h85z" />
    <glyph glyph-name="uni0342" unicode="&#x342;" horiz-adv-x="0" 
d="M-160 635q-32 0 -66.5 22.5t-47.5 22.5q-28 0 -53 -44l-79 38q20 52 53.5 85t75.5 33q34 0 68.5 -22.5t47.5 -22.5q28 0 52 44l79 -39q-21 -53 -54.5 -85t-75.5 -32z" />
    <glyph glyph-name="uni0345" unicode="&#x345;" horiz-adv-x="0" 
d="M-142 -204q-63 0 -97.5 35.5t-34.5 92.5v34h113v-31q0 -41 39 -41q23 0 51 15l41 -67q-47 -38 -112 -38z" />
    <glyph glyph-name="uni035C" unicode="&#x35c;" horiz-adv-x="0" 
d="M340 -98q-158 -126 -341 -126q-181 0 -341 126l50 71q135 -72 291 -72q154 0 291 72z" />
    <glyph glyph-name="uni0361" unicode="&#x361;" horiz-adv-x="0" 
d="M340 686l-50 -71q-137 72 -291 72q-156 0 -291 -72l-50 71q160 126 341 126q183 0 341 -126z" />
    <glyph glyph-name="uni0370" unicode="&#x370;" horiz-adv-x="522" 
d="M513 297h-284v-297h-164v693h164v-268h284v-128z" />
    <glyph glyph-name="uni0371" unicode="&#x371;" horiz-adv-x="478" 
d="M459 332v-122h-234v-210h-158v382q0 73 -22 143l146 20q34 -68 34 -200v-13h234z" />
    <glyph glyph-name="uni0372" unicode="&#x372;" horiz-adv-x="652" 
d="M9 693h634v-313h-140v189h-95v-569h-164v569h-95v-190h-140v314z" />
    <glyph glyph-name="uni0373" unicode="&#x373;" horiz-adv-x="513" 
d="M512 531v-118h-173v-618l-158 -17v635h-71q-53 0 -90 -11l-28 106q53 23 147 23h373z" />
    <glyph glyph-name="uni0374" unicode="&#x374;" horiz-adv-x="319" 
d="M48 414l80 279h143l-119 -279h-104z" />
    <glyph glyph-name="uni0375" unicode="&#x375;" horiz-adv-x="319" 
d="M271 146l-80 -279h-143l119 279h104z" />
    <glyph glyph-name="uni0376" unicode="&#x376;" horiz-adv-x="663" 
d="M599 693v-693h-161v259q0 143 23 273l-199 -532h-197v693h161v-264q0 -120 -24 -266l203 530h194z" />
    <glyph glyph-name="uni0377" unicode="&#x377;" horiz-adv-x="589" 
d="M523 179q0 -35 8.5 -52.5t34.5 -29.5l-47 -114q-143 31 -143 161q0 45 12.5 127.5t24.5 133.5l-190 -405h-161v531h151v-192q0 -106 -21 -188l182 380h149v-352z" />
    <glyph glyph-name="uni037A" unicode="&#x37a;" horiz-adv-x="362" 
d="M162 -204q-63 0 -97.5 35.5t-34.5 92.5v34h113v-31q0 -41 39 -41q23 0 51 15l41 -67q-47 -38 -112 -38z" />
    <glyph glyph-name="uni037B" unicode="&#x37b;" horiz-adv-x="513" 
d="M210 548q125 0 198 -77t73 -210q0 -129 -75.5 -203.5t-203.5 -74.5q-110 0 -197 63l69 96q62 -34 117 -34q124 0 124 154q0 165 -117 165q-65 0 -125 -38l-68 94q90 65 205 65z" />
    <glyph glyph-name="uni037C" unicode="&#x37c;" horiz-adv-x="513" 
d="M310 548q112 0 198 -65l-68 -94q-60 38 -117 38q-125 0 -125 -165q0 -154 124 -154q54 0 117 34l69 -96q-87 -63 -197 -63q-128 0 -203.5 74.5t-75.5 203.5q0 127 77 207t201 80zM333 343q36 0 59 -22.5t23 -56.5q0 -33 -23 -56t-59 -23t-59 23t-23 56q0 34 23 56.5
t59 22.5z" />
    <glyph glyph-name="uni037D" unicode="&#x37d;" horiz-adv-x="513" 
d="M210 548q125 0 198 -77t73 -210q0 -129 -75.5 -203.5t-203.5 -74.5q-110 0 -197 63l69 96q62 -34 117 -34q124 0 124 154q0 165 -117 165q-65 0 -125 -38l-68 94q90 65 205 65zM181 343q36 0 59 -22.5t23 -56.5q0 -33 -23 -56t-59 -23t-59 23t-23 56q0 34 23 56.5
t59 22.5z" />
    <glyph glyph-name="uni037E" unicode="&#x37e;" horiz-adv-x="240" 
d="M120 510q37 0 63.5 -26.5t26.5 -63.5q0 -38 -26.5 -64.5t-63.5 -26.5q-38 0 -64.5 26.5t-26.5 64.5q0 37 26.5 63.5t64.5 26.5zM120 164q38 0 64 -26t26 -64q0 -35 -32 -106l-63 -145h-89l43 176q-40 27 -40 75q0 38 26 64t65 26z" />
    <glyph glyph-name="uni037F" unicode="&#x37f;" horiz-adv-x="317" 
d="M256 693v-588q0 -63 -17.5 -110.5t-51 -78.5t-69.5 -50t-85 -35l-44 116q63 25 83 61t20 103v582h164z" />
    <glyph glyph-name="tonos" unicode="&#x384;" horiz-adv-x="215" 
d="M31 836l154 -12l-46 -228h-101z" />
    <glyph glyph-name="dieresistonos" unicode="&#x385;" horiz-adv-x="485" 
d="M193 948l132 -10l-39 -197h-87zM111 759q33 0 57 -23t24 -56t-24 -56t-57 -23q-34 0 -57.5 23t-23.5 56t23.5 56t57.5 23zM374 759q33 0 57 -23t24 -56t-24 -56t-57 -23q-34 0 -57.5 23t-23.5 56t23.5 56t57.5 23z" />
    <glyph glyph-name="Alphatonos" unicode="&#x386;" horiz-adv-x="691" 
d="M232 693l-46 -228h-101l-7 240zM531 0l-36 149h-202l-35 -149h-170l209 693h199l209 -693h-174zM321 268h146l-73 306z" />
    <glyph glyph-name="anoteleia" unicode="&#x387;" horiz-adv-x="240" 
d="M120 398q37 0 63.5 -26.5t26.5 -63.5q0 -38 -26.5 -64.5t-63.5 -26.5q-38 0 -64.5 26.5t-26.5 64.5q0 37 26.5 63.5t64.5 26.5z" />
    <glyph glyph-name="Epsilontonos" unicode="&#x388;" horiz-adv-x="719" 
d="M73 705l154 -12l-46 -228h-101zM683 693l-17 -117h-244v-166h213v-115h-213v-177h261v-118h-425v693h425z" />
    <glyph glyph-name="Etatonos" unicode="&#x389;" horiz-adv-x="859" 
d="M73 705l154 -12l-46 -228h-101zM630 0v297h-208v-297h-164v693h164v-268h208v268h164v-693h-164z" />
    <glyph glyph-name="Iotatonos" unicode="&#x38a;" horiz-adv-x="486" 
d="M73 705l154 -12l-46 -228h-101zM422 693v-693h-164v693h164z" />
    <glyph glyph-name="Omicrontonos" unicode="&#x38c;" horiz-adv-x="838" 
d="M492 710q148 0 230.5 -95t82.5 -268q0 -170 -83 -267t-230 -97t-229.5 95.5t-82.5 268.5q0 170 83 266.5t229 96.5zM67 705l154 -12l-46 -228h-101zM492 590q-71 0 -105.5 -57.5t-34.5 -185.5t35 -186t105 -58q72 0 106.5 57.5t34.5 186.5t-35 186t-106 57z" />
    <glyph glyph-name="Upsilontonos" unicode="&#x38e;" horiz-adv-x="845" 
d="M73 705l154 -12l-46 -228h-101zM853 693l-222 -433v-260h-164v259l-222 434h179l128 -305l128 305h173z" />
    <glyph glyph-name="Omegatonos" unicode="&#x38f;" horiz-adv-x="856" 
d="M511 710q145 0 229 -92.5t84 -239.5q0 -183 -135 -259h113v-119h-253v112q61 26 82 85.5t21 180.5q0 212 -141 212q-140 0 -140 -213q0 -121 21 -179t81 -86v-112h-253v119h111q-132 73 -132 258q0 146 84.5 239.5t227.5 93.5zM62 705l154 -12l-46 -228h-101z" />
    <glyph glyph-name="iotadieresistonos" unicode="&#x390;" horiz-adv-x="282" 
d="M86 948l132 -10l-39 -197h-87zM4 759q33 0 57 -23t24 -56t-24 -56t-57 -23q-34 0 -57.5 23t-23.5 56t23.5 56t57.5 23zM267 759q33 0 57 -23t24 -56t-24 -56t-57 -23q-34 0 -57.5 23t-23.5 56t23.5 56t57.5 23zM215 531v-352q0 -36 9.5 -53.5t33.5 -28.5l-46 -114
q-78 14 -116.5 55.5t-38.5 120.5v372h158z" />
    <glyph glyph-name="Alpha" unicode="&#x391;" horiz-adv-x="590" 
d="M430 0l-36 149h-202l-35 -149h-170l209 693h199l209 -693h-174zM220 268h146l-73 306z" />
    <glyph glyph-name="Beta" unicode="&#x392;" horiz-adv-x="617" 
d="M434 367q156 -30 156 -165q0 -111 -79.5 -156.5t-222.5 -45.5h-223v693h196q146 0 223 -41.5t77 -135.5q0 -61 -36.5 -98.5t-90.5 -50.5zM277 577h-48v-161h61q104 0 104 84q0 42 -28 59.5t-89 17.5zM289 119q65 0 98.5 19.5t33.5 72.5q0 96 -120 96h-72v-188h60z" />
    </font>
</defs>
</svg>
